<?xml version="1.0" encoding="utf-8"?>
<!-- Generator: Adobe Illustrator 21.0.0, SVG Export Plug-In . SVG Version: 6.00 Build 0)  -->
<svg version="1.1" id="Layer_1" xmlns="http://www.w3.org/2000/svg" xmlns:xlink="http://www.w3.org/1999/xlink" x="0px" y="0px"
	 viewBox="0 0 112 248" style="enable-background:new 0 0 112 248;" xml:space="preserve">
<style type="text/css">
	.st0{fill:#ED1B56;}
</style>
<g>
	<path class="st0" d="M10.5,237.4L9.4,240l-2.8,0.1l6.8-15.5l2.5-0.1l7.5,15.3l-2.7,0l-1.2-2.5L10.5,237.4z M18.2,234.7l-3.4-7
		l-3.1,7.1L18.2,234.7z"/>
	<path class="st0" d="M17.6,221.5l2.4-1.2l9.2,8.1L28.3,216l2.2-1.1l9.6,7.8l-1.3-12.2l2.4-1.2l1.7,16.4l-1.9,1l-10-8.2l0.9,12.9
		l-1.9,1L17.6,221.5z"/>
	<path class="st0" d="M43.9,198.2l-4.6,5.6l3,2.5l4.6-5.6l1.9,1.6l-4.6,5.6l3.1,2.5l4.6-5.5l1.9,1.6l-6.1,7.5l-11.9-9.8l6.1-7.5
		L43.9,198.2z"/>
	<path class="st0" d="M42.1,194.9c-0.3-0.5-0.6-1-0.7-1.6c-0.1-0.6-0.1-1.1,0-1.7c0.1-0.6,0.3-1.2,0.7-1.8c0.6-1.1,1.4-1.8,2.4-2.3
		c1-0.4,2.1-0.5,3.3-0.1l-0.3,2.5c-0.8-0.2-1.5-0.2-2,0c-0.5,0.2-1,0.6-1.3,1.2c-0.4,0.7-0.5,1.2-0.4,1.7s0.4,0.9,0.8,1.1
		c0.3,0.2,0.6,0.2,0.8,0.2c0.3,0,0.5-0.1,0.8-0.3c0.3-0.1,0.6-0.3,0.8-0.6c0.3-0.2,0.6-0.5,0.9-0.8c0.5-0.4,0.9-0.8,1.4-1.1
		c0.4-0.3,0.9-0.6,1.4-0.7s1-0.2,1.5-0.2c0.5,0,1.1,0.2,1.7,0.6c0.6,0.4,1.1,0.8,1.5,1.3c0.3,0.5,0.6,1,0.7,1.6
		c0.1,0.6,0.1,1.1,0,1.7c-0.1,0.6-0.3,1.2-0.7,1.7c-0.3,0.5-0.6,0.9-1,1.3s-0.8,0.7-1.3,0.9s-1,0.4-1.6,0.5c-0.6,0.1-1.2,0-1.9-0.2
		l0.2-2.5c1.5,0.5,2.7,0.1,3.4-1.3c0.4-0.6,0.5-1.2,0.4-1.7c-0.1-0.5-0.4-0.9-0.9-1.2c-0.3-0.2-0.6-0.3-0.9-0.2
		c-0.3,0-0.6,0.1-0.8,0.2c-0.3,0.1-0.5,0.3-0.8,0.6c-0.3,0.2-0.5,0.5-0.8,0.7c-0.4,0.4-0.8,0.7-1.2,1c-0.4,0.3-0.9,0.6-1.4,0.8
		c-0.5,0.2-1,0.3-1.6,0.3c-0.6,0-1.2-0.2-1.8-0.6C42.9,195.8,42.5,195.4,42.1,194.9z"/>
	<path class="st0" d="M46.1,184.7c-0.7-0.7-1.3-1.5-1.7-2.4s-0.6-1.8-0.6-2.9c0-1,0.2-2,0.6-3.1c0.4-1,1-1.9,1.7-2.6
		c0.7-0.7,1.5-1.3,2.4-1.7c0.9-0.4,1.8-0.6,2.9-0.6c1,0,2,0.2,3.1,0.6c1,0.4,1.9,1,2.6,1.7c0.7,0.7,1.3,1.5,1.7,2.4s0.6,1.8,0.6,2.9
		c0,1-0.2,2-0.6,3.1c-0.4,1-1,1.9-1.7,2.6c-0.7,0.7-1.5,1.3-2.4,1.7c-0.9,0.4-1.8,0.6-2.9,0.6c-1,0-2-0.2-3.1-0.6
		C47.7,186,46.8,185.4,46.1,184.7z M51.4,174c-0.7,0-1.3,0.1-1.9,0.4c-0.6,0.3-1.1,0.6-1.6,1.1c-0.5,0.5-0.9,1.1-1.1,1.8
		c-0.3,0.7-0.4,1.4-0.4,2.1c0,0.7,0.1,1.3,0.4,1.9c0.3,0.6,0.6,1.1,1.1,1.6c0.5,0.5,1.1,0.9,1.8,1.1c0.7,0.3,1.4,0.4,2.1,0.4
		c0.7,0,1.3-0.1,1.9-0.4c0.6-0.3,1.1-0.6,1.6-1.1c0.5-0.5,0.9-1.1,1.1-1.8c0.3-0.7,0.4-1.4,0.4-2.1c0-0.7-0.1-1.3-0.4-1.9
		c-0.3-0.6-0.6-1.1-1.1-1.6c-0.5-0.5-1.1-0.9-1.8-1.1C52.8,174.1,52.1,174,51.4,174z"/>
	<path class="st0" d="M57.7,170.5l-14.9-3.7l0.6-2.4l13.5-3.8l-10.1-9.7l0.6-2.4l14.9,3.7l-0.6,2.4l-9.9-2.5l8.5,8.1l-0.5,2.1
		l-11.3,3.2l9.9,2.5L57.7,170.5z"/>
	<path class="st0" d="M47.4,136l-1.4,7.1l3.9,0.8l1.4-7.1l2.5,0.5l-1.4,7.1l3.9,0.8l1.4-7l2.5,0.5l-1.9,9.5l-15.1-3l1.9-9.5
		L47.4,136z"/>
	<path class="st0" d="M56.5,129.2l-14.9-3.8l1.5-6.1c0.2-0.8,0.5-1.4,0.9-2c0.4-0.6,0.9-1,1.5-1.4s1.2-0.6,1.9-0.7
		c0.7-0.1,1.4-0.1,2.1,0.1c1,0.2,1.8,0.7,2.5,1.3c0.6,0.6,1.1,1.4,1.3,2.3l6.4-2.5l-0.8,3l-5.6,2.2c0,0,0,0.1,0,0.1c0,0,0,0,0,0.1
		l-0.9,3.7l4.7,1.2L56.5,129.2z M49.5,123.3l-0.8-2.3L51,120c-0.1-0.5-0.3-1-0.7-1.3c-0.4-0.4-0.8-0.6-1.4-0.8
		c-0.4-0.1-0.8-0.1-1.1-0.1c-0.4,0-0.7,0.2-1,0.3c-0.3,0.2-0.6,0.4-0.8,0.7c-0.2,0.3-0.4,0.7-0.5,1.1l-0.9,3.7L50,125l0.5-2.1
		L49.5,123.3z"/>
	<path class="st0" d="M45.9,111.8c-0.8-0.7-1.4-1.5-1.8-2.3c-0.4-0.9-0.7-1.8-0.7-2.8c-0.1-1,0.1-2,0.4-3.1c0.4-1,0.9-2,1.6-2.7
		s1.4-1.4,2.3-1.8c0.9-0.4,1.8-0.7,2.8-0.7c1-0.1,2,0.1,3.1,0.4c1,0.4,1.9,0.9,2.7,1.6c0.8,0.7,1.4,1.4,1.8,2.3
		c0.4,0.9,0.7,1.8,0.7,2.8c0.1,1-0.1,2.1-0.4,3.1c-0.4,1-0.9,1.9-1.5,2.7c-0.7,0.8-1.5,1.4-2.3,1.8c-0.9,0.4-1.8,0.7-2.8,0.7
		c-1,0.1-2-0.1-3.1-0.4C47.5,113,46.6,112.5,45.9,111.8z M50.7,100.9c-0.7,0-1.3,0.2-1.9,0.5c-0.6,0.3-1.1,0.7-1.6,1.2
		c-0.5,0.5-0.8,1.1-1,1.8c-0.2,0.7-0.3,1.4-0.3,2.1c0,0.7,0.2,1.3,0.5,1.9c0.3,0.6,0.7,1.1,1.2,1.6c0.5,0.5,1.1,0.8,1.8,1
		c0.7,0.2,1.4,0.3,2.1,0.3c0.7,0,1.3-0.2,1.9-0.5c0.6-0.3,1.1-0.7,1.6-1.2c0.5-0.5,0.8-1.1,1-1.8c0.2-0.7,0.3-1.4,0.3-2.1
		c0-0.7-0.2-1.3-0.5-1.9c-0.3-0.6-0.7-1.1-1.2-1.6c-0.5-0.5-1.1-0.8-1.8-1C52.1,100.9,51.4,100.8,50.7,100.9z"/>
	<path class="st0" d="M47.9,93.5c-0.7-0.8-1.2-1.6-1.5-2.6c-0.3-0.9-0.4-1.9-0.4-2.9c0.1-1,0.3-2,0.8-3c0.5-1,1.1-1.8,1.8-2.4
		c0.7-0.7,1.6-1.2,2.5-1.5l1.6,2.1c-0.8,0.2-1.5,0.6-2.1,1.1c-0.6,0.5-1.2,1.1-1.6,2c-0.3,0.7-0.5,1.3-0.6,2c0,0.7,0,1.3,0.2,1.9
		c0.2,0.6,0.5,1.2,1,1.7c0.4,0.5,1,1,1.7,1.3c0.7,0.4,1.4,0.6,2.1,0.6c0.7,0,1.3,0,1.9-0.2c0.6-0.2,1.2-0.5,1.7-1
		c0.5-0.4,0.9-1,1.2-1.6c0.2-0.4,0.4-0.8,0.5-1.3c0.1-0.5,0.2-1,0.2-1.6l2.4,0.7c-0.1,0.7-0.2,1.3-0.3,1.8c-0.1,0.5-0.3,1.1-0.6,1.6
		c-0.5,1-1.1,1.8-1.9,2.4c-0.8,0.7-1.6,1.1-2.5,1.4c-0.9,0.3-1.9,0.4-2.9,0.4c-1-0.1-2-0.3-3-0.8C49.4,94.9,48.5,94.3,47.9,93.5z"/>
	<path class="st0" d="M57.7,79.6l3.8,2.8l-1.5,2l-12.5-9l1.5-2l5.7,4.2l-1.6-9.9l2.1-2.9l1.5,9.3l10.9-0.3l-1.9,2.6l-8.7,0.2
		L57.7,79.6z"/>
	<path class="st0" d="M60.4,56.3c-0.2-0.6-0.2-1.1-0.1-1.7c0.1-0.6,0.3-1.1,0.6-1.6c0.3-0.5,0.7-1,1.2-1.4c0.9-0.8,2-1.3,3.1-1.3
		c1.1-0.1,2.2,0.2,3.2,1l-1.1,2.2c-0.7-0.5-1.3-0.7-1.9-0.6c-0.6,0-1.1,0.3-1.6,0.7c-0.6,0.5-0.9,1-0.9,1.5c-0.1,0.5,0.1,1,0.4,1.3
		c0.2,0.3,0.5,0.4,0.7,0.5c0.3,0.1,0.5,0.1,0.9,0c0.3,0,0.6-0.1,1-0.3c0.4-0.1,0.7-0.3,1.1-0.5c0.6-0.2,1.1-0.4,1.6-0.6
		c0.5-0.2,1-0.2,1.6-0.2s1,0.1,1.5,0.3c0.5,0.2,1,0.6,1.4,1.1c0.5,0.6,0.8,1.1,1,1.7c0.2,0.6,0.2,1.1,0.1,1.7
		c-0.1,0.6-0.3,1.1-0.6,1.6c-0.3,0.5-0.7,1-1.2,1.4c-0.4,0.4-0.8,0.6-1.3,0.9c-0.5,0.2-1,0.4-1.5,0.5c-0.5,0.1-1.1,0-1.7-0.1
		c-0.6-0.1-1.2-0.4-1.7-0.8l1-2.2c1.3,1,2.5,0.9,3.6-0.1c0.5-0.5,0.9-0.9,0.9-1.4c0.1-0.5,0-1-0.4-1.4c-0.2-0.3-0.5-0.4-0.7-0.5
		c-0.3-0.1-0.6-0.1-0.8-0.1s-0.6,0.1-0.9,0.3c-0.3,0.1-0.7,0.3-1,0.4c-0.5,0.2-1,0.4-1.5,0.6c-0.5,0.2-1.1,0.3-1.6,0.3
		c-0.5,0-1.1-0.1-1.6-0.3c-0.5-0.2-1-0.6-1.5-1.2C60.9,57.4,60.6,56.9,60.4,56.3z"/>
	<path class="st0" d="M80.3,52.3l-2,1.6l-8.1-10l-4.5,3.7l-1.6-2l11-8.9l1.6,2l-4.5,3.7L80.3,52.3z"/>
	<path class="st0" d="M82.1,43.1l0.7,2.8l-2.1,1.7l-4-16.5l1.9-1.5l15.2,7.6l-2.2,1.7l-2.5-1.3L82.1,43.1z M86.6,36.3l-6.9-3.5
		l1.8,7.5L86.6,36.3z"/>
	<path class="st0" d="M84.6,25.7c-0.3-1-0.4-2-0.3-2.9c0.1-1,0.4-1.9,0.9-2.8s1.2-1.7,2-2.4c0.8-0.7,1.7-1.2,2.7-1.4
		c0.9-0.3,1.9-0.4,2.9-0.3l0.5,2.6c-0.8-0.1-1.6-0.1-2.4,0.1s-1.5,0.5-2.2,1.1c-0.6,0.5-1,1-1.3,1.6s-0.5,1.2-0.6,1.9
		c-0.1,0.6,0,1.3,0.2,1.9c0.2,0.7,0.5,1.3,1,1.9c0.5,0.6,1,1.1,1.6,1.4c0.6,0.3,1.2,0.5,1.9,0.6s1.3,0,1.9-0.2
		c0.7-0.2,1.3-0.5,1.8-1c0.2-0.1,0.3-0.3,0.4-0.4c0.1-0.1,0.2-0.2,0.3-0.4L94,24.4l-2.5,2l-1.6-1.9l4.5-3.6l4.9,6
		c-0.3,0.5-0.7,1-1.1,1.5c-0.4,0.5-0.8,0.9-1.3,1.3c-0.8,0.7-1.7,1.2-2.7,1.4c-1,0.3-1.9,0.4-2.9,0.3c-1-0.1-1.9-0.4-2.8-0.9
		c-0.9-0.5-1.7-1.2-2.4-2C85.4,27.6,84.9,26.7,84.6,25.7z"/>
	<path class="st0" d="M99.4,6.5l-5.5,4.6l2.5,3l5.5-4.6l1.6,1.9L97.9,16l2.5,3l5.5-4.6l1.6,1.9l-7.5,6.2l-9.8-11.9l7.5-6.2L99.4,6.5
		z"/>
</g>
</svg>
