<?xml version="1.0" encoding="utf-8"?>
<!-- Generator: Adobe Illustrator 21.0.0, SVG Export Plug-In . SVG Version: 6.00 Build 0)  -->
<svg version="1.1" id="Layer_1" xmlns="http://www.w3.org/2000/svg" xmlns:xlink="http://www.w3.org/1999/xlink" x="0px" y="0px"
	 viewBox="0 0 415 198" style="enable-background:new 0 0 415 198;" xml:space="preserve">
<style type="text/css">
	.st0{fill:#ED1B56;}
</style>
<g>
	<path class="st0" d="M24.5,149.5c0,0.7-0.1,1.3-0.3,1.9c-0.2,0.6-0.6,1.1-1.1,1.7c-0.5,0.5-1.1,0.9-1.8,1.2
		c-0.8,0.3-1.6,0.5-2.4,0.4s-1.6-0.4-2.2-0.8c-0.1,0.8-0.4,1.5-0.9,2.2s-1.2,1.2-2,1.5c-0.7,0.3-1.4,0.4-2.1,0.4s-1.3-0.1-1.9-0.4
		c-0.6-0.2-1.1-0.6-1.6-1.1s-0.8-1-1.1-1.7l-3-7.1l17-7.3l3,7.1C24.3,148.1,24.5,148.8,24.5,149.5z M13.8,154.6
		c0.3-0.3,0.5-0.5,0.6-0.9c0.1-0.3,0.2-0.7,0.2-1c0-0.4-0.1-0.7-0.2-1.1l-2.1-5l-5.2,2.2l2.1,4.9c0.3,0.7,0.8,1.2,1.5,1.5
		c0.7,0.3,1.4,0.3,2.2-0.1C13.2,155.1,13.5,154.9,13.8,154.6z M21.9,150.5c0.3-0.7,0.2-1.4-0.1-2.1l-2.1-4.9l-5.2,2.2l2.2,5.1
		c0.3,0.7,0.8,1.2,1.5,1.4s1.4,0.2,2.2-0.1C21.1,151.7,21.7,151.2,21.9,150.5z"/>
	<path class="st0" d="M23.1,156.4c0.8-0.4,1.7-0.6,2.5-0.6s1.7,0.1,2.5,0.4c0.8,0.3,1.6,0.8,2.3,1.6c0.7,0.7,1.2,1.5,1.5,2.3
		s0.4,1.6,0.3,2.4c-0.1,0.8-0.3,1.6-0.7,2.4s-1,1.5-1.7,2.2l-0.5,0.5L22,160l0,0c-0.5,0.5-0.8,1-1,1.5s-0.3,1.1-0.3,1.6
		s0.2,1,0.4,1.5c0.2,0.5,0.5,0.9,0.9,1.3c0.7,0.7,1.4,1.1,2.2,1.3c0.8,0.2,1.5,0.3,2.2,0.2l-0.4,2.1c-0.8,0-1.7-0.1-2.6-0.4
		c-0.9-0.3-1.9-0.9-2.7-1.8c-0.7-0.7-1.2-1.5-1.6-2.3c-0.3-0.8-0.5-1.6-0.5-2.5c0-0.8,0.2-1.7,0.6-2.5c0.4-0.8,0.9-1.6,1.7-2.3
		C21.5,157.3,22.2,156.8,23.1,156.4z M30.1,161.9c0-0.9-0.4-1.8-1.2-2.7c-0.9-0.9-1.8-1.3-2.8-1.4c-1,0-1.9,0.3-2.8,1l5.6,5.7
		C29.7,163.7,30.1,162.8,30.1,161.9z"/>
	<path class="st0" d="M36.6,159l2.4,1.2L38.1,171l8.1-7.3l2.4,1.2l-11.1,9.3l-1.6-0.8L36.6,159z"/>
	<path class="st0" d="M49.2,164.9c0.5-0.8,1.1-1.4,1.9-1.8c0.7-0.5,1.6-0.8,2.5-1c0.9-0.2,1.8-0.1,2.8,0.1s1.8,0.6,2.6,1.1
		c0.8,0.5,1.4,1.1,1.8,1.9c0.5,0.7,0.8,1.6,1,2.5s0.1,1.8-0.1,2.8s-0.6,1.8-1.1,2.6s-1.1,1.4-1.9,1.8c-0.7,0.5-1.6,0.8-2.5,1
		s-1.8,0.1-2.8-0.1c-1-0.2-1.8-0.6-2.6-1.1s-1.4-1.1-1.8-1.9c-0.5-0.7-0.8-1.6-1-2.5s-0.1-1.8,0.1-2.8
		C48.3,166.5,48.7,165.6,49.2,164.9z M59.4,168c-0.1-0.6-0.3-1.2-0.6-1.7c-0.3-0.5-0.7-0.9-1.2-1.3s-1.1-0.6-1.8-0.7
		s-1.3-0.2-1.9-0.1c-0.6,0.1-1.1,0.3-1.6,0.7c-0.5,0.3-0.9,0.8-1.2,1.3s-0.6,1.1-0.7,1.8c-0.1,0.7-0.2,1.3-0.1,1.9
		c0.1,0.6,0.3,1.2,0.6,1.7s0.7,0.9,1.2,1.3s1.1,0.6,1.8,0.7c0.7,0.1,1.3,0.2,1.9,0.1c0.6-0.1,1.1-0.3,1.6-0.7
		c0.5-0.3,0.9-0.8,1.2-1.3s0.6-1.1,0.7-1.8C59.5,169.2,59.5,168.6,59.4,168z"/>
	<path class="st0" d="M65.7,163.5c0.4-0.8,0.8-1.5,1.4-2.1c0.6-0.6,1.3-1,2.1-1.3c0.8-0.3,1.7-0.4,2.6-0.4c1.1,0.1,2,0.3,2.8,0.7
		s1.3,0.9,1.7,1.5l0.1-1.8l2.3,0.1l-0.4,12.5c0,0.8-0.1,1.6-0.4,2.3c-0.2,0.8-0.5,1.4-1,2s-1.2,1-2,1.4c-0.8,0.3-1.9,0.5-3.2,0.4
		c-0.8,0-1.5-0.1-2.2-0.3c-0.6-0.2-1.2-0.4-1.7-0.7s-0.9-0.6-1.2-1.1c-0.3-0.4-0.6-0.9-0.9-1.3l1.8-1.4c0.4,0.9,0.9,1.5,1.6,2
		s1.6,0.7,2.7,0.8c0.8,0,1.5-0.1,2-0.3s0.9-0.5,1.2-0.9c0.3-0.4,0.5-0.9,0.6-1.4s0.2-1,0.2-1.6v-1.1c-0.4,0.6-1.1,1.1-1.9,1.5
		s-1.8,0.5-2.8,0.5s-1.9-0.2-2.6-0.6s-1.4-0.8-2-1.5c-0.5-0.6-1-1.4-1.2-2.2c-0.3-0.9-0.4-1.8-0.4-2.9
		C65.2,165.2,65.4,164.3,65.7,163.5z M75.3,163.1c-0.7-0.9-1.8-1.4-3.1-1.4c-0.7,0-1.3,0.1-1.9,0.3c-0.6,0.2-1,0.5-1.4,1
		c-0.4,0.4-0.7,0.9-0.9,1.5c-0.2,0.6-0.3,1.2-0.4,1.9c0,0.7,0,1.4,0.2,2c0.2,0.6,0.5,1.1,0.9,1.6c0.4,0.4,0.8,0.8,1.4,1
		c0.5,0.3,1.2,0.4,1.9,0.4c1.4,0,2.4-0.4,3.2-1.2c0.8-0.8,1.2-2,1.3-3.5C76.4,165.2,76,164,75.3,163.1z"/>
	<path class="st0" d="M89.7,154.6c0.4-0.7,1-1.4,1.7-1.9s1.5-0.8,2.6-1c0.9-0.1,1.7-0.1,2.6,0.1c0.8,0.2,1.6,0.6,2.2,1.1
		c0.7,0.5,1.2,1.2,1.7,2s0.7,1.7,0.9,2.8c0.2,1,0.1,2-0.1,2.9c-0.2,0.9-0.5,1.7-1,2.4c-0.5,0.7-1.1,1.2-1.8,1.7
		c-0.7,0.4-1.5,0.7-2.4,0.8c-1.1,0.2-2,0.1-2.9-0.2c-0.8-0.3-1.5-0.7-2.1-1.3l0.3,1.9l-2.2,0.3l-2.6-18.3l2.2-0.3L89.7,154.6z
		 M98.4,156.1c-0.3-0.6-0.6-1-1.1-1.4c-0.4-0.4-1-0.6-1.5-0.8c-0.6-0.2-1.2-0.2-1.9-0.1c-1.4,0.2-2.4,0.8-3,1.8
		c-0.7,1-0.9,2.2-0.7,3.6c0.2,1.5,0.8,2.6,1.7,3.3c0.9,0.7,2,1,3.4,0.8c0.7-0.1,1.3-0.3,1.8-0.6c0.5-0.3,0.9-0.7,1.2-1.2
		c0.3-0.5,0.5-1,0.7-1.6c0.1-0.6,0.1-1.3,0-2C98.8,157.3,98.6,156.7,98.4,156.1z"/>
	<path class="st0" d="M106,146.7c0.6-0.5,1.3-0.9,2.2-1c0.2-0.1,0.4-0.1,0.7-0.1c0.2,0,0.4,0,0.6,0l0.5,2.4c-0.2,0-0.5,0-0.7,0
		s-0.4,0-0.7,0.1c-0.7,0.1-1.3,0.4-1.8,0.7c-0.4,0.3-0.8,0.7-1,1.2s-0.3,1-0.3,1.7c0,0.6,0.1,1.3,0.2,2.1l1.2,6l-2.2,0.4l-2.5-13
		l2.1-0.4l0.4,2C105.1,147.8,105.5,147.2,106,146.7z"/>
	<path class="st0" d="M110.5,146.7c0.2-0.9,0.5-1.7,0.9-2.4c0.4-0.7,1-1.3,1.8-1.8c0.7-0.5,1.6-0.8,2.6-1c1-0.2,2-0.2,2.8,0
		c0.8,0.2,1.6,0.6,2.2,1.1s1.2,1.2,1.6,2s0.7,1.7,0.9,2.6l0.1,0.7l-10.4,1.9l0,0c0.1,0.7,0.4,1.2,0.7,1.7c0.3,0.5,0.7,0.8,1.2,1.1
		c0.5,0.3,0.9,0.5,1.5,0.5c0.5,0.1,1.1,0.1,1.6,0c1-0.2,1.7-0.5,2.3-1c0.6-0.5,1.1-1.1,1.4-1.7l1.5,1.5c-0.4,0.7-1,1.3-1.8,2
		c-0.8,0.6-1.8,1.1-3,1.3c-1,0.2-1.9,0.2-2.8,0c-0.9-0.2-1.6-0.5-2.3-1c-0.7-0.5-1.3-1.1-1.7-1.9c-0.5-0.8-0.8-1.7-1-2.7
		C110.3,148.6,110.3,147.6,110.5,146.7z M119,144c-0.7-0.6-1.7-0.7-2.9-0.5c-1.2,0.2-2.1,0.7-2.7,1.5c-0.5,0.8-0.8,1.7-0.8,2.8
		l7.9-1.4C120.2,145.4,119.7,144.6,119,144z"/>
	<path class="st0" d="M121.6,135.7l2.6-0.3l4.8,9.4l2.9-10.2l1.6-0.2l5,9.3l2.7-10.2l2.6-0.3l-4,13.7l-1.7,0.2l-5-9l-3,9.9l-1.7,0.2
		L121.6,135.7z"/>
	<path class="st0" d="M144.9,132.8c0.3-0.9,0.8-1.6,1.4-2.2c0.6-0.6,1.3-1.1,2.1-1.5s1.7-0.5,2.7-0.5s2,0.2,2.7,0.6
		c0.8,0.4,1.4,0.9,2,1.5c0.5,0.6,0.9,1.4,1.2,2.2c0.3,0.8,0.4,1.8,0.4,2.7v0.7l-10.6-0.2l0,0c0,0.7,0.2,1.3,0.4,1.8s0.6,0.9,0.9,1.3
		c0.4,0.4,0.8,0.6,1.3,0.8c0.5,0.2,1,0.3,1.6,0.3c1,0,1.8-0.2,2.5-0.6s1.3-0.9,1.7-1.4l1.2,1.8c-0.5,0.6-1.3,1.1-2.1,1.6
		c-0.9,0.5-1.9,0.7-3.2,0.7c-1,0-1.9-0.2-2.7-0.5s-1.5-0.8-2.1-1.4c-0.6-0.6-1-1.3-1.4-2.2c-0.3-0.8-0.5-1.8-0.5-2.8
		C144.4,134.5,144.6,133.6,144.9,132.8z M153.8,131.7c-0.6-0.7-1.5-1-2.7-1.1c-1.3,0-2.2,0.3-2.9,1c-0.7,0.7-1.1,1.5-1.3,2.6l8,0.1
		C154.7,133.3,154.4,132.4,153.8,131.7z"/>
	<path class="st0" d="M164.4,126.8c0.7-0.3,1.5-0.4,2.4-0.3c0.2,0,0.5,0.1,0.7,0.1s0.4,0.1,0.6,0.2l-0.3,2.4
		c-0.2-0.1-0.4-0.1-0.6-0.2c-0.2-0.1-0.4-0.1-0.7-0.1c-0.7-0.1-1.4-0.1-1.9,0.1s-1,0.5-1.3,0.9c-0.4,0.4-0.6,0.9-0.8,1.5
		c-0.2,0.6-0.4,1.3-0.5,2l-0.8,6.1l-2.3-0.3l1.8-13.1l2.2,0.3l-0.3,2C163.1,127.7,163.7,127.2,164.4,126.8z"/>
	<path class="st0" d="M173.5,137l-2.4-12.6l2.7,0.8l1.6,9.7l6.4-7.4l2.3,0.7l-13.4,15.4l-2.4-0.7L173.5,137z"/>
	<path class="st0" d="M189.2,138.7l-7.5,5.7l-1.3-1.6l7.5-5.7L189.2,138.7z"/>
	<path class="st0" d="M214.5,130.6c0.4,0.6,0.6,1.1,0.7,1.8c0.1,0.6,0.1,1.3,0,2c-0.1,0.7-0.4,1.3-0.9,2c-0.5,0.7-1.1,1.3-1.9,1.6
		c-0.7,0.4-1.5,0.5-2.3,0.5c0.3,0.7,0.5,1.5,0.4,2.3s-0.4,1.6-0.9,2.3c-0.4,0.6-1,1.1-1.5,1.5s-1.2,0.6-1.8,0.7s-1.3,0.1-1.9-0.1
		c-0.6-0.1-1.3-0.4-1.9-0.8l-6.4-4.4l10.5-15.3l6.4,4.4C213.7,129.6,214.2,130.1,214.5,130.6z M208.3,140.7c0.1-0.4,0.1-0.7,0.1-1.1
		c0-0.4-0.2-0.7-0.3-1c-0.2-0.3-0.4-0.6-0.8-0.8l-4.5-3.1l-3.2,4.7l4.4,3.1c0.7,0.4,1.4,0.6,2.1,0.5c0.7-0.1,1.3-0.5,1.8-1.2
		C208,141.4,208.2,141.1,208.3,140.7z M213,132.9c-0.1-0.7-0.5-1.3-1.2-1.7l-4.4-3.1l-3.2,4.7l4.5,3.1c0.6,0.4,1.3,0.6,2,0.4
		s1.3-0.6,1.8-1.3C212.9,134.3,213.1,133.6,213,132.9z"/>
	<path class="st0" d="M220.5,137.4c1,0.1,2.2,0.7,3.4,1.7c1.4,1.2,2.1,2.4,2.2,3.6c0.1,1.2-0.4,2.4-1.4,3.6l-5.6,6.5l-1.7-1.5
		l1.2-1.4c-0.8,0.2-1.6,0.2-2.4,0s-1.6-0.6-2.3-1.2c-0.5-0.5-1-1-1.2-1.5c-0.3-0.5-0.5-1.1-0.5-1.6s0-1,0.2-1.6
		c0.2-0.5,0.5-1,0.9-1.4c0.4-0.5,0.8-0.8,1.3-1c0.5-0.2,1-0.3,1.5-0.3s1,0.1,1.5,0.3c0.5,0.2,1,0.5,1.5,0.8l3.1,2.2
		c0.2,0.2,0.5,0.3,0.6,0.3c0.2,0,0.3-0.1,0.5-0.3l0.2-0.3c0.4-0.5,0.6-1.1,0.5-1.7c-0.1-0.6-0.5-1.3-1.3-1.9c-0.7-0.6-1.4-1-2.1-1.1
		c-0.7-0.1-1.4,0.1-2,0.6l-0.8-2.1C218.5,137.6,219.5,137.3,220.5,137.4z M217.9,144.2c-0.6-0.4-1.2-0.6-1.7-0.5s-0.9,0.3-1.2,0.6
		c-0.4,0.4-0.5,0.9-0.4,1.5c0.1,0.5,0.4,1.1,1,1.6c0.5,0.4,1,0.7,1.5,0.9c0.5,0.2,1,0.2,1.5,0.2s0.9-0.1,1.3-0.3
		c0.4-0.2,0.7-0.5,1-0.8l0.6-0.7L217.9,144.2z"/>
	<path class="st0" d="M231.6,159.9l-1.6-1.6l1.3-1.3c-0.8,0.1-1.6,0.1-2.5-0.2c-0.8-0.2-1.7-0.7-2.4-1.5c-0.7-0.6-1.1-1.3-1.5-2.1
		c-0.3-0.8-0.5-1.6-0.5-2.4s0.2-1.7,0.6-2.5c0.4-0.8,0.9-1.6,1.6-2.4c0.7-0.8,1.5-1.3,2.4-1.7c0.8-0.4,1.7-0.6,2.5-0.6
		s1.6,0.1,2.4,0.4c0.8,0.3,1.5,0.8,2.2,1.4c0.8,0.7,1.3,1.5,1.5,2.3s0.3,1.7,0.3,2.5l5.1-5.2l1.6,1.6L231.6,159.9z M233.3,146.1
		c-0.6-0.2-1.1-0.3-1.7-0.3s-1.1,0.2-1.7,0.5c-0.6,0.3-1.1,0.7-1.6,1.2s-0.9,1-1.1,1.6c-0.3,0.6-0.4,1.1-0.4,1.7s0.1,1.1,0.3,1.7
		c0.2,0.5,0.6,1.1,1.1,1.5c0.5,0.5,1,0.8,1.6,1s1.1,0.3,1.7,0.3c0.6,0,1.1-0.2,1.7-0.5c0.6-0.3,1.1-0.7,1.6-1.2s0.9-1.1,1.2-1.6
		c0.3-0.6,0.4-1.1,0.4-1.7c0-0.6-0.1-1.1-0.3-1.7c-0.2-0.5-0.6-1-1.1-1.5C234.4,146.7,233.9,146.3,233.3,146.1z"/>
	<path class="st0" d="M243.9,162.6l13.2-13l5,5c0.6,0.7,1.1,1.4,1.4,2.1s0.5,1.5,0.5,2.3s-0.2,1.6-0.5,2.3c-0.3,0.8-0.8,1.5-1.4,2.1
		c-0.9,0.9-1.9,1.4-3,1.7c-1.1,0.2-2.2,0.2-3.2-0.2l-1,8.7l-2.2-2.2l0.9-7.8c0-0.1-0.1-0.1-0.1-0.2c0,0-0.1-0.1-0.1-0.2l-3.3-3.4
		l-4.3,4.3L243.9,162.6z M254.1,159l2.4,0.3l-0.4,3.3c0.7,0.3,1.4,0.4,2.2,0.3c0.8-0.1,1.5-0.5,2.1-1.1c0.4-0.4,0.7-0.8,0.9-1.3
		c0.2-0.5,0.3-1,0.3-1.4c0-0.5-0.1-1-0.3-1.4c-0.2-0.5-0.5-0.9-0.9-1.3L257,153l-5.5,5.4l2.3,2.3L254.1,159z"/>
	<path class="st0" d="M268.5,164.3c1,0.2,2.1,0.8,3.3,1.9c1.3,1.3,2,2.5,2,3.8c0,1.2-0.5,2.4-1.7,3.5l-6,6.1l-1.6-1.6l1.3-1.4
		c-0.8,0.2-1.6,0.1-2.4-0.1c-0.8-0.2-1.5-0.7-2.2-1.4c-0.5-0.5-0.9-1-1.1-1.6c-0.2-0.5-0.4-1.1-0.4-1.6c0-0.5,0.1-1,0.3-1.5
		c0.2-0.5,0.5-1,0.9-1.4s0.9-0.8,1.4-0.9c0.5-0.2,1-0.3,1.5-0.2c0.5,0,1,0.1,1.5,0.4c0.5,0.2,1,0.5,1.5,0.9l2.9,2.4
		c0.2,0.2,0.4,0.3,0.6,0.3s0.3-0.1,0.5-0.2l0.2-0.2c0.5-0.5,0.7-1,0.6-1.6c-0.1-0.6-0.5-1.3-1.2-2c-0.6-0.7-1.3-1.1-2-1.2
		c-0.7-0.2-1.4,0-2.1,0.5l-0.7-2.2C266.5,164.4,267.5,164.2,268.5,164.3z M265.4,170.9c-0.6-0.5-1.1-0.7-1.6-0.6s-0.9,0.2-1.3,0.5
		c-0.4,0.4-0.6,0.9-0.5,1.4c0,0.5,0.4,1.1,0.9,1.7c0.4,0.4,0.9,0.8,1.4,1s1,0.3,1.5,0.3s0.9-0.1,1.3-0.2c0.4-0.2,0.8-0.4,1.1-0.7
		l0.7-0.7L265.4,170.9z"/>
	<path class="st0" d="M279.9,186.9l-1.7-1.5l1.2-1.4c-0.8,0.2-1.6,0.2-2.5,0s-1.7-0.6-2.5-1.3c-0.7-0.6-1.2-1.3-1.6-2
		s-0.6-1.5-0.6-2.4c0-0.8,0.1-1.7,0.4-2.5c0.3-0.9,0.8-1.7,1.5-2.5s1.4-1.4,2.2-1.9c0.8-0.4,1.6-0.7,2.4-0.8s1.6,0,2.4,0.2
		c0.8,0.2,1.5,0.7,2.2,1.3c0.8,0.7,1.4,1.4,1.7,2.2c0.3,0.8,0.4,1.6,0.4,2.5l4.7-5.5l1.7,1.5L279.9,186.9z M280.7,173
		c-0.6-0.2-1.1-0.2-1.7-0.1c-0.6,0.1-1.1,0.3-1.7,0.6c-0.5,0.3-1,0.7-1.5,1.3c-0.4,0.5-0.8,1.1-1,1.7s-0.3,1.2-0.3,1.7
		c0,0.6,0.1,1.1,0.4,1.7c0.3,0.5,0.6,1,1.2,1.5c0.5,0.4,1.1,0.7,1.6,0.9c0.6,0.2,1.1,0.2,1.7,0.2c0.6-0.1,1.1-0.3,1.7-0.6
		c0.5-0.3,1.1-0.8,1.5-1.3c0.5-0.6,0.8-1.1,1-1.7c0.2-0.6,0.3-1.2,0.3-1.7c0-0.6-0.2-1.1-0.4-1.6c-0.3-0.5-0.6-1-1.2-1.4
		C281.9,173.5,281.3,173.2,280.7,173z"/>
	<path class="st0" d="M290.5,184.3l-2,3.3l-1.9-1.2l9.6-15.8l1.9,1.2l-6.1,10l8.5-2.3l2.7,1.7l-7.9,2l1,9.3l-2.5-1.5l-0.6-7.3
		L290.5,184.3z"/>
	<path class="st0" d="M303.9,182c0.5-0.7,1.2-1.3,1.9-1.8c0.7-0.5,1.5-0.8,2.4-0.9c0.9-0.1,1.8-0.1,2.8,0.2s1.8,0.7,2.5,1.3
		s1.2,1.2,1.5,2c0.3,0.7,0.5,1.6,0.6,2.4c0,0.9-0.1,1.8-0.3,2.7l-0.2,0.7l-10.2-2.9l0,0c-0.2,0.7-0.2,1.3-0.1,1.8
		c0.1,0.6,0.3,1.1,0.6,1.5c0.3,0.4,0.7,0.8,1.1,1.1s0.9,0.5,1.5,0.7c0.9,0.3,1.8,0.3,2.6,0.1c0.8-0.2,1.4-0.5,2-0.9l0.7,2
		c-0.7,0.4-1.5,0.8-2.5,1s-2.1,0.2-3.3-0.1c-1-0.3-1.8-0.7-2.5-1.2s-1.3-1.2-1.7-1.9s-0.7-1.5-0.7-2.4c-0.1-0.9,0-1.9,0.3-2.9
		C302.9,183.5,303.3,182.7,303.9,182z M312.7,183.2c-0.4-0.8-1.2-1.4-2.4-1.7c-1.2-0.3-2.2-0.3-3.1,0.2c-0.8,0.5-1.5,1.2-1.9,2.2
		l7.7,2.2C313.2,185,313.1,184.1,312.7,183.2z"/>
	<path class="st0" d="M322.4,176.5c0.6-0.5,1.3-0.9,2.2-1c0.2-0.1,0.5-0.1,0.7-0.1s0.4,0,0.6,0l0.5,2.4c-0.2,0-0.5,0-0.7,0
		s-0.4,0-0.7,0.1c-0.7,0.1-1.3,0.4-1.8,0.7c-0.4,0.3-0.8,0.7-1,1.2s-0.3,1-0.3,1.7c0,0.6,0.1,1.3,0.2,2l1.2,6.1L321,190l-2.5-13
		l2.1-0.4l0.4,2C321.4,177.7,321.8,177.1,322.4,176.5z"/>
	<path class="st0" d="M327.3,174c0-0.5,0.1-1,0.4-1.5c0.2-0.5,0.6-0.9,1.1-1.4c0.5-0.4,1.1-0.8,1.8-1.1c1.2-0.5,2.3-0.7,3.3-0.6
		c1,0.1,1.9,0.5,2.7,1.1l-1.2,1.9c-0.5-0.4-1-0.6-1.7-0.7c-0.6-0.1-1.4,0-2.2,0.4c-0.7,0.3-1.2,0.7-1.5,1.2s-0.4,0.9-0.2,1.4
		c0.1,0.3,0.3,0.5,0.5,0.6s0.5,0.2,0.8,0.2s0.7,0,1-0.1c0.4-0.1,0.8-0.1,1.3-0.2c0.6-0.1,1.1-0.2,1.7-0.3s1.1-0.1,1.7,0
		c0.5,0.1,1,0.3,1.5,0.6s0.8,0.8,1.2,1.5c0.3,0.6,0.4,1.2,0.4,1.8s-0.2,1.1-0.5,1.6s-0.7,1-1.2,1.4s-1.1,0.8-1.7,1
		c-1.1,0.5-2.3,0.8-3.5,0.8s-2.2-0.4-3.1-1.2l1.2-1.9c0.7,0.6,1.4,0.9,2.2,0.8c0.8,0,1.6-0.2,2.3-0.5c0.8-0.4,1.4-0.8,1.7-1.2
		s0.3-1,0.1-1.6c-0.1-0.3-0.3-0.5-0.5-0.6s-0.5-0.2-0.8-0.2s-0.6,0-1,0.1s-0.8,0.1-1.2,0.2c-0.5,0.1-1.1,0.2-1.7,0.3s-1.2,0.1-1.7,0
		c-0.6-0.1-1.1-0.3-1.6-0.6s-0.9-0.8-1.2-1.4C327.4,175,327.3,174.5,327.3,174z"/>
	<path class="st0" d="M337.4,164.4c0.1-0.9,0.3-1.7,0.6-2.5c0.3-0.8,1-1.5,1.8-2.1c0.7-0.5,1.5-0.9,2.3-1.1c0.8-0.2,1.6-0.2,2.5-0.1
		c0.8,0.2,1.6,0.5,2.4,1s1.5,1.2,2.1,2.1c0.6,0.9,1.1,1.7,1.3,2.6s0.3,1.7,0.2,2.6c-0.1,0.9-0.4,1.6-0.8,2.3c-0.4,0.7-1,1.3-1.8,1.9
		c-0.9,0.6-1.8,1-2.6,1.1c-0.9,0.1-1.7,0-2.5-0.2l1.1,1.5l-1.8,1.3l-10.8-15l1.8-1.3L337.4,164.4z M345.8,161.8
		c-0.5-0.4-1-0.6-1.6-0.7s-1.1-0.1-1.7,0s-1.1,0.4-1.7,0.8c-1.1,0.8-1.7,1.8-1.9,2.9c-0.1,1.2,0.2,2.3,1.1,3.5
		c0.9,1.2,1.9,1.9,3,2.2c1.1,0.2,2.3,0,3.4-0.8c0.5-0.4,1-0.8,1.3-1.4c0.3-0.5,0.5-1.1,0.6-1.6c0.1-0.6,0-1.1-0.2-1.8
		c-0.2-0.6-0.5-1.2-0.9-1.7C346.8,162.6,346.3,162.1,345.8,161.8z"/>
	<path class="st0" d="M361.8,152.3l-1.5,1.6l-1.4-1.3c0.2,0.9,0.2,1.7,0,2.4c-0.2,0.7-0.6,1.5-1.3,2.2c-0.6,0.7-1.3,1.2-1.9,1.4
		c-0.6,0.3-1.3,0.4-1.9,0.3c-0.6-0.1-1.3-0.3-1.9-0.6c-0.6-0.4-1.2-0.8-1.8-1.4l-5.7-5.4l1.6-1.7l5.7,5.4c0.4,0.4,0.8,0.7,1.1,0.9
		s0.8,0.4,1.2,0.4c0.4,0.1,0.8,0,1.2-0.2c0.4-0.2,0.8-0.5,1.2-0.9c0.5-0.5,0.8-1.1,1-1.6c0.1-0.6,0.1-1.1,0-1.6
		c-0.2-0.5-0.4-1.1-0.8-1.6s-0.8-1-1.3-1.5l-4.5-4.2l1.6-1.7L361.8,152.3z"/>
	<path class="st0" d="M353.4,135.6c0-0.8,0.3-1.5,0.9-2.3c0.1-0.2,0.3-0.4,0.4-0.5c0.1-0.1,0.3-0.3,0.4-0.5l2,1.3
		c-0.2,0.2-0.3,0.3-0.5,0.5c-0.1,0.2-0.3,0.3-0.4,0.5c-0.4,0.6-0.7,1.2-0.8,1.7c-0.1,0.5,0,1.1,0.2,1.6s0.5,1,0.9,1.4
		c0.4,0.5,1,0.9,1.6,1.3l5.1,3.5L362,146l-10.9-7.4l1.2-1.8l1.7,1.1C353.6,137.1,353.4,136.4,353.4,135.6z"/>
	<path class="st0" d="M356.7,131.4c-0.6-0.6-1.1-1.4-1.4-2.1c-0.3-0.8-0.5-1.6-0.5-2.4c0-0.9,0.2-1.7,0.6-2.5c0.5-1,1-1.8,1.7-2.3
		c0.7-0.6,1.4-0.9,2.1-1l-1.6-0.7l0.9-2.1l11.5,5c0.7,0.3,1.4,0.7,2,1.2s1.1,1,1.5,1.7s0.5,1.5,0.5,2.4c0,0.9-0.3,2-0.8,3.1
		c-0.3,0.8-0.7,1.4-1.1,1.9s-0.8,0.9-1.3,1.3c-0.5,0.3-0.9,0.6-1.4,0.7c-0.5,0.2-1,0.2-1.6,0.3l-0.6-2.2c1,0,1.8-0.3,2.5-0.8
		s1.3-1.2,1.7-2.2c0.3-0.8,0.5-1.4,0.5-2c0-0.6-0.2-1.1-0.4-1.5c-0.3-0.4-0.6-0.8-1-1.1c-0.4-0.3-0.9-0.6-1.4-0.8l-1-0.4
		c0.4,0.6,0.6,1.4,0.7,2.3c0,0.9-0.2,1.8-0.6,2.8c-0.4,0.9-0.9,1.7-1.5,2.2c-0.6,0.6-1.3,1-2.1,1.3c-0.8,0.3-1.6,0.4-2.5,0.3
		c-0.9-0.1-1.8-0.3-2.8-0.7C358.1,132.6,357.3,132,356.7,131.4z M359.9,122.4c-1.1,0.4-1.9,1.1-2.5,2.4c-0.3,0.6-0.4,1.3-0.4,1.9
		s0.1,1.2,0.3,1.7c0.2,0.5,0.6,1,1,1.4c0.5,0.4,1,0.8,1.6,1.1c0.6,0.3,1.3,0.5,1.9,0.5s1.2,0,1.8-0.2c0.6-0.2,1.1-0.5,1.5-0.9
		s0.8-0.9,1.1-1.6c0.5-1.2,0.6-2.4,0.1-3.4c-0.5-1.1-1.4-1.9-2.7-2.5C362.3,122.1,361,122,359.9,122.4z"/>
	<path class="st0" d="M355.9,89.2l12.4,22.6l-1.8,1l-12.4-22.6L355.9,89.2z"/>
	<path class="st0" d="M368.7,81.6l2.1,2.9l-1.3,2.3l-11.8-16.7l1.2-2.2l20.4,1.7l-1.3,2.3l-3.6-0.3L368.7,81.6z M371.7,71.5l-11-0.9
		l6.4,9L371.7,71.5z"/>
	<path class="st0" d="M382.6,57.5l-1.3,1.8l-1.6-1.1c0.3,0.8,0.4,1.6,0.3,2.4c-0.1,0.8-0.4,1.5-1,2.3c-0.5,0.8-1.1,1.3-1.7,1.7
		c-0.6,0.3-1.2,0.5-1.9,0.5c-0.6,0-1.3-0.1-2-0.4c-0.7-0.3-1.3-0.6-2-1.1L365,59l1.4-1.9l6.4,4.6c0.4,0.3,0.8,0.6,1.2,0.7
		c0.4,0.2,0.8,0.3,1.2,0.3c0.4,0,0.8-0.1,1.1-0.3c0.4-0.2,0.7-0.6,1.1-1c0.4-0.6,0.7-1.2,0.7-1.8c0.1-0.6,0-1.1-0.3-1.6
		c-0.2-0.5-0.6-1-1-1.4c-0.5-0.5-1-0.9-1.5-1.3l-5-3.6l1.3-1.9L382.6,57.5z"/>
	<path class="st0" d="M373,45.9c-0.2-0.5-0.3-1-0.3-1.6c0-0.5,0.2-1.1,0.4-1.7c0.3-0.6,0.6-1.2,1.1-1.8c0.9-1,1.8-1.6,2.7-1.9
		c0.9-0.3,1.9-0.3,2.9-0.1l-0.2,2.2c-0.6-0.1-1.2-0.1-1.8,0c-0.6,0.2-1.2,0.6-1.9,1.3c-0.5,0.6-0.8,1.1-0.9,1.7s0,1,0.4,1.4
		c0.2,0.2,0.5,0.3,0.7,0.3c0.3,0,0.5,0,0.8-0.2c0.3-0.1,0.6-0.3,0.9-0.5s0.7-0.5,1-0.7c0.5-0.3,0.9-0.7,1.4-1s1-0.6,1.5-0.7
		c0.5-0.2,1-0.2,1.6-0.1c0.5,0.1,1.1,0.4,1.7,0.9c0.5,0.5,0.9,1,1.1,1.5s0.3,1.1,0.3,1.6c0,0.6-0.2,1.1-0.5,1.7
		c-0.3,0.6-0.7,1.1-1.1,1.7c-0.8,0.9-1.8,1.6-2.8,2.1c-1.1,0.5-2.2,0.6-3.3,0.3L379,50c0.9,0.2,1.7,0.2,2.4-0.2
		c0.7-0.3,1.3-0.8,1.9-1.4c0.6-0.7,0.9-1.3,1-1.8c0.1-0.6-0.1-1-0.6-1.5c-0.2-0.2-0.5-0.3-0.7-0.4c-0.2-0.1-0.5,0-0.8,0.1
		c-0.3,0.1-0.6,0.3-0.9,0.5s-0.6,0.4-1,0.7s-0.9,0.7-1.4,1s-1,0.6-1.6,0.8c-0.5,0.2-1.1,0.2-1.6,0.2c-0.6-0.1-1.1-0.3-1.7-0.8
		C373.6,46.8,373.2,46.4,373,45.9z"/>
	<path class="st0" d="M391.2,38.8c-0.2,0.3-0.5,0.6-0.8,0.9c-0.9,0.8-1.7,1.3-2.6,1.3c-0.8,0-1.8-0.5-2.7-1.5l-5.3-5.4L378,36
		l-1.4-1.4l1.9-1.8l-2.5-2.5l1.6-1.6l2.5,2.5l2.6-2.5l1.4,1.4l-2.6,2.5l5.4,5.5c0.4,0.4,0.7,0.6,1.1,0.6s0.7-0.1,1.1-0.5
		c0.3-0.3,0.5-0.6,0.8-0.8c0.2-0.3,0.4-0.5,0.6-0.8l1.4,1.4C391.7,38.2,391.5,38.5,391.2,38.8z"/>
	<path class="st0" d="M386.4,22.1c0.2-0.7,0.7-1.4,1.4-2c0.2-0.2,0.4-0.3,0.5-0.4s0.4-0.2,0.5-0.3l1.6,1.8c-0.2,0.1-0.4,0.2-0.6,0.3
		c-0.2,0.1-0.4,0.2-0.5,0.4c-0.6,0.5-1,1-1.2,1.5s-0.3,1-0.3,1.5s0.2,1.1,0.5,1.6c0.3,0.6,0.7,1.1,1.2,1.7l4,4.7l-1.7,1.5l-8.5-10.1
		l1.7-1.4l1.3,1.5C386.1,23.6,386.1,22.9,386.4,22.1z"/>
	<path class="st0" d="M386.5,12.8c0.1-0.5,0.3-0.9,0.7-1.2s0.9-0.4,1.4-0.3c0.5,0.1,0.9,0.3,1.2,0.7c0.3,0.4,0.4,0.9,0.3,1.3
		c-0.1,0.5-0.3,0.9-0.7,1.2c-0.4,0.3-0.9,0.4-1.3,0.4c-0.5-0.1-0.9-0.3-1.2-0.7C386.5,13.7,386.4,13.3,386.5,12.8z M399.2,26.2
		l-1.8,1.3l-7.8-10.7l1.8-1.3L399.2,26.2z"/>
	<path class="st0" d="M395.4,10.1c0.4-1,1.3-1.9,2.6-2.7c1.6-1,2.9-1.3,4.1-1s2.2,1.1,3,2.5l4.5,7.3l-1.9,1.2l-1-1.6
		c0,0.8-0.3,1.6-0.7,2.3c-0.4,0.7-1.1,1.3-1.9,1.8c-0.6,0.4-1.2,0.6-1.8,0.7c-0.6,0.1-1.1,0.1-1.7,0s-1-0.3-1.4-0.6
		s-0.8-0.7-1.1-1.2c-0.3-0.5-0.5-1.1-0.6-1.6s0-1,0.1-1.5s0.4-0.9,0.7-1.4c0.3-0.4,0.8-0.8,1.2-1.2l3-2.3c0.2-0.2,0.4-0.4,0.4-0.5
		c0.1-0.2,0-0.3-0.1-0.5l-0.2-0.3c-0.3-0.6-0.8-0.9-1.4-1s-1.4,0.1-2.2,0.7c-0.8,0.5-1.3,1-1.7,1.7c-0.3,0.6-0.3,1.4,0,2.1l-2.3,0.1
		C395,12.1,395,11.1,395.4,10.1z M401.1,14.7c-0.6,0.5-0.9,0.9-1,1.4s0,1,0.2,1.4c0.3,0.5,0.7,0.8,1.3,0.9c0.5,0.1,1.1-0.1,1.8-0.5
		c0.5-0.3,1-0.7,1.3-1.1s0.5-0.9,0.7-1.3s0.1-0.9,0.1-1.4s-0.2-0.8-0.4-1.2l-0.5-0.8L401.1,14.7z"/>
</g>
</svg>
