<svg xmlns="http://www.w3.org/2000/svg" viewBox="0 0 94.86 142.27"><defs><style>.cls-1{fill:#fff;}</style></defs><title>Asset 4</title><g id="Layer_2" data-name="Layer 2"><g id="Layer_2-2" data-name="Layer 2"><path class="cls-1" d="M67.17,39.65A13.65,13.65,0,0,0,80.82,53.31,11.16,11.16,0,0,0,92,42.16,9.19,9.19,0,0,0,82.8,33a7.6,7.6,0,0,0-7.61,7.59,6.35,6.35,0,0,0,6.35,6.36,5.35,5.35,0,0,0,5.33-5.34A4.54,4.54,0,0,0,82.34,37a3.89,3.89,0,0,0-3.87,3.88,1.28,1.28,0,1,0,2.56,0,1.31,1.31,0,0,1,1.31-1.31,2,2,0,0,1,2,2,2.79,2.79,0,0,1-2.77,2.77,3.78,3.78,0,0,1-3.79-3.79,5,5,0,0,1,5-5,6.65,6.65,0,0,1,6.63,6.64,8.64,8.64,0,0,1-8.62,8.6A11.12,11.12,0,0,1,69.73,39.67,14.21,14.21,0,0,1,83.91,25.5c.52,0,1.06,0,1.58.07h.13a1.27,1.27,0,0,0,1.25-1.17A1.29,1.29,0,0,0,85.69,23c-.58-.05-1.17-.09-1.79-.09A16.75,16.75,0,0,0,67.17,39.65"/><path class="cls-1" d="M94.69,104.19a1.28,1.28,0,0,0-1.75-.5,19.11,19.11,0,0,1-9.24,2.37h0A15.13,15.13,0,0,1,68.56,90.94,11.85,11.85,0,0,1,80.4,79.12a9.23,9.23,0,0,1,9.22,9.2,7.12,7.12,0,0,1-7.12,7.11A5.44,5.44,0,0,1,77.06,90a4.11,4.11,0,0,1,4.1-4.09,3,3,0,0,1,3,3A2.16,2.16,0,0,1,82,91.09a1.47,1.47,0,0,1-1.46-1.48,1.29,1.29,0,0,0-2.58,0,4,4,0,0,0,4,4,4.73,4.73,0,0,0,4.72-4.72,5.59,5.59,0,0,0-5.59-5.58A6.66,6.66,0,0,0,74.51,90a8,8,0,0,0,8,8,9.69,9.69,0,0,0,9.69-9.68A11.8,11.8,0,0,0,80.4,76.54,14.42,14.42,0,0,0,66,91a17.68,17.68,0,0,0,17.68,17.67,21.74,21.74,0,0,0,10.51-2.7,1.28,1.28,0,0,0,.51-1.74"/><path class="cls-1" d="M81.34,69A1.29,1.29,0,0,0,80,67.69a24.23,24.23,0,0,0-10.81,2.75A10.06,10.06,0,0,1,79,62.53a1.3,1.3,0,0,0,.86-2.29l0-.1a1,1,0,0,0-.26-.71,1,1,0,0,0-.72-.35,4.85,4.85,0,0,1-3.34-1.59,7.79,7.79,0,0,1-.84-1.07A4.42,4.42,0,0,1,74.5,56a1,1,0,1,0-1.86.85v0h0a8.08,8.08,0,0,0,3.24,3.44A12.64,12.64,0,0,0,66.36,72.2,24.22,24.22,0,0,0,59,80.56a1.28,1.28,0,0,0,.53,1.73,1.17,1.17,0,0,0,.55.14h.06a1.28,1.28,0,0,0,1.12-.67,21.77,21.77,0,0,1,18.8-11.51A1.28,1.28,0,0,0,81.34,69"/><path class="cls-1" d="M83.55,100.35a1.3,1.3,0,0,0-1.29,1.29,1.28,1.28,0,0,0,1.29,1.28h0a15.64,15.64,0,0,0,10.73-4.26,1.3,1.3,0,0,0,.05-1.82,1.28,1.28,0,0,0-1.81,0h0a13,13,0,0,1-9,3.55"/><path class="cls-1" d="M38.56,11.8A15.59,15.59,0,0,1,34,22.87a12.27,12.27,0,0,1-17.34,0,9.54,9.54,0,0,1,0-13.51,7.36,7.36,0,0,1,10.44,0,5.68,5.68,0,0,1,0,8,4.28,4.28,0,0,1-6,0,3.15,3.15,0,0,1,0-4.47,2.25,2.25,0,0,1,3.21,0,1.57,1.57,0,0,1,0,2.21,1,1,0,0,1-.7.29,1,1,0,0,1-.71-.29A1.29,1.29,0,0,0,21,16.9a3.56,3.56,0,0,0,2.53,1,3.5,3.5,0,0,0,2.5-1,4.11,4.11,0,0,0,0-5.83,4.82,4.82,0,0,0-6.82,0,5.69,5.69,0,0,0,0,8.08,6.79,6.79,0,0,0,9.65,0,8.19,8.19,0,0,0,0-11.62,9.91,9.91,0,0,0-7-2.92h0a9.9,9.9,0,0,0-7,2.92,12.13,12.13,0,0,0,0,17.13A14.82,14.82,0,0,0,25.32,29h0a14.74,14.74,0,0,0,10.46-4.35A18.11,18.11,0,0,0,41.14,11.8a18.81,18.81,0,0,0-.8-5.37,1.28,1.28,0,0,0-1.23-.9,1.34,1.34,0,0,0-.39.06,1.26,1.26,0,0,0-.84,1.59,15.86,15.86,0,0,1,.68,4.61"/><path class="cls-1" d="M63.22,34.9a1.29,1.29,0,0,0,1.17,1.38h.11a1.28,1.28,0,0,0,1.28-1.17s0-.1.05-.34A16,16,0,0,1,76.19,22.42a1.28,1.28,0,0,0-.46-2.49,1.25,1.25,0,0,0-.46.09,18.54,18.54,0,0,0-12,14.87"/><path class="cls-1" d="M62.29,63.48a1.28,1.28,0,0,0,1.26,1,1.09,1.09,0,0,0,.24,0c3.37-.63,5.54-2.1,6.78-3.83a8.3,8.3,0,0,0,1.51-4.92,9,9,0,0,0-.24-2.15L71.68,53l-.58-.24a9.66,9.66,0,0,1-4.19-3.3,1.26,1.26,0,0,0-1-.53,1.35,1.35,0,0,0-.77.24,1.29,1.29,0,0,0-.27,1.79,12.32,12.32,0,0,0,4.64,3.88,6.81,6.81,0,0,1,.05.91,5.8,5.8,0,0,1-1,3.42c-.83,1.14-2.28,2.24-5.19,2.82a1.26,1.26,0,0,0-1,1.51"/><path class="cls-1" d="M73.7,54.56a7.49,7.49,0,0,0,6.15,4.24h.05a1,1,0,0,0,0-2,4.8,4.8,0,0,1-3.33-1.6,6,6,0,0,1-.82-1,3.42,3.42,0,0,1-.22-.4l0-.08a1,1,0,0,0-.92-.57,1,1,0,0,0-.43.1,1,1,0,0,0-.51,1.34l0,0Z"/><path class="cls-1" d="M40,22.9a8.87,8.87,0,0,0-3,5.66c0,.15,0,.29,0,.41A3.08,3.08,0,0,0,39.65,32h.08l.28,0a2.71,2.71,0,0,0,2.66-2.34,1.5,1.5,0,0,0,0-.3A2.36,2.36,0,0,0,42,27.71a1,1,0,0,0,.7-.64s.11-.28.34-.74c.63-1.25,2.48-4.14,5.88-4.14h.19a1,1,0,0,0,.06-2h-.21c-5.46.06-7.76,5.15-8.17,6.19h0l0,.06a1,1,0,0,0,0,.7l-.08,0h-.13a1,1,0,0,0-.15,2h0a.27.27,0,0,1,.23.24v.11A.61.61,0,0,1,40,30h-.1a1,1,0,0,1-.9-1v-.24a7,7,0,0,1,2.32-4.28,1,1,0,0,0,.35-.71,1,1,0,0,0-.25-.74A1,1,0,0,0,40,22.9"/><path class="cls-1" d="M54.42,79A1.67,1.67,0,0,0,55.56,81a1.81,1.81,0,0,0,.45.06,1.68,1.68,0,0,0,1.6-1.2l0-.06h0c0-.09.1-.34.24-.72a18.51,18.51,0,0,1,5-7.39,1.67,1.67,0,0,0,.19-2.35,1.65,1.65,0,0,0-2.35-.17,21.6,21.6,0,0,0-6.27,9.73Z"/><path class="cls-1" d="M6.73,86.66h0A1.25,1.25,0,0,0,8,85.41,18.94,18.94,0,0,1,22.08,67.35a15.51,15.51,0,0,1,3.8-.5A14.86,14.86,0,0,1,40.24,77.93a11.41,11.41,0,0,1,.39,3,11.63,11.63,0,0,1-8.68,11.24,8.51,8.51,0,0,1-2.31.3,9.07,9.07,0,0,1-8.75-6.75,7.13,7.13,0,0,1-.23-1.79,7,7,0,0,1,5.21-6.75A5.65,5.65,0,0,1,27.23,77a5.36,5.36,0,0,1,5.17,4,4.25,4.25,0,0,1,.13,1,4,4,0,0,1-3,3.89,3.34,3.34,0,0,1-.76.1,3,3,0,0,1-2.86-2.23,1.66,1.66,0,0,1-.06-.53,2.1,2.1,0,0,1,1.58-2.05,1.83,1.83,0,0,1,.36-.06,1.44,1.44,0,0,1,1.39,1.09,1.25,1.25,0,0,0,1.22.94,1.26,1.26,0,0,0,1.22-1.58,4,4,0,0,0-3.83-3,3.5,3.5,0,0,0-1,.15,4.63,4.63,0,0,0-3.44,4.47,5.25,5.25,0,0,0,.14,1.19,5.5,5.5,0,0,0,5.31,4.07,5.74,5.74,0,0,0,1.39-.17A6.56,6.56,0,0,0,35.06,82a6.42,6.42,0,0,0-.23-1.67,7.86,7.86,0,0,0-7.6-5.87,7.56,7.56,0,0,0-2,.27,9.48,9.48,0,0,0-6.77,11.63A11.59,11.59,0,0,0,29.64,95a12.75,12.75,0,0,0,3-.39A14.19,14.19,0,0,0,43.15,80.91a13.35,13.35,0,0,0-.48-3.6,17.37,17.37,0,0,0-16.79-13,16.69,16.69,0,0,0-4.44.59,21.39,21.39,0,0,0-16,20.47,1.25,1.25,0,0,0,1.24,1.28"/><path class="cls-1" d="M19.57,75.17a11.14,11.14,0,0,1,.85-.75.93.93,0,0,0,.18-1.31,1,1,0,0,0-.75-.37.91.91,0,0,0-.56.19,19.56,19.56,0,0,0-6.93,12.64.94.94,0,0,0,.85,1h.07a1,1,0,0,0,.94-.84,16.32,16.32,0,0,1,3.37-8.32,17.92,17.92,0,0,1,2-2.25"/><path class="cls-1" d="M27.62,98.62a9.93,9.93,0,0,0,3.23-.54.9.9,0,0,0,.58-1.17.92.92,0,0,0-.87-.65.9.9,0,0,0-.3.05,8.4,8.4,0,0,1-2.64.43h0a10.85,10.85,0,0,1-6.39-2.45,14.17,14.17,0,0,1-1.92-1.71c-.45-.47-.67-.75-.68-.75a.92.92,0,0,0-.73-.35,1,1,0,0,0-.58.19A1,1,0,0,0,17.13,93c.08.05,4.24,5.57,10.49,5.63"/><path class="cls-1" d="M34.73,100.82l-.05.07a1.27,1.27,0,0,0,.17,1.79,1.23,1.23,0,0,0,.81.29,1.26,1.26,0,0,0,1-.46,5.59,5.59,0,0,0,1.13-3.08,1.19,1.19,0,0,0,.27.33,1.25,1.25,0,0,0,1.78-.12,3.35,3.35,0,0,0,.68-2.06,1.25,1.25,0,0,0,.93.42,1.26,1.26,0,0,0,.85-.34,4.29,4.29,0,0,0,1.23-3.15,6.27,6.27,0,0,0-.61-2.63,1.24,1.24,0,0,0-1.15-.75,1.3,1.3,0,0,0-.51.11,1.26,1.26,0,0,0-.64,1.67A4.07,4.07,0,0,1,41,94.52a2.1,2.1,0,0,1-.25,1.06l-.14.21h0a1.23,1.23,0,0,0-.23.29,9.79,9.79,0,0,0-.85-2.32,1.25,1.25,0,0,0-1.13-.69,1.29,1.29,0,0,0-.55.12,1.27,1.27,0,0,0-.56,1.69,5.78,5.78,0,0,1,.74,2.5,1.8,1.8,0,0,1-.1.62l0,0a1.33,1.33,0,0,0-.16.28,5.85,5.85,0,0,0-1.62-3.11,1.26,1.26,0,0,0-.91-.39,1.24,1.24,0,0,0-.87.36A1.27,1.27,0,0,0,34.25,97a3.06,3.06,0,0,1,1,2.19,3,3,0,0,1-.32,1.28,2.73,2.73,0,0,1-.21.38"/><path class="cls-1" d="M1.28,13.12a1.26,1.26,0,0,0,1.26-1.25A8,8,0,0,1,3.09,8.8a4.6,4.6,0,0,1,.34-.67L3.52,8h0a1.26,1.26,0,0,0-.95-2.08,1.28,1.28,0,0,0-1,.44A8.67,8.67,0,0,0,0,11.87a1.26,1.26,0,0,0,1.27,1.25"/><path class="cls-1" d="M9.18,14.1l-.23,0,0,.07a15.53,15.53,0,0,0-.42,3.49,8.24,8.24,0,0,0,.78,3.78,1,1,0,0,0,.88.55h.08a1,1,0,0,0,.37-.08h0a1,1,0,0,0,.46-1.39,6.52,6.52,0,0,1-.56-2.85,13.17,13.17,0,0,1,.39-3v0h0a1,1,0,0,0-.73-1.22,1,1,0,0,0-.27,0A1.06,1.06,0,0,0,9,14l.18.06h0l.05,0Z"/><path class="cls-1" d="M19.31,58.47V55.36l0-.1a3.68,3.68,0,0,1,1-2.5,5.27,5.27,0,0,1,.76-.65,1.19,1.19,0,0,1,.24-.17l.05,0a1.28,1.28,0,1,0-1.21-2.25h0a6.73,6.73,0,0,0-3.46,5.61c0,.13.11.22.14.34l-.12,0s0,2.85,2.5,2.85"/><path class="cls-1" d="M57.83,134.7c-.67-.19-2-2.33-2.74-4.38a36.27,36.27,0,0,1-1.25-4,1.28,1.28,0,0,0-1.27-1l-.23,0a1.32,1.32,0,0,0-1,1.48s0,.22.08.66.09,1.09.09,1.88c0,3-.68,7.82-4,10.61a1.28,1.28,0,0,0-.14,1.79,1.31,1.31,0,0,0,1,.47,1.25,1.25,0,0,0,.82-.32,14.13,14.13,0,0,0,4.54-8.48A7.59,7.59,0,0,0,56.76,137a1.27,1.27,0,0,0,.54.12,1.28,1.28,0,0,0,.54-2.45"/><path class="cls-1" d="M51,116.73h.08a10.29,10.29,0,0,1,9.13,5.62l2.3-1.17a12.87,12.87,0,0,0-11.36-7H51.1l-.27,0,.14,2.55h0"/><path class="cls-1" d="M22.92,131.36a11.21,11.21,0,0,0,2.32-6.64v-.25a1.35,1.35,0,0,0-.13-.49,18.69,18.69,0,0,1,5.35-1.32,1,1,0,0,0,.92-1.12,1,1,0,0,0-1-.93h-.1a20.29,20.29,0,0,0-11.42,4.79,1,1,0,0,0,0,1.43,1,1,0,0,0,.75.32,1.09,1.09,0,0,0,.68-.25l0,0,0,0a6.77,6.77,0,0,1,.63-.53,18.09,18.09,0,0,1,1.73-1.15,8.75,8.75,0,0,1-1.76,4.6c-1.65,2.13-4.82,4.27-11.62,4.29a43.13,43.13,0,0,1-7.75-.77l-.23,0A1.29,1.29,0,0,0,0,134.34a1.31,1.31,0,0,0,1,1.5,47.62,47.62,0,0,0,8.22.8h.09c7.26,0,11.42-2.47,13.56-5.29"/><path class="cls-1" d="M25,133.87a1.26,1.26,0,0,0-1.73.52s-.16.28-.51.77c-1.06,1.51-3.66,4.36-7.12,4.36h-.07l-.51,0H15a1.28,1.28,0,0,0-.08,2.56l.66,0c6.59-.12,9.86-6.39,9.94-6.46a1.27,1.27,0,0,0-.5-1.74"/><path class="cls-1" d="M27.31,106.13a.87.87,0,0,0,.28,0,8.84,8.84,0,0,0,2.57-1.23,6.16,6.16,0,0,0,2.69-5.08,1.06,1.06,0,0,0-2.11,0,3.86,3.86,0,0,1-1.81,3.34,7.31,7.31,0,0,1-1.33.73c-.35.13-.56.19-.56.19a1,1,0,0,0-.64.46,1.06,1.06,0,0,0-.13.82,1.05,1.05,0,0,0,1,.81"/><path class="cls-1" d="M49.48,26.46A5.68,5.68,0,0,1,50.61,26c.29-.07.49-.1.5-.1a1,1,0,0,0,.67-.38,1,1,0,0,0,.21-.77,1,1,0,0,0-1-.9h-.22a8.19,8.19,0,0,0-2.19.72A4.26,4.26,0,0,0,46,28.4v.15a1,1,0,0,0,1,1h.06a1,1,0,0,0,1-1.07v-.08h0a2.18,2.18,0,0,1,1.43-1.92"/><path class="cls-1" d="M45.73,59.88a8,8,0,0,0,.56,2.36,1.3,1.3,0,0,0,1.13.67,1.29,1.29,0,0,0,.37-.06,7.37,7.37,0,0,1,1.47,4.29A7,7,0,0,1,49,69a1.28,1.28,0,0,0,.89,1.58,1.42,1.42,0,0,0,.3,0h.07a1.27,1.27,0,0,0,1.21-.95,9.57,9.57,0,0,0,.35-2.53,9.91,9.91,0,0,0-2.6-6.58,1.3,1.3,0,0,0-.85-.37,23.81,23.81,0,0,1-.33-4.09c0-2.9.49-6.35,1.9-8.53,2.13-3.4,2.43-8.25,2.46-11.66,0-1.7-.1-3-.15-3.6l.11,0,.47-.22-.34-.39-.89-1-.18-.21-.26.11a23.17,23.17,0,0,1-3.78,1.25l-.29.07V34l.47-.1c.74-.17,1.47-.37,2.18-.6,0,.65.08,1.56.08,2.65,0,3.21-.42,7.8-2.06,10.27-1.84,2.94-2.29,6.75-2.3,9.92a29.14,29.14,0,0,0,.25,3.79"/><path class="cls-1" d="M68.34,78.15l-.05,0h0l0,0C67,79.37,64,82.44,63.34,86.32a1,1,0,0,0,.84,1.17l.17,0a1,1,0,0,0,1-.88,10.87,10.87,0,0,1,2.35-4.85,15.76,15.76,0,0,1,1.86-2l.1-.1A1,1,0,0,0,70,79a1,1,0,0,0-.25-.74,1,1,0,0,0-1.44-.12"/><path class="cls-1" d="M66.87,58.39a1,1,0,0,0,.27,0,1,1,0,0,0,1-.76,5,5,0,0,0,.15-1.16,3.54,3.54,0,0,0-1.44-2.94,1,1,0,0,0-.58-.18,1,1,0,0,0-.83.45,1,1,0,0,0,.24,1.41l0,0h0a1.58,1.58,0,0,1,.5,1.21,2.53,2.53,0,0,1-.1.65,1,1,0,0,0,.74,1.25"/><path class="cls-1" d="M46.31,75.81a2.15,2.15,0,0,0,.6,1.71l0,0a1,1,0,0,0,.29.12c.11,0,.2.13.33.13h.07A5.39,5.39,0,0,0,52.26,75a7.16,7.16,0,0,0,.74-3,1.07,1.07,0,0,0-1-1v.19h0v-.19h0a1,1,0,0,0-.91,1v.07a5.13,5.13,0,0,1-.53,2.17,3.44,3.44,0,0,1-3.08,1.83h0V74a2.27,2.27,0,0,0-1.18,1.8"/><path class="cls-1" d="M52.8,78.79a.94.94,0,0,0-.92-1h0V78h0v-.19a.92.92,0,0,0-.93.93A45.3,45.3,0,0,1,50.45,84a54.32,54.32,0,0,1-2.91,11.76,35.45,35.45,0,0,0-2,12.53c0,2.2.12,4,.12,5.29v.3a.89.89,0,0,0,.17.42,5.17,5.17,0,0,0-3.19,2.8,7.35,7.35,0,0,0-.72,2.82l2.56.07a3,3,0,0,1,.07-.53,4.33,4.33,0,0,1,.77-1.86,2.61,2.61,0,0,1,2.23-1V114l-.09,0c0-.07.08-.12.08-.18v-.31c0-1.36-.13-3.16-.13-5.28A33.43,33.43,0,0,1,49.3,96.4a58.17,58.17,0,0,0,3.5-17.61"/><path class="cls-1" d="M59.86,33a1.29,1.29,0,1,0,2.57,0,15.68,15.68,0,0,1,2.19-7.13,26.36,26.36,0,0,1,1.55-2.48c.41-.6.67-.91.67-.91a1.29,1.29,0,0,0-1-2.1,1.26,1.26,0,0,0-1,.48h0c0,.11-4.92,5.89-5,12.14"/><path class="cls-1" d="M70,18.79h.17l0,0a5.88,5.88,0,0,0,5.09-3.39,1,1,0,1,0-1.9-.76,3.26,3.26,0,0,1-2,1.75,5.81,5.81,0,0,1-1.42.36H70a1.05,1.05,0,0,0-.72.37,1,1,0,0,0-.22.73,1,1,0,0,0,1,.94"/><path class="cls-1" d="M67.92,18.82l-.13-.07,0,0,0,0a.68.68,0,0,0-.22-.07h-.17a.63.63,0,0,0-.2.05l-.08,0a.61.61,0,0,0-.21.21.64.64,0,0,0,.21.88,7.12,7.12,0,0,0,3.35.94,4.81,4.81,0,0,0,1.08-.13,4.16,4.16,0,0,0,1.08-.42c.1-.06.21-.1.31-.17a.62.62,0,0,0,.28-.49.64.64,0,0,0-.09-.4.62.62,0,0,0-.22-.2l-.08,0-.19,0h-.19a.61.61,0,0,0-.2.08h0a3.19,3.19,0,0,1-.88.39,3.46,3.46,0,0,1-.9.12,5.31,5.31,0,0,1-1.89-.38,5.13,5.13,0,0,1-.53-.23l0,0"/><path class="cls-1" d="M29.23,52.76a3.57,3.57,0,1,0,3.56,3.57,3.58,3.58,0,0,0-3.56-3.57m0,5.78a2.21,2.21,0,1,1,2.21-2.21,2.21,2.21,0,0,1-2.21,2.21"/><path class="cls-1" d="M34.07,57.81a.68.68,0,0,0,.33.89h0a.63.63,0,0,0,.28.06h0a.67.67,0,0,0,.36-.1.71.71,0,0,0,.18-.18l.07-.1A8.06,8.06,0,0,0,35.79,57,6,6,0,0,0,36,55.51a4.9,4.9,0,0,0-2.63-4.29.67.67,0,0,0-.27-.06h0a.69.69,0,0,0-.22,0l-.06,0-.15.09-.05,0a.65.65,0,0,0,0,.93l.07.05.14.11,0,0,.07,0,.14.09.19.14a3.73,3.73,0,0,1,1,1.15,3.3,3.3,0,0,1,.41,1.61,5.41,5.41,0,0,1-.58,2.3"/><path class="cls-1" d="M36.86,59.26c-.17.35-.37.71-.59,1.09a.69.69,0,0,0,0,.75l.07.07.13.12a.62.62,0,0,0,.35.1.67.67,0,0,0,.55-.28l0,0q.25-.42.46-.82A12,12,0,0,0,39.06,57a9.28,9.28,0,0,0,.18-1.77,8.57,8.57,0,0,0-1.35-4.65,6.1,6.1,0,0,0-.73-.94.66.66,0,0,0-.22-.15l-.08,0-.17,0h0l-.19,0h-.06a.64.64,0,0,0-.22.15v0a.64.64,0,0,0,0,.85l.06.09,0,.05.12.15.08.1.13.18a7.12,7.12,0,0,1,1.32,4.16,9.23,9.23,0,0,1-1,4.08"/><path class="cls-1" d="M19.93,59.88a9.62,9.62,0,0,0,1,2.27,7.14,7.14,0,0,0,.46.64,5.54,5.54,0,0,0,1,1l.12.06a.72.72,0,0,0,.25.06.66.66,0,0,0,.41-.15l.16-.14a.66.66,0,0,0-.16-.92,3.32,3.32,0,0,1-.45-.39h0a4.87,4.87,0,0,1-.52-.66,7.11,7.11,0,0,1-.51-.87,7,7,0,0,1-.48-1.23.64.64,0,0,0-.12-.22l-.05-.05-.13-.11-.08,0L20.72,59l-.09,0h-.07l-.15,0a.65.65,0,0,0-.19.09l-.05,0h0a.68.68,0,0,0-.23.7"/><path class="cls-1" d="M6.77,18h0A1.18,1.18,0,0,0,8,16.8,14.44,14.44,0,0,1,22.18,2.37h.21l.12,0-.1,0a11.32,11.32,0,0,1,11.3,11.31,1.13,1.13,0,0,0,.2.65,1.19,1.19,0,0,0,1.63.34,1.2,1.2,0,0,0,.54-1A13.7,13.7,0,0,0,22.39,0h0A16.79,16.79,0,0,0,5.59,16.8,1.19,1.19,0,0,0,6.77,18M23,2.22a1.74,1.74,0,0,0,.25-.2,1.29,1.29,0,0,1-.25.2"/><path class="cls-1" d="M55,23.55a.86.86,0,0,0,.24,0,1,1,0,0,0,.25-2,4.82,4.82,0,0,1-4-5.12,8.85,8.85,0,0,1,.23-2l0-.08a1,1,0,0,0,0-.52l-.15-.64-.48.44L49.64,15l-.11.1,0,.14a10.83,10.83,0,0,0-.07,1.19A6.87,6.87,0,0,0,55,23.55"/><path class="cls-1" d="M54,11.81a9.9,9.9,0,0,1,4.08-.91c2.36,0,5.26.85,8.08,4.73a1.29,1.29,0,0,0,1,.53,1.18,1.18,0,0,0,.75-.24,1.28,1.28,0,0,0,.3-1.79c-3.18-4.49-7.09-5.8-10.13-5.8h0l-.59,0-4,3.66a.78.78,0,0,0,.23-.08l.28-.14"/><path class="cls-1" d="M55.27,21.2a3.9,3.9,0,0,0,1.64.36h0a3.86,3.86,0,0,0,3.47-2.22,3.23,3.23,0,0,0,.32-1.41,3.31,3.31,0,0,0-1.91-3,2.91,2.91,0,0,0-1.21-.27A2.85,2.85,0,0,0,55,16.31a1,1,0,0,0,.49,1.36,1,1,0,0,0,1.37-.5.81.81,0,0,1,.73-.45.87.87,0,0,1,.33.07,1.26,1.26,0,0,1,.72,1.14,1.19,1.19,0,0,1-.13.53,1.81,1.81,0,0,1-1.65,1.06,1.87,1.87,0,0,1-.78-.18A2.52,2.52,0,0,1,54.68,17,2.5,2.5,0,0,1,54.92,16,3.44,3.44,0,0,1,58,14a3.67,3.67,0,0,1,1.47.33,4.57,4.57,0,0,1,2.6,4.11,4.32,4.32,0,0,1-.43,1.92v0a13.63,13.63,0,0,1-1,1.87,20.39,20.39,0,0,1-4,4.83l-.34.3.35.28,1,.82.25.2.24-.22a21,21,0,0,0,5.36-7.32,6.5,6.5,0,0,0,.6-2.73,6.57,6.57,0,0,0-3.8-6A5.41,5.41,0,0,0,58,11.94a5.53,5.53,0,0,0-5,3.15A4.67,4.67,0,0,0,52.64,17a4.61,4.61,0,0,0,2.63,4.15"/><path class="cls-1" d="M28.52,63.37c6.91.65,10.39,3.18,12.27,5.46a11.05,11.05,0,0,1,1.76,3.07c.13.42.23.74.28,1s0,.3.05.3a1.27,1.27,0,0,0,.82,1V68.53a13.16,13.16,0,0,0-.93-1.31c-2.3-2.83-6.58-5.75-14.07-6.39a4.25,4.25,0,0,1-.79-.13,6.2,6.2,0,0,1-2.58-1.11,3.69,3.69,0,0,1-1.4-3.1,4.61,4.61,0,0,1,2.57-4.09,8.92,8.92,0,0,1,2-.83,4.12,4.12,0,0,1,.83-.21,18.39,18.39,0,0,0,4.83-1.86c2.37-1.34,5.05-3.82,5.05-7.75a1.27,1.27,0,0,0-1.26-1.28v.19h0v-.19h0a1.28,1.28,0,0,0-1.29,1.28c0,2.65-1.73,4.34-3.77,5.52a15.79,15.79,0,0,1-2.79,1.22,10,10,0,0,1-1.23.33,12.63,12.63,0,0,0-3.61,1.38,7.22,7.22,0,0,0-3.84,6.3,6.37,6.37,0,0,0,3.69,5.94,9.37,9.37,0,0,0,3.46.94"/><path class="cls-1" d="M79.58,119a17.1,17.1,0,0,1-9.89-3.33,12.58,12.58,0,0,1-2.13-2c-.21-.27-.38-.48-.48-.63a1.5,1.5,0,0,1-.12-.19,1.29,1.29,0,0,0-.9-.61v3.63a18.45,18.45,0,0,0,12.33,5.65l2.15-1.93a1.27,1.27,0,0,0-1-.54"/><path class="cls-1" d="M85.08,114.51c-.63.05-1.25.08-1.88.08a21.63,21.63,0,0,1-17.14-8.5v4a24.3,24.3,0,0,0,17.11,7.07l2.69-2.43a1.24,1.24,0,0,0-.68-.22h-.11"/><path class="cls-1" d="M72.2,126.18a2.28,2.28,0,0,1-1.76.7h0a7.31,7.31,0,0,1-3.21-1,10.28,10.28,0,0,1-1.18-.73c-.3-.2-.44-.32-.44-.32a1.26,1.26,0,0,0-.79-.28,1.29,1.29,0,0,0-1,.48,1.27,1.27,0,0,0,.2,1.8,13,13,0,0,0,5.63,2.53l3.86-3.47a1.32,1.32,0,0,0-.38-.05,1.28,1.28,0,0,0-.89.36"/><path class="cls-1" d="M83.6,28.35a18.73,18.73,0,0,0-6.41,1.14,1.29,1.29,0,0,0-.73,1.66,1.3,1.3,0,0,0,1.68.73l.39-.14a17.45,17.45,0,0,1,5.08-.82,9.56,9.56,0,0,1,8,3.74,1.32,1.32,0,0,0,.5.4V31.44a12.42,12.42,0,0,0-8.44-3.09Z"/><path class="cls-1" d="M20.55,111c0-2.44,1.7-4.62,3.63-6.19A20.14,20.14,0,0,1,26.82,103c.73-.41,1.17-.61,1.17-.61a1.27,1.27,0,0,0-.51-2.42h0a12.67,12.67,0,0,1-5.37-1.62c-.79-.41-1.47-.84-1.94-1.14s-.73-.51-.73-.51l-.08,0v3a20.67,20.67,0,0,0,4.57,2.19c-.42.3-.86.62-1.31,1a14.71,14.71,0,0,0-3.26,3.7v5.7A1.25,1.25,0,0,0,20.55,111"/><path class="cls-1" d="M61.14,130.12a14.89,14.89,0,0,1-.79-2.09c-.16-.55-.23-.85-.23-.85a11.33,11.33,0,0,0-1.37-3.62,7.17,7.17,0,0,0-6.25-3.82h-.13a6.34,6.34,0,0,0-5.85,3.67,9.86,9.86,0,0,0-1,3.48c-.72,7.86-3.89,11.3-6.42,13h4c2.33-2.49,4.47-6.51,5-12.79a6.16,6.16,0,0,1,.1-.77,6.38,6.38,0,0,1,1.12-2.59,3.74,3.74,0,0,1,3.11-1.4,4.59,4.59,0,0,1,4.08,2.57,9,9,0,0,1,.84,2,5.8,5.8,0,0,1,.22.84c.08.12.94,5.28,4.74,8.2l1.94-1.74a9.25,9.25,0,0,1-3.15-4"/><path class="cls-1" d="M18.95,47.33v1.73h.39a30.83,30.83,0,0,0,9.48-1.47c4.83-1.64,7.54-4.83,7.65-9a1,1,0,0,0,.65.43c2.25.46,2.71,1.4,2.78,3A9.88,9.88,0,0,1,39,45.54a17.64,17.64,0,0,1-.84,1.71l0,.05-.42.69-.24.39.43.16.76.29a8.39,8.39,0,0,1,3.77,2.63,7.15,7.15,0,0,1,.68,1.08,2.78,2.78,0,0,1,.14.34l.08.27h0a1.06,1.06,0,0,0,.9.5.92.92,0,0,0,.33-.06,1.06,1.06,0,0,0,.68-1.32v0h0a9.27,9.27,0,0,0-4.77-4.95A12.74,12.74,0,0,0,42,42a4.89,4.89,0,0,0-4.38-5,20.33,20.33,0,0,1,3.68.53,15.16,15.16,0,0,1,1.91.57,1.39,1.39,0,0,0,.47.07V35.52a23.61,23.61,0,0,0-5-1q1.2.08,2.36.08c.86,0,1.75,0,2.65-.11l.35,0V32.35l-.42,0c-.84.07-1.71.11-2.59.11a39.63,39.63,0,0,1-9-1.13l-.2,0-.15.14-1.14,1-.52.48.69.17A45.57,45.57,0,0,0,38,34.41c-.33,0-.66,0-1,0a10.84,10.84,0,0,0-5.58,1.35,8.12,8.12,0,0,0-3.75,5.48,1.29,1.29,0,0,0,1,1.53l.27,0a1.28,1.28,0,0,0,1.25-1,5.6,5.6,0,0,1,2.54-3.85,8.49,8.49,0,0,1,4.28-1h.19a1,1,0,0,0-.88.84v.05a1,1,0,0,0-.84-.44h0a1.06,1.06,0,0,0-1.07,1c0,3.34-2.08,5.68-6.22,7.16a29.21,29.21,0,0,1-8.8,1.35h-.38Z"/><path class="cls-1" d="M24.64,44.07h0a.3.3,0,0,1-.31-.25,1,1,0,0,0-1-.87h-.15a1,1,0,0,0-.86,1.17,2.35,2.35,0,0,0,2.32,2H25a2.71,2.71,0,0,0,2.28-2.67,2.15,2.15,0,0,0,0-.42,3.08,3.08,0,0,0-3.06-2.62l-.36,0h-.06a8.16,8.16,0,0,0-2.61.8l-.05,0,0,0-1.94,1.78-.12.11V45.5l.62-.55.09-.09a6.91,6.91,0,0,1,2.85-2,5.73,5.73,0,0,1,1-.3,2.94,2.94,0,0,1,.35-.06H24l.06,0h.11a1.07,1.07,0,0,1,1,.91v.1a.63.63,0,0,1-.54.62"/><path class="cls-1" d="M11.74,11a7.53,7.53,0,0,1,2.17-3.11,12.71,12.71,0,0,1,1.7-1.33,1,1,0,0,0,.34-1.41,1,1,0,0,0-.87-.48,1,1,0,0,0-.54.15l-.05,0h0l0,0c-1.13.74-3.86,2.77-4.7,5.57a1,1,0,0,0,.69,1.27h.06l.24,0a1,1,0,0,0,1-.75"/><path class="cls-1" d="M43,128.9v-.11A10.57,10.57,0,0,0,32.6,118.21a11.24,11.24,0,0,0-1.29,0,37.49,37.49,0,0,0-23.72,9v0c-.07.06-2.48,2.57-1.28,3.76l2.66-2,.09,0a35.17,35.17,0,0,1,22.18-8.45h.08l.84,0h.36a8.33,8.33,0,0,1,8.24,8.33v.09a6.45,6.45,0,0,1-6.45,6.39h-.07a5,5,0,0,1-4.86-4.94v0a3.73,3.73,0,0,1,3.73-3.69,2.78,2.78,0,0,1,2.74,2.76v0a2,2,0,0,1-2,1.93h0a1.13,1.13,0,0,0,0,2.26h0a4.23,4.23,0,0,0,4.24-4.18v0a5,5,0,0,0-4.94-5h-.07a6,6,0,0,0-6,5.91v.08a7.19,7.19,0,0,0,7.11,7.18h.08A8.72,8.72,0,0,0,43,128.9"/></g></g></svg>