<svg xmlns="http://www.w3.org/2000/svg" viewBox="0 0 384.91 158.1"><defs><style>.cls-1{fill:#ed1b56;}</style></defs><title>Asset 11</title><g id="Layer_2" data-name="Layer 2"><g id="Layer_2-2" data-name="Layer 2"><path class="cls-1" d="M212,55.87a21.07,21.07,0,0,1,5.85-.8,19.86,19.86,0,0,1,5.95,1,20.37,20.37,0,0,1,5.79,3,19.35,19.35,0,0,1,5.16,5.63,17.89,17.89,0,0,1,2.42,6.68,18.56,18.56,0,0,1-.35,7,17.59,17.59,0,0,1-3.18,6.6,22.8,22.8,0,0,1-3.29,3.49,19.65,19.65,0,0,1-3.63,2.47A22.88,22.88,0,0,1,223,92.45a25.26,25.26,0,0,1-3.6.85l-29.81,4.55,22.28,16.56-3.34,4.44-28.87-21.5,2.93-3.86,36.12-5.68a18.09,18.09,0,0,0,5.85-2,14.48,14.48,0,0,0,4.59-3.95,13.68,13.68,0,0,0,2.27-4.78,12.81,12.81,0,0,0,.29-5A12.49,12.49,0,0,0,230,67.5a13,13,0,0,0-3.58-3.88,13.79,13.79,0,0,0-8.83-2.85,19,19,0,0,0-9.71,3.13l-1.32-5.83A27.24,27.24,0,0,1,212,55.87Z"/><path class="cls-1" d="M251.31,79.08A29.33,29.33,0,0,1,261.82,75a26.93,26.93,0,0,1,10.8.33,26.53,26.53,0,0,1,10.06,4.78A26.93,26.93,0,0,1,293.6,98.64a28.89,28.89,0,0,1-.93,11.26,33.89,33.89,0,0,1-5.6,11.18,33.16,33.16,0,0,1-9.12,8.57,29.33,29.33,0,0,1-10.52,4.11,27,27,0,0,1-20.94-5.14,26.44,26.44,0,0,1-7.43-8.25,27.18,27.18,0,0,1-3.41-10.29,28.92,28.92,0,0,1,.93-11.26,33.87,33.87,0,0,1,5.6-11.18A33.17,33.17,0,0,1,251.31,79.08Zm35.9,29.59a23.56,23.56,0,0,0,.86-9.1,21.32,21.32,0,0,0-2.7-8.33,22.49,22.49,0,0,0-14.2-10.52,21.32,21.32,0,0,0-8.73-.16A24.08,24.08,0,0,0,254,84a30.25,30.25,0,0,0-12,16.1,24.06,24.06,0,0,0-.81,9.08,21.59,21.59,0,0,0,2.66,8.31,21.16,21.16,0,0,0,6,6.7A22.41,22.41,0,0,0,258,128a20.82,20.82,0,0,0,8.75.22,23.53,23.53,0,0,0,8.44-3.45,29.1,29.1,0,0,0,7.41-7.06A28.71,28.71,0,0,0,287.21,108.67ZM263.74,98.29a5.62,5.62,0,0,1,4.47,1.17,6.06,6.06,0,0,1,2.46,4,5.74,5.74,0,0,1-1.18,4.51,6.14,6.14,0,0,1-10.91-2.75,5.73,5.73,0,0,1,1.21-4.45A6.1,6.1,0,0,1,263.74,98.29Z"/><path class="cls-1" d="M302.36,154.31,298,151l31.2-42.06-21.92,2.94-.66-5.38,27.85-3.84,4.07,3.1Z"/><path class="cls-1" d="M381.74,130.34l-55.3,27.75-5-3.76,55-27.58-26.64-19.87,3.23-4.39,31.85,23.61Z"/><path class="cls-1" d="M8.35,18.34a21.08,21.08,0,0,1,4.74-3.52,19.81,19.81,0,0,1,5.67-2,20.31,20.31,0,0,1,6.52-.17,19.33,19.33,0,0,1,7.24,2.44,17.86,17.86,0,0,1,5.34,4.68A18.55,18.55,0,0,1,40.92,26a17.55,17.55,0,0,1,.41,7.31A22.71,22.71,0,0,1,40.13,38a19.64,19.64,0,0,1-2,3.91,22.89,22.89,0,0,1-2.56,3.2,25.4,25.4,0,0,1-2.73,2.48L8.95,65.94l27.5,3.74-.78,5.5L0,70.3l.7-4.8L29.58,43.1a18.13,18.13,0,0,0,4.17-4.54,14.52,14.52,0,0,0,2.11-5.67,13.72,13.72,0,0,0-.32-5.28,12.83,12.83,0,0,0-2.14-4.48,12.55,12.55,0,0,0-3.73-3.27,13,13,0,0,0-5-1.67,13.79,13.79,0,0,0-9.1,1.77,19,19,0,0,0-7,7.42l-4-4.46A27.3,27.3,0,0,1,8.35,18.34Z"/><path class="cls-1" d="M64.25,59.35a5.2,5.2,0,0,1,1,4.05,5.37,5.37,0,0,1-2.06,3.66,5.2,5.2,0,0,1-4.05,1A5.38,5.38,0,0,1,55.51,66a5.2,5.2,0,0,1-1-4.05,5.37,5.37,0,0,1,2.06-3.66,5.19,5.19,0,0,1,4.05-1A5.38,5.38,0,0,1,64.25,59.35Z"/><path class="cls-1" d="M103.13,9.57a19.1,19.1,0,0,1,4.94-5.73A18.27,18.27,0,0,1,114.8.59a20.7,20.7,0,0,1,8-.37,20.16,20.16,0,0,1,9.31,3.61,16.56,16.56,0,0,1,5.81,7.63,24,24,0,0,1,1.61,7.86,59.1,59.1,0,0,1-.6,10.4,79.88,79.88,0,0,1-2.52,11.74,33.78,33.78,0,0,1-4.81,10.16,20.77,20.77,0,0,1-8,6.72q-4.84,2.36-11.93,1.43a26.81,26.81,0,0,1-7.44-2,29.92,29.92,0,0,1-5.6-3.25l3.06-4.75A32.68,32.68,0,0,0,107,52.71a21.93,21.93,0,0,0,5.61,1.64,15,15,0,0,0,7.58-.7,14.62,14.62,0,0,0,5.69-3.95,21.27,21.27,0,0,0,3.85-6.42,31.49,31.49,0,0,0,2-8.27l.16-1.5a17.69,17.69,0,0,1-6.21,4.62,14.8,14.8,0,0,1-8.32,1.06,20,20,0,0,1-7.58-2.39,18.67,18.67,0,0,1-5.57-4.74A17.62,17.62,0,0,1,101,25.45a21.19,21.19,0,0,1-.37-8.1A21.1,21.1,0,0,1,103.13,9.57Zm30.58,6.05a13.35,13.35,0,0,0-2.35-4.8,13.11,13.11,0,0,0-4-3.41,15.44,15.44,0,0,0-5.37-1.76,14.9,14.9,0,0,0-5.71.29,13.5,13.5,0,0,0-4.85,2.31,13,13,0,0,0-3.53,4.11A16.43,16.43,0,0,0,106,18.05a16.11,16.11,0,0,0,.26,5.81,12.26,12.26,0,0,0,2.26,4.77,12.86,12.86,0,0,0,4,3.37,15.37,15.37,0,0,0,5.4,1.71,14.59,14.59,0,0,0,5.86-.22,13.36,13.36,0,0,0,8.43-6.34,14.42,14.42,0,0,0,1.79-5.5A15.06,15.06,0,0,0,133.71,15.62Z"/><path class="cls-1" d="M162.56,46.87a5.19,5.19,0,0,1,1,4.05,5.36,5.36,0,0,1-2.06,3.66,5.19,5.19,0,0,1-4.05,1,5.38,5.38,0,0,1-3.66-2.06,5.19,5.19,0,0,1-1-4.05,5.36,5.36,0,0,1,2.06-3.66,5.19,5.19,0,0,1,4.05-1A5.38,5.38,0,0,1,162.56,46.87Z"/></g></g></svg>