<?xml version="1.0" encoding="utf-8"?>
<!-- Generator: Adobe Illustrator 21.0.0, SVG Export Plug-In . SVG Version: 6.00 Build 0)  -->
<svg version="1.1" id="Layer_1" xmlns="http://www.w3.org/2000/svg" xmlns:xlink="http://www.w3.org/1999/xlink" x="0px" y="0px"
	 viewBox="0 0 407 162" style="enable-background:new 0 0 407 162;" xml:space="preserve">
<style type="text/css">
	.st0{fill:#ED1B56;}
</style>
<g>
	<path class="st0" d="M18.6,136.6c0.7,0.8,1.2,1.6,1.5,2.5c0.3,0.9,0.4,1.9,0.4,2.9c-0.1,1-0.3,2-0.8,3c-0.5,1-1.1,1.8-1.9,2.5
		c-0.8,0.7-1.6,1.2-2.5,1.5c-0.9,0.3-1.9,0.4-2.9,0.4c-1-0.1-2-0.3-3-0.8l-4.9-2.4l6.7-13.9l4.9,2.4C17.2,135.2,18,135.8,18.6,136.6
		z M18,141.9c0-0.7,0-1.3-0.2-1.9c-0.2-0.6-0.5-1.2-1-1.7c-0.4-0.5-1-0.9-1.7-1.2l-2.6-1.3l-4.5,9.3l2.6,1.3c0.7,0.3,1.3,0.5,2,0.5
		c0.7,0,1.3,0,1.9-0.3c0.6-0.2,1.2-0.5,1.7-1c0.5-0.5,0.9-1,1.3-1.7C17.7,143.2,17.9,142.6,18,141.9z"/>
	<path class="st0" d="M34,141.1l-6.7-2.6l-1.4,3.7l6.7,2.6l-0.9,2.3l-6.7-2.6l-1.4,3.7l6.7,2.6l-0.9,2.3l-9.1-3.5l5.5-14.4l9.1,3.5
		L34,141.1z"/>
	<path class="st0" d="M36.7,149.3l7,2.1l-0.7,2.4l-9.4-2.8l4.3-14.8l2.4,0.7L36.7,149.3z"/>
	<path class="st0" d="M48.1,152.7l-2.4-0.6l3.4-15l2.4,0.6L48.1,152.7z"/>
	<path class="st0" d="M53.6,140.2c0.5-0.9,1.2-1.6,2-2.2c0.8-0.6,1.7-1,2.7-1.2c1-0.2,2-0.3,3.1-0.1c1.1,0.2,2,0.5,2.9,1
		c0.9,0.5,1.6,1.2,2.2,1.9l-1.5,2.1c-0.5-0.7-1-1.2-1.7-1.7c-0.7-0.5-1.4-0.8-2.3-0.9c-0.7-0.1-1.4-0.1-2.1,0.1
		c-0.6,0.2-1.2,0.4-1.8,0.8c-0.5,0.4-1,0.9-1.3,1.4s-0.6,1.3-0.7,2s-0.1,1.5,0.1,2.2c0.2,0.7,0.4,1.3,0.8,1.8c0.4,0.5,0.9,1,1.4,1.3
		c0.6,0.3,1.2,0.6,1.9,0.7c0.4,0.1,0.9,0.1,1.4,0.1c0.5,0,1-0.1,1.6-0.3l0.1,2.5c-0.6,0.1-1.2,0.2-1.8,0.3c-0.5,0-1.1,0-1.7-0.1
		c-1-0.2-2-0.5-2.9-1c-0.9-0.5-1.6-1.2-2.1-2s-1-1.7-1.2-2.7c-0.2-1-0.3-2-0.1-3.1C52.7,142,53.1,141.1,53.6,140.2z"/>
	<path class="st0" d="M69.3,150.5l-2.5-0.2l1.4-15.3l2.5,0.2L69.3,150.5z"/>
	<path class="st0" d="M72.9,137.2c0.4-0.9,1-1.7,1.7-2.4c0.7-0.7,1.5-1.2,2.5-1.6c0.9-0.4,2-0.6,3.1-0.6c1.1,0,2.1,0.2,3.1,0.6
		c0.9,0.4,1.7,0.9,2.4,1.6c0.7,0.7,1.2,1.5,1.6,2.5c0.4,0.9,0.5,2,0.5,3.1c0,1.1-0.2,2.1-0.6,3s-0.9,1.7-1.6,2.4
		c-0.7,0.7-1.5,1.2-2.5,1.6c-0.9,0.4-2,0.6-3.1,0.5c-1.1,0-2.1-0.2-3-0.6c-0.9-0.4-1.7-1-2.4-1.7c-0.7-0.7-1.2-1.5-1.6-2.5
		s-0.6-2-0.5-3.1C72.3,139.1,72.5,138.1,72.9,137.2z M84.8,138.3c-0.3-0.6-0.6-1.2-1.1-1.7c-0.5-0.5-1-0.8-1.6-1.1s-1.3-0.4-2.1-0.4
		c-0.8,0-1.5,0.1-2.1,0.4c-0.6,0.3-1.2,0.6-1.6,1.1c-0.5,0.5-0.8,1-1.1,1.6c-0.3,0.6-0.4,1.3-0.4,2.1c0,0.8,0.1,1.5,0.4,2.1
		c0.3,0.6,0.6,1.2,1.1,1.7c0.5,0.5,1,0.8,1.6,1.1s1.3,0.4,2.1,0.4c0.7,0,1.4-0.1,2.1-0.4c0.6-0.3,1.2-0.6,1.7-1.1
		c0.5-0.5,0.8-1,1.1-1.6c0.3-0.6,0.4-1.3,0.4-2.1C85.2,139.7,85.1,139,84.8,138.3z"/>
	<path class="st0" d="M103.2,135.4c0.1,1,0,2-0.3,2.9c-0.3,0.9-0.7,1.7-1.3,2.4c-0.6,0.7-1.3,1.2-2.1,1.7c-0.8,0.4-1.7,0.7-2.8,0.8
		c-1,0.1-1.9,0-2.8-0.3c-0.9-0.3-1.7-0.7-2.4-1.3c-0.7-0.6-1.2-1.3-1.7-2.1c-0.4-0.8-0.7-1.8-0.8-2.8l-0.7-8.3l2.5-0.2l0.7,8.3
		c0.1,0.7,0.2,1.3,0.5,1.8s0.6,1,1.1,1.3c0.4,0.4,1,0.6,1.5,0.8c0.6,0.2,1.2,0.2,1.8,0.2c0.7-0.1,1.2-0.2,1.8-0.5
		c0.5-0.3,1-0.6,1.4-1.1c0.4-0.4,0.7-0.9,0.8-1.5c0.2-0.6,0.3-1.2,0.2-1.9l-0.7-8.3l2.5-0.2L103.2,135.4z"/>
	<path class="st0" d="M103.9,125.6c0.2-0.6,0.4-1.1,0.8-1.5c0.4-0.4,0.8-0.8,1.4-1.1c0.5-0.3,1.1-0.5,1.8-0.6c1.2-0.2,2.3,0,3.3,0.5
		c1,0.5,1.7,1.3,2.2,2.5l-2.1,1.3c-0.3-0.8-0.7-1.3-1.3-1.5c-0.5-0.3-1.1-0.3-1.8-0.2c-0.8,0.1-1.3,0.4-1.6,0.8s-0.4,0.9-0.4,1.3
		c0.1,0.3,0.2,0.6,0.4,0.8c0.2,0.2,0.4,0.3,0.7,0.5c0.3,0.1,0.6,0.2,1,0.3c0.4,0.1,0.8,0.1,1.2,0.2c0.6,0.1,1.2,0.2,1.7,0.4
		s1,0.4,1.4,0.6c0.4,0.3,0.8,0.6,1.1,1.1c0.3,0.4,0.5,1,0.6,1.7c0.1,0.7,0.1,1.4-0.1,1.9c-0.2,0.6-0.4,1.1-0.8,1.5
		c-0.4,0.4-0.8,0.8-1.4,1.1c-0.5,0.3-1.1,0.5-1.8,0.6c-0.5,0.1-1.1,0.1-1.6,0.1c-0.5,0-1.1-0.2-1.5-0.4c-0.5-0.2-1-0.6-1.4-1
		c-0.4-0.4-0.8-1-1-1.6l2-1.4c0.6,1.5,1.6,2.1,3.1,1.9c0.7-0.1,1.2-0.3,1.5-0.7c0.3-0.4,0.5-0.9,0.4-1.4c-0.1-0.3-0.2-0.6-0.4-0.8
		s-0.4-0.4-0.7-0.5c-0.3-0.1-0.6-0.2-0.9-0.3c-0.3-0.1-0.7-0.1-1.1-0.2c-0.5-0.1-1-0.2-1.6-0.3c-0.5-0.1-1-0.3-1.5-0.6
		c-0.5-0.3-0.9-0.6-1.2-1.1c-0.3-0.5-0.6-1.1-0.7-1.8C103.7,126.8,103.7,126.2,103.9,125.6z"/>
	<path class="st0" d="M129.5,115.4l-7,1.7l0.9,3.8l7-1.7l0.6,2.4l-7,1.7l1.5,6.3l-2.4,0.6l-3.7-15l9.4-2.3L129.5,115.4z"/>
	<path class="st0" d="M130.8,113.4c0.1-1,0.4-1.9,0.9-2.8c0.5-0.9,1.1-1.6,1.9-2.2s1.7-1.1,2.8-1.4c1.1-0.3,2.1-0.4,3.1-0.3
		c1,0.1,1.9,0.4,2.8,0.9s1.6,1.1,2.2,1.9c0.6,0.8,1.1,1.7,1.4,2.8c0.3,1.1,0.4,2.1,0.3,3.1s-0.4,1.9-0.8,2.8
		c-0.5,0.8-1.1,1.6-1.9,2.2c-0.8,0.6-1.7,1.1-2.8,1.4c-1,0.3-2.1,0.4-3.1,0.3c-1-0.1-1.9-0.4-2.8-0.9c-0.9-0.5-1.6-1.1-2.2-1.9
		c-0.6-0.8-1.1-1.7-1.4-2.8C130.8,115.5,130.7,114.4,130.8,113.4z M142.5,111c-0.4-0.5-0.9-1-1.5-1.3s-1.2-0.5-1.9-0.6
		c-0.7-0.1-1.4,0-2.1,0.2c-0.7,0.2-1.4,0.5-1.9,1c-0.5,0.4-1,0.9-1.3,1.5c-0.3,0.6-0.5,1.2-0.6,1.9c-0.1,0.7,0,1.4,0.2,2.1
		c0.2,0.7,0.5,1.4,1,1.9c0.4,0.5,0.9,0.9,1.5,1.3c0.6,0.3,1.2,0.5,1.9,0.6c0.7,0.1,1.4,0,2.1-0.2c0.7-0.2,1.3-0.5,1.9-1
		s1-0.9,1.3-1.5s0.5-1.2,0.6-1.9c0.1-0.7,0-1.4-0.2-2.1C143.2,112.1,142.9,111.5,142.5,111z"/>
	<path class="st0" d="M145,104.5c0.1-1,0.3-2,0.7-2.8c0.4-0.9,1-1.6,1.8-2.3c0.8-0.7,1.7-1.2,2.7-1.6c1.1-0.4,2.1-0.5,3.1-0.4
		c1,0.1,2,0.3,2.8,0.7c0.9,0.4,1.6,1,2.3,1.8s1.2,1.7,1.5,2.7c0.3,1,0.5,2.1,0.4,3.1c-0.1,1-0.3,2-0.7,2.8c-0.4,0.9-1,1.6-1.8,2.3
		s-1.7,1.2-2.7,1.6c-1,0.4-2.1,0.5-3.1,0.4s-2-0.3-2.8-0.7c-0.9-0.4-1.6-1-2.3-1.8c-0.7-0.8-1.2-1.7-1.5-2.7
		C145.1,106.6,145,105.5,145,104.5z M156.6,101.6c-0.5-0.5-1-0.9-1.6-1.2c-0.6-0.3-1.2-0.5-1.9-0.5s-1.4,0.1-2.1,0.3
		c-0.7,0.3-1.3,0.6-1.8,1.1c-0.5,0.4-0.9,1-1.2,1.5s-0.5,1.2-0.5,1.9c0,0.7,0.1,1.4,0.3,2.1c0.3,0.7,0.6,1.3,1.1,1.8
		c0.5,0.5,1,0.9,1.5,1.2c0.6,0.3,1.2,0.5,1.9,0.5c0.7,0,1.4-0.1,2.1-0.3c0.7-0.2,1.3-0.6,1.8-1c0.5-0.5,0.9-1,1.2-1.6
		c0.3-0.6,0.5-1.2,0.5-1.9c0-0.7-0.1-1.4-0.3-2.1C157.4,102.7,157.1,102.1,156.6,101.6z"/>
	<path class="st0" d="M165.5,88.4c1,0,1.9,0.3,2.8,0.7s1.7,1,2.3,1.7c0.7,0.8,1.2,1.6,1.6,2.7c0.4,1,0.6,2.1,0.5,3.1
		c0,1-0.2,2-0.6,2.8s-1,1.7-1.7,2.3c-0.7,0.7-1.6,1.2-2.6,1.6l-5.1,1.9l-5.4-14.4l5.1-1.9C163.5,88.6,164.5,88.4,165.5,88.4z
		 M168.9,92.6c-0.5-0.5-1-0.9-1.6-1.2c-0.6-0.3-1.2-0.4-1.9-0.5c-0.7,0-1.4,0.1-2.1,0.4l-2.7,1l3.6,9.7l2.7-1
		c0.7-0.3,1.3-0.6,1.8-1.1c0.5-0.5,0.9-1,1.1-1.6s0.4-1.2,0.4-1.9c0-0.7-0.1-1.4-0.4-2.1C169.7,93.7,169.3,93.1,168.9,92.6z"/>
	<path class="st0" d="M183,75.7c0.6,0,1.1,0.1,1.6,0.3c0.5,0.2,1,0.5,1.3,0.9c0.4,0.4,0.7,0.9,0.9,1.5c0.3,0.7,0.4,1.4,0.3,2.1
		c-0.1,0.7-0.4,1.3-0.8,1.8c0.7,0.1,1.3,0.3,1.8,0.8s0.9,1,1.2,1.7c0.2,0.6,0.3,1.2,0.3,1.7c0,0.6-0.1,1.1-0.4,1.6
		c-0.2,0.5-0.6,0.9-1,1.3s-0.9,0.7-1.6,0.9l-6,2.4l-5.6-14.3l6-2.4C181.8,75.8,182.4,75.7,183,75.7z M183.6,78.3
		c-0.5-0.2-1-0.2-1.5,0l-3.7,1.4l1.4,3.7l3.7-1.5c0.5-0.2,0.9-0.5,1.1-1c0.2-0.5,0.2-1,0-1.6C184.4,78.9,184,78.5,183.6,78.3z
		 M185.9,84.4c-0.5-0.2-1-0.2-1.5,0l-3.8,1.5l1.4,3.7l3.7-1.4c0.5-0.2,0.9-0.6,1.1-1s0.2-0.9,0-1.5C186.8,85,186.4,84.6,185.9,84.4z
		"/>
	<path class="st0" d="M193.1,77.5l-9.1-6.3l2.8-1.1l6.5,4.5l1.8-7.7l2.8-1.1l-2.5,10.8l2.3,5.8l-2.3,0.9L193.1,77.5z"/>
	<path class="st0" d="M210.2,55.9c0.7,0,1.3,0.2,1.9,0.4c0.6,0.3,1.1,0.7,1.6,1.2c0.5,0.5,0.8,1.1,1.1,1.8c0.3,0.7,0.4,1.4,0.4,2.1
		c0,0.7-0.2,1.3-0.5,2c-0.3,0.6-0.7,1.1-1.2,1.6c-0.5,0.5-1.1,0.8-1.9,1.1l-3,1.1l1.7,4.6l-2.4,0.9l-5.3-14.4l5.4-2
		C208.8,56,209.5,55.9,210.2,55.9z M211.9,59.3c-0.2-0.3-0.5-0.5-0.8-0.6c-0.3-0.1-0.7-0.2-1-0.2c-0.4,0-0.7,0.1-1.1,0.2l-3,1.1
		l1.9,5.2l3-1.1c0.4-0.1,0.7-0.3,1-0.6s0.5-0.5,0.6-0.8c0.2-0.3,0.2-0.7,0.2-1c0-0.4,0-0.7-0.2-1.1
		C212.4,59.9,212.2,59.5,211.9,59.3z"/>
	<path class="st0" d="M221.7,65.2l-2.4,0.8l-5.1-14.5l2.4-0.8L221.7,65.2z"/>
	<path class="st0" d="M217.2,47.2l2.6-0.9l8.9,9.5l1.7-12.9l2.7-0.9L230.9,59l-2,0.7L217.2,47.2z"/>
	<path class="st0" d="M233.7,42.4c0.1-1,0.5-1.9,0.9-2.8c0.5-0.8,1.1-1.6,1.9-2.2c0.8-0.6,1.7-1.1,2.8-1.4c1.1-0.3,2.1-0.4,3.1-0.2
		c1,0.1,1.9,0.4,2.8,0.9c0.8,0.5,1.6,1.1,2.2,1.9c0.6,0.8,1.1,1.7,1.4,2.8c0.3,1.1,0.3,2.1,0.2,3.1c-0.1,1-0.4,1.9-0.9,2.8
		c-0.5,0.8-1.1,1.6-1.9,2.2c-0.8,0.6-1.7,1.1-2.8,1.4c-1.1,0.3-2.1,0.4-3.1,0.2c-1-0.1-1.9-0.5-2.8-0.9c-0.8-0.5-1.6-1.1-2.2-1.9
		c-0.6-0.8-1.1-1.7-1.4-2.8C233.7,44.4,233.6,43.4,233.7,42.4z M245.5,40.3c-0.4-0.5-0.9-1-1.5-1.3c-0.6-0.3-1.2-0.5-1.9-0.6
		c-0.7-0.1-1.4,0-2.1,0.2c-0.7,0.2-1.4,0.5-1.9,0.9c-0.5,0.4-1,0.9-1.3,1.5c-0.3,0.6-0.5,1.2-0.6,1.9c-0.1,0.7,0,1.4,0.2,2.1
		c0.2,0.7,0.5,1.4,0.9,1.9c0.4,0.5,0.9,1,1.5,1.3c0.6,0.3,1.2,0.5,1.9,0.6c0.7,0.1,1.4,0,2.1-0.2c0.7-0.2,1.4-0.5,1.9-0.9
		c0.5-0.4,1-0.9,1.3-1.5c0.3-0.6,0.5-1.2,0.6-1.9c0.1-0.7,0-1.4-0.2-2.1C246.2,41.5,245.9,40.8,245.5,40.3z"/>
	<path class="st0" d="M264,42l-2.5,0.5l-1.2-6.3l-7.7,1.5l1.2,6.3l-2.5,0.5l-2.9-15.1l2.5-0.5l1.2,6.3l7.7-1.5l-1.2-6.3l2.5-0.5
		L264,42z"/>
	<path class="st0" d="M265.9,37.4L264.2,22l6.3-0.7c0.8-0.1,1.5,0,2.2,0.2c0.7,0.2,1.3,0.5,1.8,0.9c0.5,0.4,0.9,0.9,1.3,1.5
		c0.3,0.6,0.5,1.3,0.6,2c0.1,1,0,2-0.4,2.8c-0.4,0.8-0.9,1.5-1.7,2l4.6,5.1l-3.1,0.3l-4-4.5c0,0-0.1,0-0.1,0c0,0,0,0-0.1,0l-3.8,0.4
		l0.5,4.8L265.9,37.4z M269,28.7l1.9-1.6l1.7,1.9c0.5-0.3,0.8-0.6,1-1.1c0.2-0.5,0.3-1,0.3-1.6c0-0.4-0.1-0.7-0.3-1.1
		s-0.4-0.6-0.7-0.8s-0.6-0.4-0.9-0.5c-0.4-0.1-0.7-0.1-1.1-0.1l-3.8,0.4l0.6,5.5l2.2-0.2L269,28.7z"/>
	<path class="st0" d="M282,29.2l-1.1,2.6l-2.8,0.1l6.8-15.5l2.5-0.1l7.4,15.3l-2.7,0l-1.2-2.5L282,29.2z M289.7,26.6l-3.4-7
		l-3.1,7.1L289.7,26.6z"/>
	<path class="st0" d="M295.9,26.3l1.5-15.3l2.4,0.2l5.7,12.8l8.1-11.4l2.4,0.2l-1.5,15.3l-2.5-0.3l1-10.1l-6.8,9.6l-2.1-0.2
		l-4.8-10.7l-1,10.1L295.9,26.3z"/>
	<path class="st0" d="M326.3,13.1c0.6-0.8,1.4-1.4,2.2-1.9c0.8-0.5,1.8-0.8,2.8-0.9c1-0.1,2-0.1,3.1,0.2c1,0.3,2,0.7,2.7,1.3
		c0.8,0.6,1.4,1.3,2,2.2l-1.8,2c-0.4-0.7-0.9-1.4-1.5-1.9c-0.6-0.5-1.3-0.9-2.2-1.2c-0.7-0.2-1.4-0.2-2.1-0.2
		c-0.7,0.1-1.3,0.3-1.9,0.6s-1.1,0.8-1.5,1.3c-0.4,0.5-0.7,1.2-0.9,1.9c-0.2,0.7-0.3,1.5-0.2,2.1s0.3,1.3,0.6,1.9
		c0.3,0.6,0.8,1.1,1.3,1.5c0.5,0.4,1.2,0.7,1.9,0.9c0.2,0,0.4,0.1,0.5,0.1c0.2,0,0.3,0,0.5,0l0.9-3.2l-3.1-0.8l0.6-2.4l5.5,1.5
		l-2,7.5c-0.6,0-1.2,0-1.8,0s-1.2-0.1-1.8-0.3c-1-0.3-2-0.7-2.8-1.4c-0.8-0.6-1.4-1.3-1.9-2.2c-0.5-0.8-0.8-1.8-0.9-2.8
		c-0.1-1-0.1-2.1,0.2-3.1C325.2,14.8,325.6,13.9,326.3,13.1z"/>
	<path class="st0" d="M341.3,13.1c0.7-0.7,1.5-1.3,2.4-1.7c0.9-0.4,1.8-0.6,2.9-0.6c1,0,2,0.2,3.1,0.6c1,0.4,1.9,1,2.6,1.7
		s1.3,1.5,1.7,2.4c0.4,0.9,0.6,1.8,0.6,2.9c0,1-0.2,2-0.6,3.1c-0.4,1-1,1.9-1.7,2.6c-0.7,0.7-1.5,1.3-2.4,1.7
		c-0.9,0.4-1.8,0.6-2.9,0.6c-1,0-2-0.2-3.1-0.6c-1-0.4-1.9-1-2.6-1.7c-0.7-0.7-1.3-1.5-1.7-2.4c-0.4-0.9-0.6-1.8-0.6-2.9
		c0-1,0.2-2,0.6-3.1C340.1,14.7,340.6,13.8,341.3,13.1z M352.1,18.4c0-0.7-0.1-1.3-0.4-1.9c-0.3-0.6-0.6-1.1-1.1-1.6
		c-0.5-0.5-1.1-0.9-1.8-1.1c-0.7-0.3-1.4-0.4-2.1-0.4c-0.7,0-1.3,0.1-1.9,0.4c-0.6,0.3-1.1,0.6-1.6,1.1c-0.5,0.5-0.9,1.1-1.1,1.8
		c-0.3,0.7-0.4,1.4-0.4,2.1c0,0.7,0.1,1.3,0.4,1.9c0.3,0.6,0.6,1.1,1.1,1.6c0.5,0.5,1.1,0.9,1.8,1.1c0.7,0.3,1.4,0.4,2.1,0.4
		c0.7,0,1.3-0.1,1.9-0.4c0.6-0.3,1.1-0.6,1.6-1.1c0.5-0.5,0.9-1.1,1.1-1.8C351.9,19.7,352.1,19,352.1,18.4z"/>
	<path class="st0" d="M357.5,24.6L364,28l-1.1,2.2l-8.7-4.5l7.1-13.7l2.2,1.2L357.5,24.6z"/>
	<path class="st0" d="M369.4,26.8l-2.4,1.5l-2.3-1.5l14.4-8.9l2.1,1.3L378.6,36l-2.3-1.5l0.4-2.8L369.4,26.8z M377.2,28.9l1.1-7.7
		l-6.6,4.1L377.2,28.9z"/>
	<path class="st0" d="M382,33.1l9.8-11.9l4.9,4c0.6,0.5,1.1,1.1,1.4,1.7c0.3,0.6,0.5,1.3,0.6,1.9c0.1,0.7,0,1.3-0.2,2
		c-0.2,0.7-0.6,1.3-1,1.9c-0.7,0.8-1.4,1.3-2.3,1.7c-0.9,0.3-1.7,0.4-2.6,0.2l-0.5,6.8l-2.4-2l0.4-5.9c0,0,0,0-0.1-0.1
		c0,0,0,0-0.1-0.1l-2.9-2.4l-3.1,3.8L382,33.1z M390.3,29.3l2.5,0.3l-0.2,2.5c0.5,0.1,1,0.1,1.5,0c0.5-0.2,0.9-0.5,1.3-0.9
		c0.3-0.3,0.4-0.6,0.5-1s0.1-0.7,0.1-1c0-0.3-0.1-0.7-0.3-1s-0.4-0.6-0.7-0.9l-2.9-2.4l-3.5,4.2l1.7,1.4L390.3,29.3z"/>
</g>
</svg>
