<?xml version="1.0" encoding="utf-8"?>
<!-- Generator: Adobe Illustrator 21.0.0, SVG Export Plug-In . SVG Version: 6.00 Build 0)  -->
<svg version="1.1" id="Layer_1" xmlns="http://www.w3.org/2000/svg" xmlns:xlink="http://www.w3.org/1999/xlink" x="0px" y="0px"
	 viewBox="0 0 37 95" style="enable-background:new 0 0 37 95;" xml:space="preserve">
<style type="text/css">
	.st0{fill:#ED1B56;}
</style>
<g>
	<path class="st0" d="M30.3,84.6l0.4,1.7l-8.3,2.1l0.4,1.8l-1.5,0.4L21,88.8l-0.5,0.1c-0.7,0.2-1.2,0.2-1.7,0.2
		c-0.5,0-0.9-0.2-1.3-0.4c-0.3-0.2-0.6-0.5-0.8-0.8c-0.2-0.4-0.4-0.8-0.5-1.2c-0.1-0.3-0.1-0.5-0.1-0.8s-0.1-0.5-0.1-0.8l1.5-0.4
		c0,0.3,0,0.5,0.1,0.7s0.1,0.4,0.1,0.6c0.2,0.6,0.4,1,0.8,1.2c0.4,0.2,0.9,0.2,1.7,0l0.5-0.1l-0.7-2.8l1.5-0.4l0.7,2.8L30.3,84.6z"
		/>
	<path class="st0" d="M17.4,81.3c-0.6-0.6-1-1.4-1.2-2.6c-0.2-1.4-0.1-2.5,0.5-3.2c0.5-0.7,1.4-1.2,2.6-1.4l6.5-1.1l0.3,1.7
		l-1.4,0.2c0.6,0.3,1,0.6,1.4,1.2c0.4,0.5,0.6,1.1,0.7,1.8c0.1,0.5,0.1,1,0,1.5c-0.1,0.4-0.2,0.8-0.5,1.2s-0.5,0.6-0.9,0.8
		c-0.4,0.2-0.8,0.4-1.2,0.4c-0.5,0.1-0.9,0.1-1.3,0c-0.4-0.1-0.7-0.3-1-0.5c-0.3-0.2-0.6-0.5-0.8-0.9c-0.2-0.4-0.4-0.8-0.5-1.2
		l-0.7-2.8c-0.1-0.2-0.1-0.4-0.2-0.5c-0.1-0.1-0.2-0.1-0.4-0.1l-0.2,0c-0.5,0.1-0.9,0.3-1.1,0.7c-0.2,0.4-0.3,1-0.2,1.7
		c0.1,0.7,0.3,1.2,0.7,1.7c0.4,0.4,0.9,0.6,1.5,0.6l-0.6,1.7C18.6,82.1,17.9,81.8,17.4,81.3z M22.2,78.6c0.2,0.5,0.4,0.9,0.7,1.1
		s0.7,0.3,1,0.2c0.4-0.1,0.8-0.3,1-0.6c0.2-0.4,0.3-0.8,0.2-1.5c-0.1-0.5-0.2-0.9-0.4-1.2c-0.2-0.4-0.5-0.6-0.8-0.9
		c-0.3-0.2-0.6-0.4-0.9-0.5c-0.3-0.1-0.7-0.1-1,0l-0.7,0.1L22.2,78.6z"/>
	<path class="st0" d="M15.8,72.4c-0.7-0.2-1.3-0.5-1.8-1s-0.9-1-1.2-1.6c-0.3-0.6-0.5-1.3-0.6-2.1c-0.1-0.8,0-1.5,0.2-2.1
		c0.2-0.6,0.5-1.2,1-1.7l1.4,1c-0.3,0.4-0.5,0.8-0.7,1.2c-0.2,0.4-0.3,0.9-0.2,1.5c0,0.5,0.2,0.9,0.4,1.3c0.2,0.4,0.5,0.8,0.8,1
		c0.3,0.3,0.7,0.5,1.2,0.6c0.5,0.1,1,0.2,1.5,0.1c0.5,0,1-0.1,1.5-0.4c0.4-0.2,0.8-0.5,1.1-0.8c0.3-0.3,0.5-0.7,0.7-1.1
		s0.2-0.9,0.2-1.4c0-0.6-0.2-1.1-0.4-1.6c-0.3-0.4-0.6-0.8-0.9-1.2l1.3-1.1c0.4,0.4,0.8,0.9,1.2,1.5c0.3,0.6,0.5,1.4,0.6,2.2
		c0.1,0.8,0,1.5-0.2,2.2c-0.2,0.7-0.5,1.2-1,1.7c-0.4,0.5-1,0.9-1.6,1.2c-0.6,0.3-1.3,0.5-2.1,0.5C17.1,72.7,16.4,72.6,15.8,72.4z"
		/>
	<path class="st0" d="M12.5,62.5c-0.6-0.3-1.2-0.6-1.7-1.1c-0.5-0.5-0.8-1-1.1-1.6c-0.3-0.6-0.4-1.3-0.4-2.1c0-0.8,0.2-1.5,0.5-2.1
		c0.3-0.6,0.7-1.1,1.2-1.5c0.5-0.4,1.1-0.7,1.7-0.9c0.6-0.2,1.3-0.3,2.1-0.3l0.5,0l-0.2,8.1l0,0c0.5,0,1-0.1,1.4-0.3s0.7-0.4,1-0.7
		c0.3-0.3,0.5-0.6,0.6-1c0.1-0.4,0.2-0.8,0.2-1.2c0-0.7-0.1-1.4-0.4-1.9c-0.3-0.5-0.6-1-1-1.3l1.4-0.9c0.4,0.4,0.8,1,1.2,1.7
		c0.4,0.7,0.5,1.5,0.5,2.4c0,0.8-0.2,1.5-0.4,2.1c-0.3,0.6-0.6,1.2-1.1,1.6c-0.5,0.4-1,0.8-1.7,1s-1.4,0.3-2.2,0.3
		C13.8,62.9,13.1,62.7,12.5,62.5z M11.8,55.7c-0.5,0.5-0.8,1.2-0.8,2.1c0,1,0.2,1.7,0.7,2.2c0.5,0.5,1.2,0.9,2,1l0.2-6.1
		C13,55,12.3,55.2,11.8,55.7z"/>
	<path class="st0" d="M8.5,49.4c-0.5-0.5-0.8-1-1-1.6c-0.2-0.6-0.3-1.3-0.2-2.1c0.1-0.7,0.3-1.3,0.7-1.9s0.7-1,1.3-1.4
		c0.5-0.4,1.1-0.6,1.8-0.8c0.7-0.2,1.4-0.2,2.2-0.1c0.8,0.1,1.5,0.3,2.1,0.7c0.6,0.3,1.1,0.8,1.5,1.3c0.4,0.5,0.7,1.1,0.8,1.7
		c0.2,0.6,0.2,1.3,0.1,2c-0.1,0.8-0.4,1.5-0.8,2c-0.4,0.5-0.9,1-1.4,1.3l1.4,0.2l-0.2,1.7l-14-2l0.2-1.7L8.5,49.4z M11.5,43.3
		c-0.5,0.1-0.9,0.2-1.2,0.5c-0.4,0.2-0.7,0.6-0.9,1c-0.2,0.4-0.4,0.8-0.5,1.4c-0.1,1,0.1,1.9,0.6,2.6c0.6,0.7,1.4,1.1,2.5,1.3
		c1.1,0.2,2,0,2.8-0.5s1.2-1.3,1.3-2.3c0.1-0.5,0-1-0.1-1.4c-0.1-0.4-0.3-0.8-0.6-1.2c-0.3-0.3-0.6-0.6-1.1-0.8
		c-0.4-0.2-0.9-0.4-1.4-0.4C12.5,43.2,12,43.2,11.5,43.3z"/>
	<path class="st0" d="M8.5,38.5c-0.6-0.4-1-0.9-1.4-1.5c-0.3-0.6-0.6-1.2-0.7-1.9c-0.1-0.7-0.1-1.4,0.1-2.1c0.2-0.7,0.5-1.4,0.9-1.9
		c0.4-0.6,0.9-1,1.5-1.4c0.6-0.3,1.2-0.6,1.9-0.7c0.7-0.1,1.4-0.1,2.1,0.1c0.7,0.2,1.4,0.5,1.9,0.9s1,0.9,1.4,1.5s0.6,1.2,0.7,1.9
		c0.1,0.7,0.1,1.4-0.1,2.1c-0.2,0.7-0.5,1.4-0.9,1.9c-0.4,0.6-0.9,1-1.5,1.4c-0.6,0.3-1.2,0.6-1.9,0.7c-0.7,0.1-1.4,0.1-2.1-0.1
		C9.7,39.3,9.1,38.9,8.5,38.5z M11.2,30.8c-0.5,0.1-0.9,0.2-1.3,0.4c-0.4,0.2-0.7,0.5-1,0.9c-0.3,0.4-0.5,0.8-0.6,1.3
		c-0.1,0.5-0.2,1-0.1,1.5c0.1,0.5,0.2,0.9,0.5,1.2c0.2,0.4,0.6,0.7,0.9,1s0.8,0.5,1.3,0.6c0.5,0.1,1,0.2,1.5,0.1
		c0.5-0.1,0.9-0.2,1.3-0.4c0.4-0.2,0.7-0.5,1-0.9c0.3-0.4,0.5-0.8,0.6-1.3c0.1-0.5,0.2-1,0.1-1.4c-0.1-0.5-0.2-0.9-0.5-1.3
		c-0.2-0.4-0.5-0.7-0.9-1c-0.4-0.3-0.8-0.5-1.3-0.6C12.2,30.8,11.7,30.8,11.2,30.8z"/>
	<path class="st0" d="M8.6,26.2c-0.5-0.5-0.9-1-1.2-1.6C7.1,24,7,23.3,7,22.6s0.1-1.4,0.4-2.1c0.3-0.7,0.6-1.3,1.1-1.8
		c0.5-0.5,1-0.9,1.6-1.2c0.6-0.3,1.3-0.4,2-0.5c0.7,0,1.4,0.1,2.1,0.4c0.7,0.3,1.3,0.6,1.8,1.1c0.5,0.5,0.9,1,1.2,1.6
		c0.3,0.6,0.4,1.3,0.5,2c0,0.7-0.1,1.4-0.4,2.1s-0.6,1.3-1.1,1.8s-1,0.9-1.6,1.2c-0.6,0.3-1.3,0.4-2,0.5c-0.7,0-1.4-0.1-2.1-0.4
		C9.7,27.1,9.1,26.7,8.6,26.2z M12.1,18.8c-0.5,0-0.9,0.1-1.3,0.3c-0.4,0.2-0.8,0.4-1.1,0.8c-0.3,0.3-0.6,0.8-0.7,1.3
		c-0.2,0.5-0.3,1-0.2,1.4c0,0.5,0.1,0.9,0.3,1.3c0.2,0.4,0.5,0.8,0.8,1.1s0.8,0.6,1.3,0.7c0.5,0.2,1,0.3,1.5,0.3
		c0.5,0,0.9-0.1,1.3-0.3s0.8-0.4,1.1-0.8c0.3-0.3,0.6-0.8,0.7-1.3c0.2-0.5,0.3-1,0.2-1.4c0-0.5-0.1-0.9-0.3-1.3s-0.5-0.8-0.8-1.1
		c-0.3-0.3-0.8-0.6-1.3-0.7C13,18.9,12.5,18.8,12.1,18.8z"/>
	<path class="st0" d="M14.5,14.5l2.7,1.3l-0.8,1.6L3.7,11.2l0.8-1.6l8,3.9l-2.4-6.3L11.2,5l2.1,5.9l7-1.5l-1,2l-5.5,1L14.5,14.5z"/>
</g>
</svg>
