<?xml version="1.0" encoding="utf-8"?>
<!-- Generator: Adobe Illustrator 21.0.0, SVG Export Plug-In . SVG Version: 6.00 Build 0)  -->
<svg version="1.1" id="Layer_1" xmlns="http://www.w3.org/2000/svg" xmlns:xlink="http://www.w3.org/1999/xlink" x="0px" y="0px"
	 viewBox="0 0 103 334" style="enable-background:new 0 0 103 334;" xml:space="preserve">
<style type="text/css">
	.st0{fill:#ED1B56;}
</style>
<g>
	<path class="st0" d="M29.1,320.8l-2.4,0.6l-1.5-6.3l-7.6,1.8l1.5,6.3l-2.4,0.6l-3.6-15l2.4-0.6l1.5,6.3l7.6-1.8l-1.5-6.3l2.4-0.6
		L29.1,320.8z"/>
	<path class="st0" d="M27.6,305.5c0-1,0.3-2,0.7-2.8c0.4-0.9,1-1.7,1.7-2.4c0.7-0.7,1.6-1.2,2.7-1.6c1-0.4,2.1-0.5,3.1-0.5
		c1,0,2,0.3,2.8,0.7c0.9,0.4,1.7,1,2.3,1.7c0.7,0.7,1.2,1.6,1.6,2.7c0.4,1,0.5,2.1,0.5,3.1s-0.3,2-0.7,2.8s-1,1.7-1.7,2.4
		c-0.7,0.7-1.6,1.2-2.7,1.6c-1,0.4-2,0.5-3.1,0.5c-1,0-2-0.3-2.8-0.7c-0.9-0.4-1.7-1-2.4-1.7c-0.7-0.7-1.2-1.6-1.6-2.7
		C27.7,307.6,27.6,306.6,27.6,305.5z M39.1,302.4c-0.5-0.5-1-0.9-1.6-1.2c-0.6-0.3-1.2-0.4-1.9-0.5c-0.7,0-1.4,0.1-2.1,0.3
		c-0.7,0.3-1.3,0.6-1.8,1.1s-0.9,1-1.2,1.6c-0.3,0.6-0.4,1.2-0.5,1.9c0,0.7,0.1,1.4,0.3,2.1c0.3,0.7,0.6,1.3,1.1,1.8s1,0.9,1.6,1.2
		c0.6,0.3,1.2,0.4,1.9,0.5c0.7,0,1.4-0.1,2.1-0.4c0.7-0.3,1.3-0.6,1.8-1.1s0.9-1,1.2-1.6c0.3-0.6,0.4-1.2,0.5-1.9
		c0-0.7-0.1-1.4-0.4-2.1C40,303.5,39.6,302.9,39.1,302.4z"/>
	<path class="st0" d="M36.6,292l2.4-1.3l9.5,7.7l-1.4-12.3l2.1-1.2l9.9,7.5l-1.7-12.1l2.4-1.3l2.3,16.4l-1.9,1.1l-10.3-7.8l1.4,12.8
		l-1.8,1L36.6,292z"/>
	<path class="st0" d="M74.8,276.3l-1.8,1.7l-8.8-9.4l-4.3,4l-1.7-1.8l10.3-9.7l1.7,1.8l-4.2,4L74.8,276.3z"/>
	<path class="st0" d="M68.7,262.1c-0.5-0.9-0.8-1.8-0.9-2.8s0-1.9,0.3-2.9c0.3-1,0.8-1.9,1.5-2.8c0.7-0.9,1.5-1.5,2.4-2
		c0.9-0.5,1.8-0.8,2.8-0.9c1-0.1,1.9,0,2.9,0.3c1,0.3,1.9,0.8,2.8,1.5c0.8,0.7,1.5,1.5,2,2.4c0.5,0.9,0.8,1.8,0.9,2.8
		c0.1,1,0,1.9-0.3,2.9c-0.3,1-0.8,1.9-1.5,2.8c-0.7,0.9-1.5,1.5-2.4,2c-0.9,0.5-1.8,0.8-2.8,0.9c-1,0.1-1.9,0-2.9-0.3
		s-1.9-0.8-2.8-1.5C69.8,263.7,69.2,263,68.7,262.1z M76.9,253.4c-0.7-0.2-1.3-0.3-2-0.2s-1.3,0.3-1.9,0.6c-0.6,0.3-1.1,0.8-1.6,1.4
		c-0.5,0.6-0.8,1.2-1,1.9c-0.2,0.7-0.3,1.3-0.2,1.9c0.1,0.6,0.3,1.3,0.6,1.9s0.8,1.1,1.4,1.6c0.6,0.5,1.2,0.8,1.9,1s1.3,0.3,2,0.2
		s1.3-0.3,1.9-0.6s1.1-0.8,1.6-1.4c0.5-0.6,0.8-1.2,1-1.9c0.2-0.7,0.3-1.3,0.2-2c-0.1-0.6-0.3-1.3-0.6-1.9c-0.3-0.6-0.8-1.1-1.4-1.6
		C78.2,253.9,77.6,253.6,76.9,253.4z"/>
	<path class="st0" d="M76.8,240.8c-0.7-0.8-1.2-1.6-1.5-2.5c-0.3-0.9-0.5-1.9-0.4-2.9c0-1,0.3-2,0.8-3c0.5-1,1.1-1.8,1.8-2.5
		s1.6-1.2,2.5-1.6l1.6,2.1c-0.8,0.2-1.5,0.6-2.1,1.1c-0.6,0.5-1.1,1.2-1.5,2c-0.3,0.7-0.5,1.3-0.5,2s0.1,1.3,0.3,1.9
		c0.2,0.6,0.6,1.2,1,1.7c0.5,0.5,1,0.9,1.7,1.3c0.7,0.3,1.4,0.5,2.1,0.6c0.7,0,1.3-0.1,1.9-0.3c0.6-0.2,1.2-0.6,1.7-1
		c0.5-0.5,0.9-1,1.2-1.7c0.1-0.2,0.1-0.4,0.2-0.5c0-0.1,0.1-0.3,0.1-0.5l-3-1.4l-1.4,2.9l-2.3-1.1l2.4-5.2l7,3.3
		c-0.1,0.6-0.2,1.2-0.3,1.8c-0.1,0.6-0.3,1.1-0.6,1.7c-0.5,1-1.1,1.8-1.8,2.5s-1.6,1.2-2.5,1.5c-0.9,0.3-1.9,0.5-2.9,0.4
		c-1,0-2-0.3-3-0.8C78.3,242.2,77.5,241.6,76.8,240.8z"/>
	<path class="st0" d="M80,216.9l-2.1,6.9l3.8,1.2l2.1-6.9l2.4,0.7l-2.1,6.9l3.8,1.1l2.1-6.9l2.4,0.7l-2.8,9.3l-14.7-4.5l2.8-9.3
		L80,216.9z"/>
	<path class="st0" d="M90.8,209.4l-0.4,2.5L77.7,210l-0.8,5.8l-2.5-0.4l2.1-14l2.5,0.4l-0.9,5.7L90.8,209.4z"/>
	<path class="st0" d="M85.5,187.5l0.3,2.5l-12.8,1.8l0.8,5.8l-2.5,0.3l-2-14l2.5-0.3l0.8,5.7L85.5,187.5z"/>
	<path class="st0" d="M70.3,184.3c-1-0.2-1.9-0.5-2.8-1s-1.5-1.2-2.1-2c-0.6-0.8-1-1.8-1.3-2.8c-0.3-1.1-0.3-2.1-0.1-3.1
		c0.2-1,0.5-1.9,1-2.7c0.5-0.8,1.2-1.5,2-2.1c0.8-0.6,1.8-1,2.8-1.3c1.1-0.2,2.1-0.3,3.1-0.1c1,0.2,1.9,0.5,2.7,1
		c0.8,0.5,1.5,1.2,2.1,2c0.6,0.8,1,1.8,1.3,2.9c0.3,1.1,0.3,2.1,0.1,3.1c-0.2,1-0.5,1.9-1,2.8c-0.5,0.8-1.2,1.5-2,2.1
		c-0.8,0.6-1.8,1-2.8,1.3C72.3,184.5,71.3,184.5,70.3,184.3z M68.5,172.5c-0.6,0.4-1,0.9-1.4,1.4s-0.6,1.2-0.7,1.9
		c-0.1,0.7-0.1,1.4,0.1,2.1c0.2,0.7,0.5,1.4,0.9,1.9c0.4,0.6,0.9,1,1.4,1.3c0.6,0.3,1.2,0.6,1.9,0.7s1.4,0.1,2.1-0.1
		c0.7-0.2,1.4-0.5,1.9-0.9c0.6-0.4,1-0.9,1.3-1.4s0.6-1.2,0.7-1.8c0.1-0.7,0.1-1.4-0.1-2.1c-0.2-0.7-0.5-1.4-0.9-1.9
		c-0.4-0.6-0.9-1-1.4-1.4c-0.6-0.3-1.2-0.6-1.8-0.7c-0.7-0.1-1.4-0.1-2.1,0.1C69.6,171.8,69,172.1,68.5,172.5z"/>
	<path class="st0" d="M68.2,154.8l0.6,2.4l-12.5,3.1l1.4,5.7l-2.4,0.6l-3.4-13.7l2.4-0.6l1.4,5.6L68.2,154.8z"/>
	<path class="st0" d="M60.1,136.3l0.5,2.5l-6.3,1.3l1.6,7.7l6.3-1.3l0.5,2.4L47.6,152l-0.5-2.5l6.3-1.3l-1.6-7.7l-6.3,1.3l-0.5-2.4
		L60.1,136.3z"/>
	<path class="st0" d="M41.7,126.7l1,7.1l3.9-0.6l-1-7.1l2.5-0.4l1,7.1l3.9-0.6l-1-7.1l2.5-0.4l1.4,9.6l-15.2,2.2l-1.4-9.6
		L41.7,126.7z"/>
	<path class="st0" d="M35.4,108l0.3,7.2l3.9-0.2l-0.3-7.2l2.5-0.1l0.3,7.2l6.5-0.3l0.1,2.5l-15.4,0.7l-0.4-9.7L35.4,108z"/>
	<path class="st0" d="M32.5,95.5l-0.3,7.2l3.9,0.1l0.3-7.2l2.5,0.1l-0.2,7.2l3.9,0.1l0.3-7.2l2.5,0.1l-0.3,9.7l-15.4-0.5l0.3-9.7
		L32.5,95.5z"/>
	<path class="st0" d="M29.5,92.3c-0.5-0.3-0.9-0.7-1.2-1.2s-0.5-1-0.7-1.6c-0.1-0.6-0.1-1.2-0.1-1.9c0.1-1.2,0.6-2.3,1.4-3.1
		c0.8-0.8,1.8-1.3,3-1.4l0.7,2.4c-0.8,0.1-1.4,0.4-1.8,0.8c-0.4,0.4-0.6,1-0.7,1.6c-0.1,0.8,0,1.3,0.3,1.8s0.7,0.7,1.2,0.7
		c0.3,0,0.6,0,0.8-0.1s0.4-0.3,0.6-0.6c0.2-0.2,0.4-0.5,0.6-0.9c0.2-0.3,0.4-0.7,0.5-1.1c0.3-0.5,0.5-1,0.8-1.5
		c0.3-0.5,0.6-0.9,1-1.2c0.4-0.3,0.8-0.6,1.3-0.7c0.5-0.2,1.1-0.2,1.8-0.1c0.7,0.1,1.3,0.3,1.8,0.6c0.5,0.3,0.9,0.7,1.2,1.2
		c0.3,0.5,0.5,1,0.6,1.6c0.1,0.6,0.1,1.2,0.1,1.9c-0.1,0.5-0.2,1-0.4,1.5s-0.5,1-0.8,1.4c-0.4,0.4-0.8,0.8-1.3,1.1s-1.1,0.5-1.9,0.5
		l-0.8-2.3c1.6-0.2,2.5-1,2.6-2.5c0.1-0.7,0-1.3-0.3-1.7c-0.3-0.4-0.7-0.7-1.3-0.8c-0.3,0-0.6,0-0.9,0.1c-0.3,0.1-0.5,0.3-0.7,0.5
		c-0.2,0.2-0.4,0.5-0.5,0.8c-0.2,0.3-0.3,0.7-0.5,1c-0.2,0.5-0.5,1-0.7,1.4c-0.3,0.5-0.6,0.9-1,1.3c-0.4,0.4-0.9,0.7-1.4,0.9
		c-0.5,0.2-1.2,0.3-1.9,0.2C30.6,92.8,30,92.6,29.5,92.3z"/>
	<path class="st0" d="M41.8,76.1l-0.5,2.5l-12.6-2.7l-1.2,5.7L25,81.1l2.9-13.8l2.5,0.5l-1.2,5.7L41.8,76.1z"/>
	<path class="st0" d="M41.6,66.3l-0.7,2.4l-14.8-4.3l0.7-2.4L41.6,66.3z"/>
	<path class="st0" d="M24.4,58.7l1-2.6l13-1l-9-9.4l1-2.6l11.8,12.3l-0.7,2L24.4,58.7z"/>
	<path class="st0" d="M39.4,45.1l1.8,2.2L40,49.7L29.4,36.4l1.1-2.2l17,0.5l-1.2,2.4l-2.8-0.1L39.4,45.1z M40.6,37.1l-7.7-0.2
		l4.8,6.1L40.6,37.1z"/>
	<path class="st0" d="M43.9,28.5l3.9-6.2l2.1,1.3L44.6,32l-13.1-8.1l1.3-2.1L43.9,28.5z"/>
	<path class="st0" d="M37.6,15c-0.4-0.5-0.6-1.1-0.7-1.7c-0.1-0.6-0.1-1.2,0.1-1.8c0.2-0.6,0.4-1.2,0.9-1.9c0.4-0.6,0.8-1,1.3-1.4
		s1-0.5,1.5-0.6c0.5-0.1,1.1-0.1,1.6,0.1c0.6,0.1,1.1,0.4,1.6,0.7c0.4,0.3,0.6,0.5,0.9,0.8c0.2,0.3,0.4,0.6,0.5,0.9
		c0.1,0.3,0.2,0.6,0.3,1c0.1,0.3,0.1,0.7,0.2,1c0,0.3,0.1,0.5,0.1,0.8c0,0.2,0.1,0.5,0.1,0.7c0.1,0.2,0.2,0.4,0.3,0.6
		c0.1,0.2,0.3,0.4,0.5,0.5l0.4,0.2l-1.5,2l-0.6-0.4c-0.4-0.3-0.7-0.6-0.9-0.9c-0.2-0.3-0.4-0.6-0.5-1c-0.1-0.3-0.2-0.7-0.3-1
		s-0.1-0.7-0.1-1c0-0.4-0.1-0.8-0.2-1.2c-0.1-0.4-0.3-0.7-0.7-1c-0.4-0.3-0.9-0.4-1.4-0.4c-0.5,0-1,0.4-1.4,0.9
		c-0.4,0.6-0.6,1.2-0.5,1.8c0.1,0.6,0.5,1.1,1.2,1.6l-1.4,2C38.5,16,38,15.5,37.6,15z M47.7,15.9c0.2-0.1,0.4-0.2,0.7-0.2
		c0.2,0,0.5,0,0.7,0c0.2,0.1,0.5,0.2,0.7,0.3c0.4,0.3,0.7,0.7,0.8,1.2c0.1,0.5,0,1-0.3,1.4c-0.3,0.4-0.7,0.7-1.2,0.8
		c-0.5,0.1-1,0-1.4-0.4c-0.4-0.3-0.7-0.7-0.8-1.2c-0.1-0.5,0-1,0.3-1.4C47.3,16.2,47.5,16,47.7,15.9z"/>
</g>
</svg>
