<?xml version="1.0" encoding="utf-8"?>
<!-- Generator: Adobe Illustrator 21.0.0, SVG Export Plug-In . SVG Version: 6.00 Build 0)  -->
<svg version="1.1" id="Layer_1" xmlns="http://www.w3.org/2000/svg" xmlns:xlink="http://www.w3.org/1999/xlink" x="0px" y="0px"
	 viewBox="0 0 288 3968" style="enable-background:new 0 0 288 3968;" xml:space="preserve">
<style type="text/css">
	.st0{fill:none;stroke:#ED297A;stroke-width:1.0226;stroke-miterlimit:10;}
</style>
<path class="st0" d="M66.8,52c39.2,9.4,110.6,4.7,130.5,59.8c13.3,36.8-3,71.1-24.9,105.6c-20,31.6-36,63.1-24.2,103.9
	c11.6,40.4,84.3,68.5,83.9,138.3c-0.4,74.7-54.3,94.4-73.7,133.5c-27.5,55.3,40,90.7,37.2,152c-1.9,41.7-50.5,68.7-53.9,124.7
	c-1.4,23.7,9.9,49.8,24.2,77.4c24.4,47.1,32.7,97-15.4,152.9c-43.1,50.1-16.6,88.1,6.1,135.2c18.4,38,8.6,72.5-15.6,94.4
	c-21.1,19.1-50.2,37.2-73.1,76c-38.6,65.3,5.3,142.1,41.8,204.6c36.5,62.5,49.2,173.5-47.8,259.8c-70.5,62.8-25.5,127.8,12.6,172.8
	c38.2,44.9,86.6,106.1,68.6,183.8c-6.1,26.4-28.4,51.9-44.3,77.9c-9.4,15.4-16.5,31.1-16.5,47.2c-0.2,36.2,31.9,61.8,59.3,83.5
	s54.2,54.1,46.1,89.2c-12.4,53.6-87.9,56.9-88.4,105.6c-0.4,42.6,56.2,55.6,88.6,81.4c74.8,59.7,54.2,151.5,23,188.2
	c-30.3,35.7-66.2,57.1-74.9,104.2c-7,38,13,72,2,132s-66,96-62,154c3.5,50.5,78,107,80,161s-52,60-52,126c0,74.7,102,108,110,182
	s-86,116-94,176"/>
</svg>
