<svg xmlns="http://www.w3.org/2000/svg" viewBox="0 0 376.47 450.62"><defs><style>.cls-1{fill:#ec1a55;}</style></defs><title>Asset 8</title><g id="Layer_2" data-name="Layer 2"><g id="Layer_2-2" data-name="Layer 2"><polygon class="cls-1" points="251.93 119.94 236.03 115.7 244.63 83.78 209.65 74.47 201.17 106.28 185.15 102.04 206.58 22.41 222.48 26.65 213.88 58.57 248.87 67.88 257.35 36.08 273.36 40.32 251.93 119.94"/><path class="cls-1" d="M341.66,67.46a22.65,22.65,0,0,0-2.95-8.89,23.5,23.5,0,0,0-6.3-6.95,26.87,26.87,0,0,0-9.12-4.36,26.24,26.24,0,0,0-10.08-.82,22.62,22.62,0,0,0-8.88,2.95,23.75,23.75,0,0,0-7,6.24A26.28,26.28,0,0,0,293,64.82a25.06,25.06,0,0,0-.76,10,24.39,24.39,0,0,0,2.95,8.89,22.76,22.76,0,0,0,6.18,7,26.27,26.27,0,0,0,9.18,4.36,25.08,25.08,0,0,0,10,.76,24.49,24.49,0,0,0,8.88-2.95,22.7,22.7,0,0,0,7-6.24,27,27,0,0,0,4.35-9.13,26.2,26.2,0,0,0,.82-10.07m-57.3-22A39.5,39.5,0,0,1,311,30.18a43.78,43.78,0,0,1,31.62,8.48A39.23,39.23,0,0,1,353,50.39a39.68,39.68,0,0,1,5,14.84,43.78,43.78,0,0,1-8.48,31.63,39.25,39.25,0,0,1-11.73,10.37,40.47,40.47,0,0,1-14.84,5,44.44,44.44,0,0,1-31.62-8.48A39.79,39.79,0,0,1,280.89,92a40.74,40.74,0,0,1-3.77-31.51,41.33,41.33,0,0,1,7.24-15"/><path class="cls-1" d="M16.19,134.34A40,40,0,0,1,27.91,124a39.51,39.51,0,0,1,14.78-5,42.58,42.58,0,0,1,16.54,1.18,47.63,47.63,0,0,1,14.85,6.95,39.65,39.65,0,0,1,11.07,11.78L73.61,151.54q-6.48-12-18.61-15.44a25.93,25.93,0,0,0-10-.82,23.11,23.11,0,0,0-8.84,2.89,22.84,22.84,0,0,0-7,6.24A28.58,28.58,0,0,0,24,163.85a23,23,0,0,0,2.89,8.89A22.68,22.68,0,0,0,33,179.63a26.42,26.42,0,0,0,9,4.3A41.16,41.16,0,0,0,49.41,185a32.63,32.63,0,0,0,9.12-.76l-.82,16.49a59.32,59.32,0,0,1-10.07.53,47,47,0,0,1-9.84-1.47A40.76,40.76,0,0,1,23,192.59a40.22,40.22,0,0,1-10.31-11.78A40.83,40.83,0,0,1,8.95,149.3a41.57,41.57,0,0,1,7.24-15"/><path class="cls-1" d="M104.33,166.38l21.43-25.79,5.65,33Zm87-116.9-17.08-4.59L137.88,94.6,129.76,33,114.1,28.75,76.29,78.11,69.57,16.86,52.49,12.27,62,100.14l15,4,38.87-50.4,8.35,63.08-58.16,69.7,17.42,4.71,9.2-11,41.92,11.19L137,205.61l17.56,4.71-15.33-89.45Z"/><path class="cls-1" d="M195.59,151.42l15.78-4.36,3.54,11.66a10.17,10.17,0,0,0,5.06-3.06,13.77,13.77,0,0,0,2.95-5.65,12.44,12.44,0,0,0-1-9.36q-2.29-4.18-8.06-5.71L195,129.87l-6.36,23.79,8.24,2.24Zm-11.19,18.13-6.48,24L162,189.35l21.31-79.62,34.75,9.3a31.73,31.73,0,0,1,10.78,5.13,26.66,26.66,0,0,1,10.77,18.49,30.9,30.9,0,0,1-.82,11.61,28.71,28.71,0,0,1-7.12,13.07,27,27,0,0,1-11.85,7.3L230,207.49l-18.73-4.83-8.6-28.15Z"/><polygon class="cls-1" points="311.11 141.64 275.54 132.11 271.31 148.01 306.75 157.55 302.5 173.45 267.06 163.91 262.82 179.93 298.27 189.35 294.04 205.37 242.56 191.58 263.89 111.85 315.35 125.62 311.11 141.64"/><path class="cls-1" d="M328,125.68a22.19,22.19,0,0,1,7.35-5.77,23.51,23.51,0,0,1,9.36-2.3,36,36,0,0,1,10.66,1.17c6.74,1.8,12,5.06,15.83,9.77s5.56,10.52,5.25,17.43l-16,2q.22-5.78-2.3-8.89a13.68,13.68,0,0,0-7.23-4.42c-3.3-.86-5.91-.85-7.83.06a6.55,6.55,0,0,0-3.71,4.42,5.93,5.93,0,0,0,.12,3.89,9.65,9.65,0,0,0,2.35,3.35,27.52,27.52,0,0,0,4.13,3.19q2.47,1.58,5.29,3.47,3.66,2.48,7,5.24a25.77,25.77,0,0,1,5.53,6.24,20.78,20.78,0,0,1,2.88,7.83,23.46,23.46,0,0,1-.82,9.89,24.63,24.63,0,0,1-4.65,9.3,21.21,21.21,0,0,1-7.35,5.77,24.38,24.38,0,0,1-9.36,2.24,35.38,35.38,0,0,1-10.54-1.18,32.91,32.91,0,0,1-8.6-3.53,27.17,27.17,0,0,1-6.89-5.71,23.78,23.78,0,0,1-4.41-7.84,27.83,27.83,0,0,1-1.3-10.13l15.89-2.36q-.47,10.95,9.78,13.66,4.6,1.29,7.59.06a6.62,6.62,0,0,0,3.95-4.65,6.37,6.37,0,0,0-.12-4,10.14,10.14,0,0,0-2.3-3.36,24.54,24.54,0,0,0-3.93-3.12c-1.58-1-3.26-2.08-5.07-3.19q-3.41-2.23-6.77-4.94a27.62,27.62,0,0,1-5.71-6.24,21.79,21.79,0,0,1-3.23-8.07,22.39,22.39,0,0,1,.64-10.19,23,23,0,0,1,4.53-9.13"/><polygon class="cls-1" points="109.91 239 74.34 229.46 70.11 245.35 105.56 254.9 101.32 270.8 65.86 261.25 57.26 293.17 41.36 288.94 62.67 209.19 114.16 222.98 109.91 239"/><path class="cls-1" d="M178.67,252.24a22.67,22.67,0,0,0-2.95-8.89,23.51,23.51,0,0,0-6.3-6.95A26.87,26.87,0,0,0,160.3,232a26.24,26.24,0,0,0-10.08-.82,22.62,22.62,0,0,0-8.88,2.95,24,24,0,0,0-7,6.24,26.3,26.3,0,0,0-4.35,9.19,25.06,25.06,0,0,0-.76,10,24.39,24.39,0,0,0,2.95,8.89,22.76,22.76,0,0,0,6.18,7,26.26,26.26,0,0,0,9.18,4.36,25.09,25.09,0,0,0,10,.76,24.5,24.5,0,0,0,8.88-2.95,22.52,22.52,0,0,0,7-6.24,27,27,0,0,0,4.35-9.13,25.92,25.92,0,0,0,.82-10.07m-57.3-22A39.5,39.5,0,0,1,148,215a43.78,43.78,0,0,1,31.62,8.48A39.24,39.24,0,0,1,190,235.17a39.94,39.94,0,0,1,5,14.84,43.79,43.79,0,0,1-8.48,31.63A39.44,39.44,0,0,1,174.72,292a40.44,40.44,0,0,1-14.84,5,44.44,44.44,0,0,1-31.62-8.48,39.78,39.78,0,0,1-10.37-11.78,40.56,40.56,0,0,1-5-14.84,44.54,44.54,0,0,1,8.48-31.63"/><path class="cls-1" d="M231.18,248.77,247,244.41l3.54,11.66a10.16,10.16,0,0,0,5.06-3.06,13.75,13.75,0,0,0,2.95-5.65,12.43,12.43,0,0,0-1-9.36q-2.29-4.18-8.06-5.71l-18.85-5.07L224.24,251l8.24,2.24ZM220,266.91l-6.48,24-15.9-4.24,21.31-79.62,34.75,9.31a31.44,31.44,0,0,1,10.78,5.12A26.66,26.66,0,0,1,275.23,240a30.89,30.89,0,0,1-.82,11.61,28.75,28.75,0,0,1-7.12,13.07A27,27,0,0,1,255.44,272l10.14,32.86L246.85,300l-8.6-28.15Z"/><path class="cls-1" d="M125.55,329.68a8.86,8.86,0,0,0-5.43-3.77l-17.66-4.71-4.25,15.91,17.68,4.71a8.53,8.53,0,0,0,6.48-.65,7.92,7.92,0,0,0,3.89-5.35,7.53,7.53,0,0,0-.7-6.13m-8.66,31.87a8.34,8.34,0,0,0-5.37-3.83L94,353l-4.23,15.9,17.54,4.83a8.8,8.8,0,0,0,6.6-.59,7.72,7.72,0,0,0,3.65-4.94,8.23,8.23,0,0,0-.64-6.66m17.42-47.11a22.18,22.18,0,0,1,6.19,6.72,21.56,21.56,0,0,1,2.77,8.36,25.23,25.23,0,0,1-.76,9.36,21.07,21.07,0,0,1-5.55,10,17.17,17.17,0,0,1-9.06,4.71,17.78,17.78,0,0,1,5.47,8.71,20.81,20.81,0,0,1-.18,11.31,25.5,25.5,0,0,1-4,8.54,20.65,20.65,0,0,1-6.6,5.89,22.79,22.79,0,0,1-8.72,2.71,28.27,28.27,0,0,1-10.48-1l-33.92-9.19,21.31-79.62L124.72,310a29,29,0,0,1,9.6,4.42"/><polygon class="cls-1" points="211.74 331.57 176.17 322.03 171.94 337.93 207.38 347.47 203.15 363.37 167.69 353.83 163.45 369.85 198.9 379.27 194.65 395.29 143.19 381.51 164.5 301.77 215.98 315.55 211.74 331.57"/><polygon class="cls-1" points="280.13 331.57 244.57 322.03 240.33 337.93 275.78 347.47 271.53 363.37 236.09 353.83 231.85 369.85 267.3 379.27 263.07 395.29 211.59 381.51 232.91 301.77 284.38 315.55 280.13 331.57"/><path class="cls-1" d="M313.92,341.35,329.7,337l3.54,11.66a10.17,10.17,0,0,0,5.06-3.06,13.76,13.76,0,0,0,2.95-5.65,12.43,12.43,0,0,0-1-9.36q-2.29-4.18-8.06-5.71l-18.85-5.06L307,343.58l8.24,2.24Zm-11.19,18.14-6.48,24-15.9-4.24,21.31-79.62,34.74,9.3a31.71,31.71,0,0,1,10.78,5.13A26.66,26.66,0,0,1,358,332.57a30.9,30.9,0,0,1-.82,11.61A28.71,28.71,0,0,1,350,357.25a27,27,0,0,1-11.85,7.3l10.14,32.87-18.73-4.83L321,364.43Z"/><polygon class="cls-1" points="148.62 419.41 132.37 415.05 129.59 425.31 145.84 429.67 144.7 433.98 128.45 429.62 124.54 444.24 120.22 443.05 129.2 409.55 149.75 415.1 148.62 419.41"/><polygon class="cls-1" points="175.87 419.41 159.62 415.05 156.85 425.31 173.09 429.67 171.95 433.98 155.7 429.62 152.92 439.93 169.17 444.28 168.04 448.59 147.47 443.05 156.45 409.55 177 415.1 175.87 419.41"/><path class="cls-1" d="M182.29,415a8.65,8.65,0,0,1,3-2.23,10.43,10.43,0,0,1,3.69-.89,12.53,12.53,0,0,1,4,.42,10.76,10.76,0,0,1,6.11,3.94,11.75,11.75,0,0,1,2.25,6.92l-4.51.54a7.35,7.35,0,0,0-1.36-4.76,7.24,7.24,0,0,0-3.78-2.38,6,6,0,0,0-4.61.27,4.76,4.76,0,0,0-2.33,3,4.19,4.19,0,0,0-.08,2.23,4.63,4.63,0,0,0,1,1.83,10,10,0,0,0,1.81,1.64c.73.53,1.52,1.08,2.38,1.64,1.18.79,2.28,1.58,3.26,2.37a12.25,12.25,0,0,1,2.46,2.6,7.64,7.64,0,0,1,1.26,3.15,9,9,0,0,1-.29,3.92,10.35,10.35,0,0,1-1.91,3.91,8.15,8.15,0,0,1-2.94,2.31,9.79,9.79,0,0,1-3.62.87,12.23,12.23,0,0,1-3.92-.45,13.54,13.54,0,0,1-3-1.21,10.44,10.44,0,0,1-4.71-5.3,11.31,11.31,0,0,1-.76-4.34l4.3-1a8.29,8.29,0,0,0,1.25,4.88,6.76,6.76,0,0,0,4.11,2.65,6.55,6.55,0,0,0,4.43-.12,4.51,4.51,0,0,0,2.5-3.2,4.6,4.6,0,0,0,.08-2.38,4.77,4.77,0,0,0-.94-1.86,9,9,0,0,0-1.6-1.52q-.94-.69-2-1.34c-1-.62-2-1.34-3.07-2.13a14.78,14.78,0,0,1-2.75-2.67,9.22,9.22,0,0,1-1.66-3.39,8.41,8.41,0,0,1,.14-4.29,9.31,9.31,0,0,1,1.86-3.64"/><polygon class="cls-1" points="213.15 446.42 208.83 445.23 216.66 416.04 203.48 412.53 204.67 408.22 235.34 416.44 234.15 420.75 220.97 417.18 213.15 446.42"/><polygon class="cls-1" points="235.48 446.42 231.18 445.23 240.15 411.73 244.46 412.92 235.48 446.42"/><polygon class="cls-1" points="249.37 407.62 254.18 408.91 259.77 439.33 279.69 415.74 284.5 417.04 259.58 446.27 256.36 445.38 249.37 407.62"/><path class="cls-1" d="M285.28,433.39l13.18-15.85L302,437.9ZM273,441.07l4.76,1.24,4.3-5.15,20.77,5.55,1.13,6.64,4.76,1.29-6.65-37.7-4.51-1.19Z"/><polygon class="cls-1" points="319.68 439.88 336.28 444.33 335.14 448.64 314.23 443.05 323.2 409.5 327.51 410.69 319.68 439.88"/><polygon class="cls-1" points="0 93 4.32 94.19 7.83 81.01 37.02 88.85 38.2 84.54 8.98 76.7 12.54 63.53 8.23 62.34 0 93"/><polygon class="cls-1" points="6.7 33.65 21.25 37.56 16.16 56.73 1.54 52.82 0.4 57.13 33.9 66.1 35.03 61.79 20.46 57.87 25.57 38.7 40.19 42.61 41.33 38.31 7.83 29.34 6.7 33.65"/><polygon class="cls-1" points="6.89 0 1.34 20.56 34.83 29.53 40.38 8.97 36.08 7.83 31.71 24.07 21.41 21.3 25.76 5.05 21.46 3.91 17.1 20.17 6.84 17.39 11.21 1.14 6.89 0"/></g></g></svg>