<?xml version="1.0" encoding="utf-8"?>
<!-- Generator: Adobe Illustrator 21.0.0, SVG Export Plug-In . SVG Version: 6.00 Build 0)  -->
<svg version="1.1" id="Layer_1" xmlns="http://www.w3.org/2000/svg" xmlns:xlink="http://www.w3.org/1999/xlink" x="0px" y="0px"
	 viewBox="0 0 361 315" style="enable-background:new 0 0 361 315;" xml:space="preserve">
<style type="text/css">
	.st0{fill:#ED1B56;}
</style>
<g>
	<path class="st0" d="M3.3,306.5l-1.6-15.3l2.4-0.3l8.2,11.3l5.6-12.8l2.4-0.3l1.6,15.3l-2.5,0.3l-1.1-10.1l-4.7,10.8l-2.1,0.2
		l-6.9-9.5l1.1,10.1L3.3,306.5z"/>
	<path class="st0" d="M22.3,288.4c0.2-1,0.5-1.9,1-2.8c0.5-0.8,1.2-1.5,2-2.1c0.8-0.6,1.8-1,2.8-1.3c1.1-0.3,2.1-0.3,3.1-0.1
		c1,0.2,1.9,0.5,2.7,1c0.8,0.5,1.5,1.2,2.1,2s1,1.8,1.3,2.8c0.2,1.1,0.3,2.1,0.1,3.1c-0.2,1-0.5,1.9-1,2.7c-0.5,0.8-1.2,1.5-2,2.1
		c-0.8,0.6-1.8,1-2.9,1.3c-1.1,0.3-2.1,0.3-3.1,0.1c-1-0.2-1.9-0.5-2.8-1c-0.8-0.5-1.5-1.2-2.1-2s-1-1.8-1.3-2.8
		C22.2,290.4,22.1,289.4,22.3,288.4z M34.1,286.6c-0.4-0.6-0.9-1-1.4-1.3c-0.6-0.3-1.2-0.6-1.9-0.7c-0.7-0.1-1.4-0.1-2.1,0.1
		c-0.7,0.2-1.4,0.5-1.9,0.9c-0.6,0.4-1,0.9-1.3,1.4c-0.3,0.6-0.6,1.2-0.7,1.9c-0.1,0.7-0.1,1.4,0.1,2.1c0.2,0.7,0.5,1.4,0.9,1.9
		c0.4,0.5,0.9,1,1.4,1.3c0.6,0.3,1.2,0.6,1.8,0.7c0.7,0.1,1.4,0.1,2.1-0.1c0.7-0.2,1.4-0.5,1.9-0.9c0.6-0.4,1-0.9,1.3-1.4
		c0.3-0.6,0.6-1.2,0.7-1.8c0.1-0.7,0.1-1.4-0.1-2.1C34.8,287.8,34.5,287.1,34.1,286.6z"/>
	<path class="st0" d="M41.2,290L35,275.9l5.8-2.5c0.7-0.3,1.4-0.5,2.1-0.5c0.7,0,1.4,0.1,2,0.3c0.6,0.2,1.2,0.6,1.7,1.1
		c0.5,0.5,0.9,1.1,1.2,1.8c0.4,0.9,0.6,1.9,0.5,2.8c-0.1,0.9-0.4,1.7-1,2.5l5.9,3.5l-2.8,1.2l-5.1-3.1c0,0-0.1,0-0.1,0
		c0,0,0,0-0.1,0l-3.5,1.5l2,4.5L41.2,290z M41.5,280.8l1.3-2.1L45,280c0.4-0.4,0.6-0.8,0.6-1.3c0.1-0.5,0-1-0.2-1.6
		c-0.2-0.4-0.4-0.7-0.6-0.9c-0.3-0.3-0.6-0.4-0.9-0.6c-0.3-0.1-0.7-0.2-1-0.2s-0.7,0.1-1.1,0.3l-3.5,1.5l2.2,5.1l2-0.9L41.5,280.8z"
		/>
	<path class="st0" d="M55.1,263.9l-6,3.9l2.1,3.3l6-3.9l1.4,2.1l-6,3.9l2.2,3.3l6-3.9l1.4,2.1L54,280l-8.4-12.9l8.1-5.3L55.1,263.9z
		"/>
	<path class="st0" d="M71.5,259.8l-1.8,1.7l-9-9.2l-4.2,4.1l-1.7-1.8l10.1-9.9l1.7,1.8l-4.2,4.1L71.5,259.8z"/>
	<path class="st0" d="M82.4,241.2l-1.6,1.9l-5-4.1l-4.9,6.1l5,4.1l-1.6,2l-12-9.7l1.6-1.9l5,4.1l4.9-6.1l-5-4.1l1.6-2L82.4,241.2z"
		/>
	<path class="st0" d="M80.3,232l1.6,2.4l-1.4,2.3l-9.3-14.2l1.3-2.1l16.9,2.1l-1.5,2.3l-2.8-0.3L80.3,232z M82.2,224.1l-7.7-0.9
		l4.3,6.5L82.2,224.1z"/>
	<path class="st0" d="M92.3,205.8l-1,2.1l-14,3.3l10.1,4.9l-1.1,2.3l-13.9-6.7l1-2.1l14.1-3.3l-10.1-4.9l1.1-2.3L92.3,205.8z"/>
	<path class="st0" d="M81.8,181.2l10,11l-1,2.7l-9.8-10.7l-2.6,6.9l-2.3-0.9l3.6-9.7L81.8,181.2z"/>
	<path class="st0" d="M81.1,180.2c-0.8-0.7-1.4-1.4-1.8-2.2c-0.4-0.8-0.7-1.7-0.8-2.7c-0.1-1,0-1.9,0.3-2.9c0.3-1,0.8-1.8,1.4-2.5
		c0.6-0.7,1.4-1.3,2.2-1.7c0.9-0.4,1.8-0.7,2.8-0.7c1-0.1,2,0.1,3.1,0.4c1.1,0.4,2,0.9,2.8,1.5c0.8,0.7,1.4,1.4,1.8,2.2
		c0.4,0.8,0.7,1.7,0.8,2.7c0.1,1,0,1.9-0.3,2.9c-0.3,1-0.8,1.8-1.4,2.5c-0.6,0.7-1.4,1.3-2.2,1.7S88,182,87,182.1
		c-1,0.1-2.1-0.1-3.1-0.4C82.8,181.3,81.9,180.8,81.1,180.2z M85.5,169.9c-0.7,0-1.3,0.2-1.9,0.5c-0.6,0.3-1.1,0.6-1.5,1.1
		c-0.4,0.5-0.7,1-1,1.7c-0.2,0.6-0.3,1.3-0.2,1.9c0.1,0.6,0.2,1.2,0.5,1.8c0.3,0.5,0.7,1,1.3,1.5c0.5,0.4,1.2,0.8,1.9,1
		c0.7,0.2,1.4,0.3,2.1,0.3c0.7,0,1.3-0.2,1.9-0.5c0.6-0.3,1.1-0.6,1.5-1.1c0.4-0.5,0.7-1,1-1.7s0.3-1.3,0.2-1.9
		c-0.1-0.6-0.2-1.2-0.5-1.8c-0.3-0.5-0.7-1-1.2-1.5c-0.5-0.4-1.2-0.8-1.9-1C86.9,170,86.2,169.9,85.5,169.9z M84.4,175.6
		c-0.2-0.5-0.3-0.9-0.1-1.4c0.2-0.5,0.5-0.9,0.9-1.1s0.9-0.3,1.4-0.1c0.5,0.2,0.9,0.5,1.1,0.9s0.3,0.9,0.1,1.4
		c-0.2,0.5-0.5,0.9-0.9,1.1c-0.5,0.2-0.9,0.3-1.4,0.1C85,176.3,84.7,176,84.4,175.6z"/>
	<path class="st0" d="M80.7,148.2c0.4-0.5,0.8-0.8,1.3-1.1c0.5-0.3,1-0.4,1.6-0.5s1.2,0,1.8,0.2c0.7,0.2,1.3,0.6,1.8,1.1
		s0.8,1.1,0.9,1.7c0.5-0.5,1.1-0.8,1.7-0.9s1.3-0.1,2.1,0.1c0.6,0.2,1.1,0.5,1.6,0.8c0.4,0.4,0.8,0.8,1,1.3c0.2,0.5,0.4,1,0.4,1.6
		c0,0.6,0,1.2-0.2,1.8l-1.9,6.2L78,156l1.9-6.2C80.1,149.2,80.4,148.6,80.7,148.2z M83.2,149.3c-0.4,0.2-0.7,0.6-0.9,1.2l-1.2,3.8
		l3.8,1.2l1.2-3.9c0.2-0.5,0.1-1-0.1-1.5c-0.3-0.4-0.7-0.8-1.2-0.9C84.1,149,83.6,149.1,83.2,149.3z M89.4,151.2
		c-0.5,0.2-0.8,0.6-0.9,1.1l-1.2,3.9l3.8,1.1l1.2-3.8c0.2-0.6,0.1-1.1-0.1-1.5c-0.2-0.4-0.6-0.7-1.2-0.9
		C90.4,150.9,89.9,151,89.4,151.2z"/>
	<path class="st0" d="M83.9,133.8l-2.2,6.9l3.8,1.2l2.2-6.9l2.4,0.7l-2.2,6.9l3.8,1.2l2.2-6.8l2.4,0.7l-2.9,9.3l-14.7-4.6l2.9-9.3
		L83.9,133.8z"/>
	<path class="st0" d="M84.8,121l-2.4,6.8l3.7,1.3l2.4-6.8l2.4,0.8l-2.4,6.8l3.7,1.3l2.4-6.8l2.4,0.8l-3.2,9.2l-14.5-5.1l3.2-9.2
		L84.8,121z"/>
	<path class="st0" d="M94.2,121.8L80,115.9l2.4-5.8c0.3-0.7,0.7-1.3,1.2-1.8c0.5-0.5,1-0.9,1.7-1.1s1.3-0.4,2-0.4
		c0.7,0,1.4,0.1,2.1,0.4c1,0.4,1.7,1,2.3,1.7c0.5,0.7,0.9,1.5,1,2.5l6.7-1.6l-1.2,2.9l-5.8,1.3c0,0,0,0.1,0,0.1c0,0,0,0,0,0.1
		l-1.5,3.5l4.5,1.9L94.2,121.8z M88.1,115l-0.5-2.4l2.5-0.6c0-0.5-0.2-1-0.5-1.4c-0.3-0.4-0.7-0.8-1.3-1c-0.4-0.2-0.7-0.2-1.1-0.2
		c-0.4,0-0.7,0.1-1,0.2c-0.3,0.1-0.6,0.3-0.9,0.6c-0.3,0.3-0.5,0.6-0.6,1l-1.5,3.5l5.1,2.1l0.8-2L88.1,115z"/>
	<path class="st0" d="M85.1,102.2c-0.4-0.5-0.6-1-0.7-1.5c-0.1-0.6-0.1-1.1-0.1-1.7s0.3-1.2,0.6-1.8c0.6-1.1,1.3-1.9,2.3-2.4
		c1-0.5,2.1-0.6,3.3-0.3l-0.2,2.5c-0.8-0.2-1.5-0.1-2,0.1c-0.5,0.3-0.9,0.7-1.2,1.3c-0.4,0.7-0.5,1.3-0.3,1.8
		c0.1,0.5,0.4,0.9,0.9,1.1c0.3,0.2,0.6,0.2,0.8,0.2c0.3,0,0.5-0.1,0.8-0.3s0.5-0.4,0.8-0.6c0.3-0.3,0.6-0.5,0.9-0.8
		c0.4-0.4,0.9-0.8,1.3-1.1c0.4-0.3,0.9-0.6,1.4-0.8s1-0.3,1.5-0.2c0.5,0,1.1,0.2,1.7,0.5c0.6,0.3,1.2,0.7,1.5,1.2
		c0.4,0.5,0.6,1,0.7,1.5s0.1,1.1,0,1.7s-0.3,1.2-0.6,1.8c-0.2,0.5-0.5,0.9-0.9,1.3c-0.4,0.4-0.8,0.7-1.2,1c-0.5,0.3-1,0.4-1.6,0.5
		s-1.2,0-1.9-0.1l0.1-2.5c1.6,0.4,2.7-0.1,3.3-1.4c0.3-0.6,0.4-1.2,0.3-1.7c-0.1-0.5-0.4-0.9-0.9-1.2c-0.3-0.2-0.6-0.2-0.9-0.2
		c-0.3,0-0.6,0.1-0.8,0.3c-0.3,0.1-0.5,0.3-0.8,0.6c-0.3,0.2-0.5,0.5-0.8,0.8c-0.4,0.4-0.8,0.7-1.2,1.1c-0.4,0.4-0.9,0.7-1.4,0.9
		c-0.5,0.2-1,0.3-1.6,0.3c-0.6,0-1.2-0.2-1.8-0.5C85.9,103,85.4,102.6,85.1,102.2z"/>
	<path class="st0" d="M97,91.3l-1.3,2.1l-8.8-5.4l1.3-2.1L97,91.3z M98.7,92.2c0.5-0.1,1,0,1.4,0.2c0.5,0.3,0.8,0.7,0.9,1.2
		c0.1,0.5,0,1-0.3,1.5c-0.3,0.5-0.7,0.7-1.2,0.9s-1,0-1.4-0.2c-0.2-0.1-0.4-0.3-0.6-0.5c-0.2-0.2-0.3-0.4-0.3-0.7
		c-0.1-0.2-0.1-0.5,0-0.7s0.1-0.5,0.3-0.7C97.8,92.6,98.2,92.3,98.7,92.2z"/>
	<path class="st0" d="M100.9,61.6l3,22.1l-2.3,0.3l-3-22.1L100.9,61.6z"/>
	<path class="st0" d="M112.2,45.6c0.6-0.1,1.1-0.2,1.7-0.1s1,0.3,1.5,0.6c0.5,0.3,0.9,0.7,1.3,1.2c0.4,0.6,0.7,1.3,0.7,1.9
		s-0.1,1.3-0.4,1.9c0.7-0.1,1.3,0,1.9,0.3c0.6,0.3,1.1,0.7,1.6,1.4c0.4,0.5,0.6,1.1,0.7,1.6c0.1,0.6,0.1,1.1,0,1.6
		c-0.1,0.5-0.3,1-0.6,1.5s-0.8,0.9-1.3,1.3l-5.3,3.7l-8.8-12.6l5.3-3.7C111.1,46,111.7,45.8,112.2,45.6z M113.5,48.1
		c-0.5-0.1-1,0-1.5,0.4l-3.3,2.3l2.3,3.2l3.3-2.3c0.5-0.3,0.7-0.7,0.8-1.2c0.1-0.5-0.1-1-0.4-1.5C114.4,48.4,113.9,48.2,113.5,48.1z
		 M117.2,53.4c-0.5-0.1-1,0-1.4,0.3l-3.3,2.3l2.3,3.2l3.2-2.2c0.5-0.3,0.8-0.8,0.9-1.2s0-1-0.3-1.5
		C118.1,53.8,117.7,53.5,117.2,53.4z"/>
	<path class="st0" d="M122.4,52.2l-7-13.7l5.6-2.9c0.7-0.3,1.4-0.6,2.1-0.6c0.7-0.1,1.4,0,2,0.2c0.6,0.2,1.2,0.5,1.7,1s1,1,1.3,1.7
		c0.5,0.9,0.7,1.8,0.6,2.7s-0.3,1.7-0.8,2.5l6.1,3.1l-2.8,1.4L126,45c0,0-0.1,0-0.1,0c0,0,0,0-0.1,0l-3.4,1.7l2.2,4.3L122.4,52.2z
		 M122.2,43l1.2-2.2l2.2,1.1c0.3-0.4,0.5-0.9,0.6-1.4c0-0.5-0.1-1-0.3-1.6c-0.2-0.4-0.4-0.6-0.7-0.9s-0.6-0.4-0.9-0.5
		c-0.3-0.1-0.7-0.1-1.1-0.1s-0.7,0.2-1.1,0.3l-3.4,1.7l2.5,4.9l1.9-1L122.2,43z"/>
	<path class="st0" d="M138.3,27.4l-6.8,2.5l1.3,3.7l6.8-2.5l0.9,2.3l-6.8,2.5l1.4,3.7l6.7-2.5l0.9,2.3l-9.1,3.3l-5.3-14.5l9.1-3.3
		L138.3,27.4z"/>
	<path class="st0" d="M139.1,18.1l2.7-0.4l6,10.7l3.3-12l2.4-0.3l6.4,10.6l2.9-11.9l2.7-0.4l-3.9,16.1l-2.1,0.3l-6.6-11.1l-3.5,12.4
		l-2.1,0.3L139.1,18.1z"/>
	<path class="st0" d="M179,13.8l-7.2-0.8l-0.5,3.9l7.2,0.8l-0.3,2.5l-7.2-0.8l-0.4,3.9l7.1,0.8l-0.3,2.5l-9.6-1.1l1.7-15.3l9.6,1.1
		L179,13.8z"/>
	<path class="st0" d="M180.1,23.1l4.1-14.8l6.1,1.7c0.7,0.2,1.4,0.5,2,1c0.6,0.4,1,0.9,1.3,1.5c0.3,0.6,0.5,1.2,0.6,1.9
		c0.1,0.7,0,1.4-0.2,2.1c-0.3,1-0.7,1.8-1.4,2.4c-0.7,0.6-1.4,1.1-2.3,1.3l2.4,6.4l-3-0.8l-2.1-5.6c0,0-0.1,0-0.1,0c0,0,0,0-0.1,0
		l-3.7-1l-1.3,4.7L180.1,23.1z M186.2,16.2l2.4-0.8l0.9,2.4c0.5-0.1,1-0.3,1.3-0.6s0.7-0.8,0.8-1.4c0.1-0.4,0.1-0.8,0.1-1.1
		c0-0.4-0.2-0.7-0.3-1c-0.2-0.3-0.4-0.6-0.7-0.8c-0.3-0.2-0.6-0.4-1-0.5l-3.7-1l-1.5,5.3l2.1,0.6L186.2,16.2z"/>
	<path class="st0" d="M198.8,11.8c0.4-0.4,0.9-0.7,1.5-0.9s1.1-0.3,1.7-0.2c0.6,0,1.2,0.2,1.9,0.4c1.2,0.5,2,1.2,2.6,2.1
		c0.6,0.9,0.8,2,0.6,3.3l-2.5,0c0.1-0.8,0-1.5-0.3-2c-0.3-0.5-0.8-0.9-1.4-1.1c-0.7-0.3-1.3-0.3-1.8-0.1c-0.5,0.2-0.8,0.5-1,1
		c-0.1,0.3-0.2,0.6-0.1,0.9c0.1,0.3,0.2,0.5,0.4,0.8c0.2,0.3,0.4,0.5,0.7,0.8c0.3,0.3,0.6,0.5,0.9,0.8c0.5,0.4,0.9,0.8,1.3,1.2
		c0.4,0.4,0.7,0.8,0.9,1.3c0.2,0.5,0.4,0.9,0.4,1.5c0,0.5-0.1,1.1-0.3,1.8c-0.3,0.7-0.6,1.2-1.1,1.6c-0.4,0.4-0.9,0.7-1.5,0.9
		c-0.5,0.2-1.1,0.3-1.7,0.2c-0.6,0-1.2-0.2-1.8-0.4c-0.5-0.2-1-0.4-1.4-0.8s-0.8-0.7-1.1-1.1c-0.3-0.4-0.5-1-0.7-1.5
		s-0.2-1.2-0.1-1.9l2.5-0.2c-0.3,1.6,0.3,2.7,1.7,3.2c0.6,0.3,1.2,0.3,1.7,0.2c0.5-0.2,0.8-0.5,1.1-1c0.1-0.3,0.2-0.6,0.1-0.9
		c0-0.3-0.2-0.5-0.3-0.8c-0.2-0.2-0.4-0.5-0.7-0.7s-0.6-0.5-0.8-0.7c-0.4-0.3-0.8-0.7-1.2-1.1c-0.4-0.4-0.7-0.8-1-1.3
		c-0.3-0.5-0.4-1-0.5-1.6c-0.1-0.6,0-1.2,0.3-1.9C198,12.7,198.3,12.2,198.8,11.8z"/>
	<path class="st0" d="M216.6,16.2c0.8-0.7,1.6-1.1,2.6-1.4c0.9-0.3,1.9-0.4,2.9-0.3c1,0.1,2,0.4,3,0.9c0.9,0.5,1.7,1.1,2.4,1.9
		s1.2,1.6,1.5,2.5l-2.1,1.6c-0.2-0.8-0.6-1.5-1.1-2.2c-0.5-0.7-1.1-1.2-1.9-1.6c-0.6-0.3-1.3-0.5-2-0.6s-1.3,0-1.9,0.2
		c-0.6,0.2-1.2,0.5-1.7,1c-0.5,0.4-1,1-1.3,1.7c-0.4,0.7-0.6,1.4-0.6,2.1c-0.1,0.7,0,1.3,0.2,1.9c0.2,0.6,0.5,1.2,1,1.7
		c0.4,0.5,1,0.9,1.6,1.3c0.4,0.2,0.8,0.4,1.3,0.5c0.5,0.1,1,0.2,1.6,0.2l-0.7,2.4c-0.7-0.1-1.3-0.2-1.8-0.3
		c-0.5-0.1-1.1-0.3-1.6-0.6c-0.9-0.5-1.7-1.1-2.4-1.9s-1.1-1.6-1.4-2.5c-0.3-0.9-0.4-1.9-0.3-2.9c0.1-1,0.4-2,0.9-3
		C215.2,17.7,215.8,16.9,216.6,16.2z"/>
	<path class="st0" d="M230.3,18.9c0.8-0.6,1.7-1.1,2.6-1.4s1.9-0.4,2.9-0.3s2,0.4,3,0.9c1,0.5,1.8,1.2,2.4,2
		c0.6,0.8,1.1,1.6,1.4,2.6c0.3,0.9,0.4,1.9,0.2,2.9c-0.1,1-0.4,2-1,3c-0.5,1-1.2,1.8-2,2.4c-0.8,0.6-1.6,1.1-2.6,1.4
		c-0.9,0.3-1.9,0.4-2.9,0.3c-1-0.1-2-0.4-3-1c-1-0.5-1.8-1.2-2.4-2c-0.6-0.8-1.1-1.7-1.4-2.6s-0.4-1.9-0.3-2.9c0.1-1,0.4-2,1-3
		C228.8,20.4,229.5,19.6,230.3,18.9z M240.3,25.5c0.1-0.7,0-1.3-0.2-2c-0.2-0.6-0.5-1.2-0.9-1.7c-0.4-0.5-1-1-1.6-1.3
		c-0.7-0.4-1.3-0.6-2-0.6c-0.7-0.1-1.3,0-2,0.2c-0.6,0.2-1.2,0.5-1.7,0.9c-0.5,0.4-1,1-1.3,1.6c-0.4,0.7-0.6,1.3-0.6,2
		c-0.1,0.7,0,1.3,0.2,2c0.2,0.6,0.5,1.2,0.9,1.7c0.4,0.5,1,1,1.6,1.3c0.7,0.4,1.3,0.6,2,0.6s1.3,0,2-0.2c0.6-0.2,1.2-0.5,1.7-0.9
		c0.5-0.4,1-1,1.3-1.6C240,26.8,240.2,26.2,240.3,25.5z"/>
	<path class="st0" d="M254,39l-2.1-1.1l-2.8-14.2l-5.3,9.9l-2.2-1.2l7.2-13.6l2.1,1.1l2.8,14.2l5.3-9.9l2.2,1.2L254,39z"/>
	<path class="st0" d="M272.5,29.5l-6.5-3.2l-1.8,3.5l6.5,3.2l-1.1,2.3l-6.5-3.2l-2.8,5.8l-2.2-1.1l6.8-13.8l8.7,4.3L272.5,29.5z"/>
	<path class="st0" d="M284.5,31.3l-6.6-2.9l-1.6,3.6l6.6,2.9l-1,2.3l-6.6-2.9l-1.6,3.6l6.6,2.9l-1,2.3l-8.9-3.9l6.2-14.1l8.9,3.9
		L284.5,31.3z"/>
	<path class="st0" d="M283.4,40.8l5.4-14.4l5.9,2.2c0.7,0.3,1.3,0.7,1.9,1.1c0.5,0.5,0.9,1,1.2,1.6c0.3,0.6,0.4,1.2,0.4,1.9
		c0,0.7-0.1,1.4-0.4,2.1c-0.4,1-0.9,1.7-1.6,2.3c-0.7,0.6-1.5,0.9-2.4,1.1l1.8,6.6l-2.9-1.1l-1.5-5.8c0,0-0.1,0-0.1,0c0,0,0,0-0.1,0
		l-3.6-1.3l-1.7,4.6L283.4,40.8z M290.1,34.5l2.4-0.6l0.7,2.4c0.5,0,1-0.2,1.4-0.5s0.7-0.7,0.9-1.3c0.1-0.4,0.2-0.7,0.2-1.1
		c0-0.4-0.1-0.7-0.2-1s-0.4-0.6-0.6-0.8s-0.6-0.4-1-0.6l-3.6-1.3l-1.9,5.2l2,0.8L290.1,34.5z"/>
	<path class="st0" d="M311.8,33.3l-6.9-2.1l-1.2,3.8l6.9,2.1l-0.7,2.4l-6.9-2.1l-1.1,3.8l6.9,2.1l-0.7,2.4l-9.3-2.8l4.5-14.7
		l9.3,2.8L311.8,33.3z"/>
	<path class="st0" d="M325.4,45.9l-2.3-0.5l-6.4-13l-2.5,10.9l-2.4-0.6l3.5-15l2.3,0.5l6.4,13l2.5-10.9l2.4,0.6L325.4,45.9z"/>
	<path class="st0" d="M330.8,31.7c0.5-0.9,1.2-1.6,2-2.2s1.7-1,2.7-1.2c1-0.2,2-0.3,3.1-0.1c1.1,0.2,2,0.5,2.9,1
		c0.9,0.5,1.6,1.2,2.2,1.9l-1.5,2.1c-0.5-0.7-1-1.2-1.7-1.7c-0.7-0.5-1.4-0.8-2.3-0.9c-0.7-0.1-1.4-0.1-2.1,0.1s-1.2,0.4-1.7,0.8
		c-0.5,0.4-1,0.9-1.3,1.5c-0.4,0.6-0.6,1.3-0.7,2c-0.1,0.8-0.1,1.5,0.1,2.2c0.2,0.7,0.4,1.3,0.8,1.8c0.4,0.5,0.9,0.9,1.4,1.3
		c0.6,0.3,1.2,0.6,1.9,0.7c0.4,0.1,0.9,0.1,1.4,0.1c0.5,0,1-0.1,1.6-0.3l0.1,2.5c-0.6,0.1-1.2,0.2-1.8,0.3c-0.5,0-1.1,0-1.7-0.1
		c-1-0.2-2-0.5-2.9-1c-0.9-0.5-1.6-1.2-2.1-2s-1-1.7-1.2-2.7c-0.2-1-0.3-2-0.1-3.1C329.9,33.5,330.2,32.6,330.8,31.7z"/>
	<path class="st0" d="M354.8,29l-7.2-0.7l-0.4,3.9l7.2,0.7l-0.2,2.5l-7.2-0.7l-0.4,3.9l7.1,0.7l-0.2,2.5l-9.7-0.9l1.4-15.3l9.7,0.9
		L354.8,29z"/>
</g>
</svg>
