<?xml version="1.0" encoding="utf-8"?>
<!-- Generator: Adobe Illustrator 21.0.0, SVG Export Plug-In . SVG Version: 6.00 Build 0)  -->
<svg version="1.1" id="Layer_1" xmlns="http://www.w3.org/2000/svg" xmlns:xlink="http://www.w3.org/1999/xlink" x="0px" y="0px"
	 viewBox="0 0 471 155" style="enable-background:new 0 0 471 155;" xml:space="preserve">
<style type="text/css">
	.st0{fill:#00B3F0;}
</style>
<g>
	<path class="st0" d="M5.8,69.6l15.1-3.1l1.3,6.2c0.2,0.8,0.2,1.5,0,2.2c-0.1,0.7-0.4,1.3-0.7,1.9c-0.4,0.6-0.8,1-1.4,1.4
		c-0.6,0.4-1.2,0.7-2,0.8c-1,0.2-1.9,0.2-2.8-0.1S13.6,78,13,77.3l-4.6,5l-0.6-3l4.1-4.4c0,0,0-0.1,0-0.1s0,0,0-0.1L11,71.1l-4.8,1
		L5.8,69.6z M14.7,71.8l1.8,1.8l-1.7,1.9c0.3,0.4,0.7,0.7,1.2,0.9s1,0.2,1.6,0.1c0.4-0.1,0.7-0.2,1-0.4s0.5-0.4,0.7-0.7
		c0.2-0.3,0.3-0.6,0.4-1c0.1-0.4,0.1-0.8,0-1.2l-0.8-3.7l-5.4,1.1l0.4,2.1L14.7,71.8z"/>
	<path class="st0" d="M22.6,79.1c1-0.1,2-0.1,2.9,0.2c0.9,0.3,1.8,0.7,2.6,1.3c0.8,0.6,1.5,1.4,2,2.4c0.5,1,0.9,1.9,1,3
		c0.1,1,0.1,2-0.2,2.9s-0.7,1.8-1.3,2.6c-0.6,0.8-1.4,1.5-2.4,2c-1,0.5-1.9,0.9-2.9,1c-1,0.1-2,0.1-2.9-0.2
		c-0.9-0.2-1.8-0.7-2.6-1.3c-0.8-0.6-1.5-1.4-2-2.4c-0.5-0.9-0.9-1.9-1-2.9s-0.1-2,0.2-2.9s0.7-1.8,1.3-2.6c0.6-0.8,1.4-1.5,2.4-2
		C20.6,79.5,21.6,79.2,22.6,79.1z M27.7,89.9c0.4-0.5,0.7-1.1,0.9-1.8c0.2-0.6,0.2-1.3,0.1-2c-0.1-0.7-0.3-1.3-0.7-2
		c-0.4-0.7-0.8-1.2-1.4-1.6c-0.5-0.4-1.1-0.7-1.8-0.9c-0.6-0.2-1.3-0.2-2-0.1c-0.7,0.1-1.3,0.3-2,0.7c-0.7,0.4-1.2,0.8-1.6,1.4
		c-0.4,0.5-0.7,1.1-0.9,1.8c-0.2,0.6-0.2,1.3-0.1,2c0.1,0.7,0.3,1.3,0.7,2c0.4,0.6,0.8,1.2,1.4,1.6s1.1,0.7,1.8,0.9
		c0.6,0.2,1.3,0.2,2,0.1s1.3-0.3,2-0.7C26.8,90.9,27.3,90.4,27.7,89.9z"/>
	<path class="st0" d="M34.8,90.1c0.9-0.5,1.8-0.8,2.8-0.8c1-0.1,1.9,0,2.9,0.3c1,0.3,1.9,0.8,2.7,1.5c0.8,0.7,1.5,1.5,1.9,2.3
		c0.5,0.9,0.8,1.8,0.9,2.8l-2.4,1.1c-0.1-0.8-0.3-1.6-0.6-2.3c-0.3-0.7-0.9-1.4-1.6-2c-0.6-0.5-1.2-0.8-1.8-1
		c-0.6-0.2-1.3-0.3-1.9-0.2s-1.3,0.3-1.9,0.6c-0.6,0.3-1.2,0.8-1.7,1.4c-0.5,0.6-0.8,1.2-1,1.9c-0.2,0.7-0.3,1.3-0.2,1.9
		c0.1,0.6,0.3,1.3,0.6,1.8c0.3,0.6,0.8,1.1,1.3,1.6c0.3,0.3,0.7,0.5,1.2,0.8c0.4,0.2,0.9,0.4,1.6,0.6l-1.2,2.2
		c-0.6-0.2-1.2-0.4-1.7-0.7s-1-0.6-1.4-0.9c-0.8-0.7-1.5-1.5-1.9-2.4s-0.7-1.8-0.8-2.8c-0.1-1,0-1.9,0.3-2.9c0.3-1,0.8-1.9,1.5-2.7
		S33.9,90.5,34.8,90.1z"/>
	<path class="st0" d="M47.3,101.5l-2,4.3l-2.3-1.1l6.5-13.9l2.3,1.1l-3,6.4l9.4-3.4l3.2,1.5l-8.9,3.3l2.4,10.7L52,109l-1.9-8.5
		L47.3,101.5z"/>
	<path class="st0" d="M68.2,95.5c0.4-0.5,0.8-0.8,1.3-1.1s1.1-0.4,1.7-0.5c0.6-0.1,1.2,0,1.9,0.1c1.2,0.3,2.2,0.8,2.9,1.7
		c0.7,0.8,1.1,1.9,1.1,3.1l-2.4,0.4c0-0.8-0.2-1.5-0.6-1.9c-0.4-0.4-0.9-0.7-1.6-0.9c-0.7-0.2-1.3-0.1-1.8,0.1s-0.7,0.6-0.8,1.1
		c-0.1,0.3-0.1,0.6,0,0.9c0.1,0.2,0.3,0.5,0.5,0.7c0.2,0.2,0.5,0.4,0.8,0.6c0.3,0.2,0.7,0.4,1,0.6c0.5,0.3,1,0.6,1.4,1
		s0.8,0.7,1.1,1.1c0.3,0.4,0.5,0.9,0.6,1.4c0.1,0.5,0.1,1.1-0.1,1.8c-0.2,0.7-0.4,1.3-0.8,1.8c-0.4,0.5-0.8,0.8-1.3,1.1
		c-0.5,0.3-1.1,0.4-1.7,0.5c-0.6,0.1-1.2,0-1.9-0.1c-0.5-0.1-1-0.3-1.5-0.5c-0.5-0.2-0.9-0.6-1.3-1c-0.4-0.4-0.7-0.9-0.9-1.4
		s-0.4-1.2-0.4-1.9l2.4-0.5c0,1.6,0.7,2.6,2.2,2.9c0.7,0.2,1.3,0.1,1.7-0.1s0.7-0.6,0.9-1.2c0.1-0.3,0.1-0.6,0-0.9
		c-0.1-0.3-0.2-0.5-0.5-0.7c-0.2-0.2-0.5-0.4-0.8-0.6c-0.3-0.2-0.6-0.4-0.9-0.6c-0.5-0.3-0.9-0.5-1.4-0.9c-0.5-0.3-0.9-0.7-1.2-1.1
		c-0.3-0.4-0.6-0.9-0.7-1.5s-0.1-1.2,0-1.9C67.6,96.5,67.9,96,68.2,95.5z"/>
	<path class="st0" d="M84.4,108.2l-2.5-0.3l1.6-12.8l-5.8-0.7l0.3-2.5l14,1.7l-0.3,2.5l-5.8-0.7L84.4,108.2z"/>
	<path class="st0" d="M92.7,102.9l-1.3,2.5l-2.8-0.1l7.7-15.1l2.5,0.1l6.6,15.7l-2.7-0.1l-1.1-2.6L92.7,102.9z M100.5,100.6l-3-7.1
		l-3.5,6.9L100.5,100.6z"/>
	<path class="st0" d="M105.7,91.1c0.4-0.9,0.9-1.8,1.6-2.5c0.7-0.7,1.5-1.2,2.4-1.6c0.9-0.4,1.9-0.6,3.1-0.6c1.1,0,2.1,0.2,3,0.5
		c0.9,0.4,1.8,0.9,2.5,1.6l-1.2,2.4c-0.6-0.6-1.2-1.1-1.9-1.4c-0.7-0.4-1.5-0.5-2.5-0.5c-0.7,0-1.4,0.1-2,0.4
		c-0.6,0.3-1.2,0.6-1.6,1.1c-0.5,0.5-0.8,1-1.1,1.6c-0.2,0.6-0.4,1.3-0.4,2.1c0,0.8,0.1,1.5,0.4,2.1c0.3,0.6,0.6,1.2,1.1,1.6
		c0.5,0.5,1,0.8,1.6,1.1c0.6,0.2,1.3,0.4,2.1,0.4c0.2,0,0.4,0,0.5-0.1c0.2,0,0.3-0.1,0.5-0.1l0-3.3l-3.2,0l0-2.5l5.7-0.1l0.1,7.8
		c-0.6,0.2-1.2,0.4-1.7,0.5c-0.6,0.1-1.2,0.2-1.8,0.2c-1.1,0-2.1-0.2-3-0.5c-0.9-0.4-1.8-0.9-2.4-1.6c-0.7-0.7-1.2-1.5-1.7-2.4
		c-0.4-0.9-0.6-2-0.6-3.1C105.1,93.1,105.3,92.1,105.7,91.1z"/>
	<path class="st0" d="M129.6,85.4l-7.2,0l0,3.9l7.2,0l0,2.5l-7.2,0l0,3.9l7.2,0l0,2.5l-9.7,0l0.1-15.4l9.7,0L129.6,85.4z"/>
	<path class="st0" d="M154.6,78.9l-16,15.6l-1.6-1.7l16-15.6L154.6,78.9z"/>
	<path class="st0" d="M173.7,77.3c0.8,0.6,1.4,1.4,1.9,2.2c0.5,0.8,0.8,1.8,0.9,2.8c0.1,1,0,2.1-0.3,3.1c-0.3,1.1-0.8,2-1.4,2.8
		c-0.6,0.8-1.3,1.5-2.2,1.9c-0.8,0.5-1.8,0.8-2.8,0.9s-2,0-3.1-0.3l-5.2-1.4l4.1-14.8l5.2,1.4C172,76.3,172.9,76.7,173.7,77.3z
		 M174,82.7c-0.1-0.7-0.3-1.3-0.6-1.9s-0.7-1.1-1.3-1.5c-0.5-0.4-1.2-0.7-1.9-0.9l-2.8-0.8l-2.7,10l2.8,0.8c0.7,0.2,1.4,0.2,2.1,0.2
		c0.7-0.1,1.3-0.3,1.8-0.6c0.6-0.3,1-0.8,1.4-1.3c0.4-0.5,0.7-1.2,0.9-1.9C174,84,174.1,83.3,174,82.7z"/>
	<path class="st0" d="M190.9,82.2l-6.6-3l-1.6,3.6l6.6,3l-1,2.3l-6.6-3l-1.6,3.6l6.5,3l-1,2.3l-8.8-4l6.3-14l8.8,4L190.9,82.2z"/>
	<path class="st0" d="M192.3,91.2l5.9,4.3l-1.5,2l-7.9-5.8l9.1-12.4l2,1.5L192.3,91.2z"/>
	<path class="st0" d="M200.7,98.6l-1.8-1.7l10.5-11.3l1.8,1.7L200.7,98.6z"/>
	<path class="st0" d="M212.2,90.9c1-0.4,1.9-0.5,2.9-0.5c1,0,1.9,0.2,2.8,0.7c0.9,0.4,1.8,1,2.5,1.8c0.7,0.8,1.3,1.6,1.7,2.6
		c0.4,0.9,0.6,1.9,0.6,2.9l-2.5,0.8c0-0.8-0.1-1.6-0.3-2.4s-0.7-1.5-1.3-2.1c-0.5-0.5-1.1-0.9-1.7-1.2c-0.6-0.3-1.2-0.4-1.9-0.4
		s-1.3,0.1-1.9,0.3c-0.6,0.2-1.2,0.6-1.8,1.2s-1,1.1-1.3,1.7c-0.3,0.6-0.4,1.3-0.4,1.9c0,0.6,0.1,1.3,0.3,1.9
		c0.2,0.6,0.6,1.2,1.1,1.7c0.3,0.3,0.7,0.6,1.1,0.9c0.4,0.3,0.9,0.5,1.5,0.7l-1.5,2.1c-0.6-0.3-1.1-0.6-1.6-0.9
		c-0.5-0.3-0.9-0.7-1.3-1.1c-0.7-0.8-1.3-1.6-1.6-2.6c-0.4-0.9-0.5-1.9-0.5-2.9c0-1,0.2-1.9,0.6-2.9c0.4-0.9,1-1.8,1.8-2.5
		C210.4,91.8,211.3,91.2,212.2,90.9z"/>
	<path class="st0" d="M217.6,108.6l-1.7-1.9l11.4-10.4l1.7,1.9L217.6,108.6z"/>
	<path class="st0" d="M229.4,101.3c1-0.3,1.9-0.5,2.9-0.5c1,0,1.9,0.3,2.8,0.7c0.9,0.4,1.8,1,2.5,1.9c0.7,0.8,1.3,1.7,1.6,2.7
		c0.3,1,0.5,1.9,0.5,2.9c0,1-0.3,1.9-0.7,2.8c-0.4,0.9-1.1,1.7-1.9,2.5c-0.8,0.7-1.7,1.3-2.7,1.6s-1.9,0.5-2.9,0.5
		c-1,0-1.9-0.3-2.8-0.7c-0.9-0.4-1.8-1-2.5-1.9c-0.7-0.8-1.3-1.7-1.6-2.6c-0.3-1-0.5-1.9-0.5-2.9c0-1,0.3-1.9,0.7-2.8
		c0.4-0.9,1-1.8,1.9-2.5C227.6,102.2,228.5,101.7,229.4,101.3z M236.7,110.8c0.3-0.6,0.5-1.3,0.5-1.9c0-0.7-0.1-1.3-0.3-1.9
		c-0.2-0.6-0.6-1.2-1.1-1.8c-0.5-0.6-1.1-1-1.7-1.3s-1.2-0.4-1.9-0.5c-0.6,0-1.3,0.1-1.9,0.3c-0.6,0.2-1.2,0.6-1.8,1.1
		c-0.6,0.5-1,1.1-1.3,1.7c-0.3,0.6-0.4,1.2-0.5,1.9s0.1,1.3,0.3,1.9c0.2,0.6,0.6,1.2,1.1,1.8c0.5,0.5,1.1,1,1.7,1.3
		c0.6,0.3,1.3,0.5,1.9,0.5c0.6,0,1.3-0.1,1.9-0.3s1.2-0.6,1.8-1.1C236,111.9,236.5,111.4,236.7,110.8z"/>
	<path class="st0" d="M250.5,122.7c-0.7,0.7-1.5,1.3-2.4,1.6c-0.9,0.3-1.8,0.5-2.7,0.5c-0.9,0-1.8-0.2-2.6-0.6
		c-0.9-0.4-1.6-0.9-2.4-1.6c-0.7-0.7-1.2-1.5-1.6-2.4c-0.4-0.9-0.5-1.7-0.5-2.6c0-0.9,0.2-1.8,0.6-2.6c0.4-0.9,0.9-1.7,1.6-2.4
		l5.9-5.8l1.8,1.8l-5.9,5.8c-0.5,0.5-0.8,1-1.1,1.6s-0.4,1.1-0.3,1.7c0,0.6,0.1,1.1,0.4,1.7c0.2,0.6,0.6,1.1,1,1.5
		c0.5,0.5,1,0.8,1.5,1.1c0.6,0.2,1.1,0.4,1.7,0.4c0.6,0,1.1-0.1,1.7-0.3c0.6-0.2,1.1-0.6,1.6-1.1l5.9-5.8l1.8,1.8L250.5,122.7z"/>
	<path class="st0" d="M258.5,117.2c0.5-0.2,1.1-0.3,1.7-0.3c0.6,0,1.1,0.2,1.7,0.4s1.1,0.6,1.6,1.1c0.9,0.8,1.5,1.8,1.7,2.9
		c0.2,1.1,0,2.2-0.6,3.3l-2.3-0.9c0.4-0.7,0.5-1.4,0.4-1.9c-0.1-0.6-0.4-1.1-0.9-1.5c-0.6-0.5-1.1-0.8-1.6-0.8
		c-0.5,0-0.9,0.2-1.3,0.6c-0.2,0.2-0.4,0.5-0.4,0.8c0,0.3,0,0.5,0.1,0.8c0.1,0.3,0.2,0.6,0.4,1c0.2,0.3,0.4,0.7,0.6,1.1
		c0.3,0.5,0.5,1,0.8,1.6c0.2,0.5,0.4,1,0.4,1.5c0.1,0.5,0,1-0.2,1.5s-0.5,1-0.9,1.5c-0.5,0.5-1,0.9-1.6,1.2
		c-0.5,0.2-1.1,0.3-1.7,0.3c-0.6,0-1.1-0.2-1.7-0.4c-0.5-0.2-1.1-0.6-1.6-1c-0.4-0.4-0.7-0.8-1-1.2s-0.5-0.9-0.6-1.5
		c-0.1-0.5-0.2-1.1-0.1-1.7c0.1-0.6,0.3-1.2,0.6-1.8l2.4,0.7c-0.8,1.4-0.6,2.6,0.5,3.6c0.5,0.5,1,0.7,1.5,0.8s1-0.2,1.4-0.6
		c0.2-0.3,0.4-0.5,0.4-0.8c0.1-0.3,0-0.6,0-0.8c-0.1-0.3-0.2-0.6-0.4-0.9c-0.2-0.3-0.4-0.6-0.5-1c-0.3-0.4-0.5-0.9-0.8-1.4
		s-0.4-1-0.5-1.6s-0.1-1.1,0.1-1.6c0.1-0.6,0.5-1.1,1-1.6C257.4,117.8,257.9,117.4,258.5,117.2z"/>
	<path class="st0" d="M282.5,130.4l-5.8-4.2l-2.3,3.2l5.8,4.2l-1.5,2l-5.8-4.2l-3.8,5.3l-2-1.5l9-12.5l7.9,5.7L282.5,130.4z"/>
	<path class="st0" d="M284.7,130c0.8-0.6,1.7-1.1,2.6-1.4s1.9-0.4,2.9-0.3c1,0.1,2,0.4,3,0.9c1,0.5,1.8,1.2,2.4,2
		c0.6,0.8,1.1,1.6,1.4,2.6s0.4,1.9,0.2,2.9c-0.1,1-0.4,2-0.9,3c-0.5,1-1.2,1.8-2,2.4s-1.6,1.1-2.6,1.4s-1.9,0.4-2.9,0.3
		c-1-0.1-2-0.4-3-1c-1-0.5-1.8-1.2-2.4-2c-0.6-0.8-1.1-1.7-1.4-2.6s-0.4-1.9-0.3-2.9c0.1-1,0.4-2,0.9-3
		C283.2,131.4,283.9,130.6,284.7,130z M294.7,136.5c0.1-0.7,0-1.3-0.2-2s-0.5-1.2-0.9-1.7c-0.4-0.5-1-1-1.6-1.3
		c-0.7-0.4-1.3-0.6-2-0.6c-0.7-0.1-1.3,0-2,0.2c-0.6,0.2-1.2,0.5-1.7,0.9c-0.5,0.4-1,1-1.3,1.6c-0.4,0.7-0.6,1.3-0.6,2
		c-0.1,0.7,0,1.3,0.2,2s0.5,1.2,0.9,1.7c0.4,0.5,1,1,1.7,1.3c0.7,0.4,1.3,0.6,2,0.6s1.3,0,2-0.2c0.6-0.2,1.2-0.5,1.7-0.9
		c0.5-0.4,1-1,1.3-1.7C294.4,137.9,294.6,137.2,294.7,136.5z"/>
	<path class="st0" d="M301.1,133.5c0.7-0.8,1.4-1.4,2.3-1.8c0.9-0.4,1.8-0.7,2.8-0.8c1-0.1,2,0,3.1,0.4c1.1,0.3,2,0.8,2.8,1.5
		c0.8,0.6,1.4,1.4,1.8,2.3c0.4,0.9,0.7,1.8,0.8,2.8c0.1,1,0,2-0.4,3.1c-0.3,1-0.8,2-1.5,2.7c-0.7,0.8-1.4,1.4-2.3,1.8
		s-1.8,0.7-2.8,0.8c-1,0.1-2.1,0-3.1-0.4c-1-0.3-2-0.8-2.7-1.5c-0.8-0.7-1.4-1.4-1.8-2.3s-0.7-1.8-0.8-2.8c-0.1-1,0-2,0.4-3.1
		C300,135.2,300.5,134.3,301.1,133.5z M312.2,138c-0.1-0.7-0.2-1.3-0.5-1.9c-0.3-0.6-0.7-1.1-1.2-1.5c-0.5-0.4-1.2-0.8-1.9-1
		c-0.7-0.2-1.4-0.3-2.1-0.2s-1.3,0.2-1.9,0.5s-1.1,0.7-1.5,1.2c-0.4,0.5-0.8,1.2-1,1.9c-0.2,0.7-0.3,1.4-0.2,2.1
		c0.1,0.7,0.2,1.3,0.5,1.9s0.7,1.1,1.2,1.5c0.5,0.4,1.1,0.8,1.9,1c0.7,0.2,1.4,0.3,2.1,0.2c0.7-0.1,1.3-0.2,1.9-0.5s1.1-0.7,1.5-1.2
		c0.4-0.5,0.8-1.1,1-1.9C312.2,139.4,312.3,138.7,312.2,138z"/>
	<path class="st0" d="M326.4,130.4c0.9,0.4,1.7,1,2.3,1.8c0.6,0.7,1.1,1.6,1.4,2.5c0.3,1,0.5,2,0.4,3.1c-0.1,1.1-0.3,2.1-0.8,3
		c-0.4,0.9-1,1.7-1.7,2.3s-1.6,1.1-2.5,1.5c-1,0.3-2,0.5-3.1,0.4l-5.4-0.3l1-15.4l5.4,0.3C324.5,129.7,325.5,129.9,326.4,130.4z
		 M327.8,135.5c-0.2-0.7-0.5-1.2-1-1.7c-0.4-0.5-0.9-0.9-1.5-1.2s-1.3-0.5-2-0.5l-2.9-0.2l-0.6,10.4l2.9,0.2c0.7,0,1.4,0,2.1-0.3
		c0.6-0.2,1.2-0.5,1.7-1s0.9-1,1.2-1.6c0.3-0.6,0.5-1.3,0.5-2.1C328.1,136.8,328,136.1,327.8,135.5z"/>
	<path class="st0" d="M351,118.6l-8.7,20.6l-2.1-1l8.7-20.6L351,118.6z"/>
	<path class="st0" d="M362,117.7l2.4,4.1l-2.2,1.3l-7.7-13.3l2.2-1.3l3.5,6.2l2.6-9.7l3.1-1.8l-2.4,9.1l10.1,4.2l-2.8,1.6l-8-3.3
		L362,117.7z"/>
	<path class="st0" d="M375.9,111.8l-2.1,1.4l-8.4-12.9l2.1-1.4L375.9,111.8z"/>
	<path class="st0" d="M375.4,90.6c1-0.2,2-0.3,2.9-0.1c0.9,0.2,1.9,0.5,2.7,1.1s1.6,1.3,2.3,2.2c0.6,0.9,1.1,1.9,1.3,2.8
		c0.2,1,0.3,2,0.1,2.9c-0.2,1-0.5,1.9-1,2.7c-0.5,0.9-1.3,1.6-2.1,2.2l-4.4,3.1L368.2,95l4.4-3.1C373.5,91.2,374.4,90.8,375.4,90.6z
		 M379.7,93.7c-0.6-0.4-1.2-0.6-1.8-0.7c-0.6-0.1-1.3-0.1-1.9,0.1c-0.7,0.2-1.3,0.4-1.9,0.9l-2.4,1.7l6,8.5l2.4-1.7
		c0.6-0.4,1.1-0.9,1.4-1.5s0.6-1.2,0.7-1.8c0.1-0.6,0.1-1.3-0.1-1.9s-0.5-1.3-0.9-1.9C380.8,94.6,380.3,94.1,379.7,93.7z"/>
	<path class="st0" d="M379.2,86.2c-0.1-0.6-0.1-1.1,0-1.7c0.1-0.6,0.4-1.1,0.7-1.6c0.4-0.5,0.8-1,1.3-1.4c1-0.7,2-1.1,3.1-1.1
		s2.1,0.4,3.1,1.2l-1.3,2.1c-0.6-0.5-1.2-0.8-1.8-0.8c-0.6,0-1.1,0.2-1.7,0.6c-0.6,0.5-1,0.9-1,1.4s0,1,0.3,1.4
		c0.2,0.3,0.4,0.4,0.7,0.5s0.5,0.1,0.8,0.1c0.3,0,0.6-0.1,1-0.2s0.8-0.2,1.2-0.4c0.6-0.2,1.1-0.3,1.7-0.5c0.5-0.1,1.1-0.2,1.6-0.1
		s1,0.2,1.5,0.4c0.5,0.3,0.9,0.7,1.3,1.2c0.4,0.6,0.7,1.2,0.8,1.7c0.1,0.6,0.1,1.1,0,1.7c-0.1,0.6-0.4,1.1-0.7,1.6
		c-0.3,0.5-0.8,0.9-1.3,1.3c-0.4,0.3-0.9,0.6-1.4,0.8c-0.5,0.2-1,0.3-1.6,0.4s-1.1,0-1.7-0.2c-0.6-0.2-1.1-0.5-1.7-1l1.1-2.2
		c1.2,1.1,2.4,1.1,3.6,0.2c0.6-0.4,0.9-0.9,1-1.4c0.1-0.5,0-1-0.3-1.4c-0.2-0.3-0.4-0.5-0.7-0.6c-0.3-0.1-0.5-0.1-0.8-0.1
		c-0.3,0-0.6,0.1-0.9,0.2c-0.3,0.1-0.7,0.2-1,0.4c-0.5,0.2-1,0.3-1.5,0.5c-0.5,0.1-1.1,0.2-1.6,0.2c-0.5,0-1.1-0.2-1.6-0.4
		c-0.5-0.2-1-0.7-1.4-1.3C379.5,87.3,379.3,86.8,379.2,86.2z"/>
	<path class="st0" d="M391.1,73.5c-0.3-1-0.3-2-0.2-2.9c0.1-1,0.5-1.9,1-2.8s1.2-1.6,2.1-2.3c0.8-0.6,1.8-1.1,2.7-1.4
		c1-0.3,1.9-0.4,2.9-0.3l0.5,2.6c-0.8-0.1-1.6-0.1-2.4,0c-0.8,0.2-1.6,0.5-2.3,1.1c-0.6,0.4-1,0.9-1.4,1.5c-0.3,0.6-0.5,1.2-0.6,1.8
		c-0.1,0.6,0,1.3,0.1,2c0.2,0.7,0.5,1.3,1,1.9c0.5,0.6,1,1.1,1.6,1.5c0.6,0.3,1.2,0.6,1.8,0.7c0.6,0.1,1.3,0,1.9-0.1
		c0.6-0.2,1.3-0.5,1.8-0.9c0.4-0.3,0.7-0.6,1-0.9c0.3-0.4,0.6-0.8,0.9-1.4l1.9,1.7c-0.3,0.6-0.7,1.1-1.1,1.5
		c-0.4,0.4-0.8,0.8-1.2,1.1c-0.8,0.6-1.8,1.1-2.7,1.3c-1,0.2-1.9,0.3-2.9,0.2c-1-0.1-1.9-0.5-2.8-1c-0.9-0.5-1.7-1.2-2.3-2.1
		C391.8,75.4,391.4,74.5,391.1,73.5z"/>
	<path class="st0" d="M399.4,62.4c-0.2-1-0.3-2-0.1-2.9c0.2-1,0.5-1.9,1-2.7c0.5-0.9,1.2-1.6,2.1-2.3c0.9-0.6,1.8-1.1,2.8-1.3
		c1-0.2,2-0.3,2.9-0.1c1,0.2,1.9,0.5,2.7,1c0.9,0.5,1.6,1.2,2.3,2.1c0.6,0.9,1.1,1.8,1.3,2.8c0.2,1,0.3,2,0.1,2.9
		c-0.1,1-0.5,1.9-1,2.7s-1.2,1.6-2.1,2.3c-0.9,0.6-1.8,1.1-2.8,1.3c-1,0.2-2,0.3-2.9,0.1c-1-0.2-1.9-0.5-2.7-1
		c-0.9-0.5-1.6-1.2-2.3-2.1C400.1,64.3,399.7,63.4,399.4,62.4z M409.6,56.1c-0.6-0.4-1.2-0.6-1.8-0.7c-0.6-0.1-1.3-0.1-2,0.1
		c-0.7,0.2-1.3,0.5-1.9,0.9c-0.6,0.5-1.1,1-1.4,1.5s-0.6,1.2-0.7,1.8c-0.1,0.6-0.1,1.3,0.1,2c0.2,0.7,0.5,1.3,0.9,1.9
		c0.5,0.6,1,1.1,1.5,1.4c0.6,0.4,1.2,0.6,1.8,0.7s1.3,0.1,2-0.1c0.7-0.2,1.3-0.5,1.9-0.9c0.6-0.4,1.1-1,1.4-1.5
		c0.4-0.6,0.6-1.2,0.7-1.8s0.1-1.3-0.1-2c-0.2-0.7-0.5-1.3-0.9-1.9C410.7,57,410.2,56.5,409.6,56.1z"/>
	<path class="st0" d="M416.6,57.8L408.1,45l5.3-3.5c0.6-0.4,1.3-0.7,2-0.8c0.7-0.1,1.4-0.1,2,0s1.3,0.4,1.8,0.8
		c0.6,0.4,1.1,0.9,1.5,1.5c0.6,0.9,0.9,1.7,0.9,2.7s-0.1,1.8-0.5,2.6l6.4,2.4l-2.6,1.7l-5.6-2.1c0,0-0.1,0-0.1,0s0,0-0.1,0l-3.2,2.1
		l2.7,4.1L416.6,57.8z M415.4,48.7l1-2.3l2.4,0.9c0.3-0.4,0.4-0.9,0.4-1.4c0-0.5-0.2-1-0.5-1.5c-0.2-0.3-0.5-0.6-0.8-0.8
		s-0.6-0.3-1-0.4c-0.3-0.1-0.7-0.1-1.1,0c-0.4,0.1-0.7,0.2-1.1,0.5l-3.2,2.1l3,4.6l1.8-1.2L415.4,48.7z"/>
	<path class="st0" d="M438.3,39.7l-2,1.2l-13.5-5.2l5.6,9.7l-2.2,1.2l-7.6-13.4l2-1.2l13.5,5.2l-5.6-9.8l2.2-1.2L438.3,39.7z"/>
	<path class="st0" d="M442,19.4l-6.5,3l1.6,3.6l6.5-3l1.1,2.3l-6.5,3l1.7,3.6l6.5-3l1.1,2.3l-8.8,4.1l-6.5-14l8.8-4.1L442,19.4z"/>
	<path class="st0" d="M447.9,26.7l-5.1-14.5l6-2.1c0.7-0.3,1.5-0.4,2.2-0.3c0.7,0,1.3,0.2,1.9,0.5c0.6,0.3,1.1,0.7,1.6,1.2
		c0.5,0.5,0.8,1.1,1.1,1.8c0.3,1,0.4,1.9,0.2,2.8s-0.6,1.7-1.2,2.4l5.6,3.9l-2.9,1l-4.9-3.4c0,0-0.1,0-0.1,0s0,0-0.1,0l-3.6,1.3
		l1.6,4.6L447.9,26.7z M448.9,17.6l1.5-2l2.1,1.4c0.4-0.4,0.6-0.8,0.7-1.3c0.1-0.5,0.1-1-0.1-1.6c-0.1-0.4-0.3-0.7-0.6-1
		c-0.2-0.3-0.5-0.5-0.8-0.6c-0.3-0.1-0.7-0.2-1-0.2c-0.4,0-0.8,0-1.1,0.2l-3.6,1.3l1.8,5.2l2-0.7L448.9,17.6z"/>
</g>
</svg>
