<?xml version="1.0" encoding="utf-8"?>
<!-- Generator: Adobe Illustrator 21.0.0, SVG Export Plug-In . SVG Version: 6.00 Build 0)  -->
<svg version="1.1" id="Layer_1" xmlns="http://www.w3.org/2000/svg" xmlns:xlink="http://www.w3.org/1999/xlink" x="0px" y="0px"
	 viewBox="0 0 138 295" style="enable-background:new 0 0 138 295;" xml:space="preserve">
<style type="text/css">
	.st0{fill:#ED1B56;}
</style>
<g>
	<path class="st0" d="M19.7,286.6l-2,1.6l-8.1-10.1l-4.5,3.7l-1.6-2l11-8.9l1.6,2l-4.5,3.6L19.7,286.6z"/>
	<path class="st0" d="M32.1,268.6l-1.7,1.8l-4.8-4.3l-5.3,5.8l4.8,4.3l-1.7,1.9l-11.4-10.4l1.7-1.8l4.8,4.3l5.3-5.8l-4.8-4.3
		l1.7-1.9L32.1,268.6z"/>
	<path class="st0" d="M26.6,247.5l-4.2,5.9l3.2,2.3l4.2-5.9l2,1.4l-4.2,5.9l3.2,2.3l4.2-5.8l2,1.4l-5.6,7.9L19,254l5.6-7.9
		L26.6,247.5z"/>
	<path class="st0" d="M28.6,229.6c0.4-0.4,0.9-0.6,1.5-0.8c0.5-0.2,1.1-0.2,1.6-0.1c0.6,0.1,1.1,0.2,1.7,0.5
		c0.7,0.4,1.2,0.8,1.5,1.4c0.3,0.6,0.5,1.2,0.5,1.9c0.6-0.4,1.2-0.6,1.9-0.6c0.7,0,1.3,0.2,2,0.5c0.6,0.3,1,0.7,1.4,1.1
		c0.4,0.5,0.6,0.9,0.8,1.5c0.1,0.5,0.2,1.1,0.1,1.7c-0.1,0.6-0.3,1.2-0.6,1.7l-3.1,5.7l-13.5-7.4l3.1-5.7
		C27.8,230.4,28.2,230,28.6,229.6z M30.8,231.2c-0.5,0.1-0.9,0.5-1.1,1l-1.9,3.5l3.5,1.9l1.9-3.5c0.3-0.5,0.3-1,0.2-1.5
		s-0.5-0.9-1-1.2C31.8,231.2,31.3,231.1,30.8,231.2z M36.5,234.3c-0.5,0.1-0.9,0.4-1.2,0.9l-2,3.5l3.5,1.9l1.9-3.5
		c0.3-0.5,0.4-1,0.2-1.5c-0.1-0.5-0.5-0.9-1-1.2C37.5,234.3,37,234.2,36.5,234.3z"/>
	<path class="st0" d="M33.9,216.2l-3.1,6.5l3.5,1.7l3.1-6.5l2.3,1.1l-3.1,6.5l3.6,1.7l3.1-6.5l2.3,1.1l-4.2,8.7l-13.9-6.7l4.2-8.7
		L33.9,216.2z"/>
	<path class="st0" d="M31.9,213.1c-0.4-0.4-0.7-0.9-0.8-1.5c-0.2-0.5-0.2-1.1-0.2-1.7c0.1-0.6,0.2-1.2,0.5-1.8
		c0.5-1.1,1.2-2,2.2-2.5s2.1-0.7,3.3-0.5l-0.1,2.5c-0.8-0.1-1.5-0.1-2,0.2c-0.5,0.3-0.9,0.7-1.1,1.4c-0.3,0.7-0.4,1.3-0.2,1.8
		c0.2,0.5,0.5,0.8,0.9,1c0.3,0.1,0.6,0.2,0.8,0.1s0.5-0.2,0.8-0.3s0.5-0.4,0.8-0.7c0.3-0.3,0.5-0.6,0.8-0.9c0.4-0.4,0.8-0.8,1.2-1.2
		c0.4-0.4,0.8-0.7,1.3-0.9c0.5-0.2,1-0.3,1.5-0.3c0.5,0,1.1,0.1,1.7,0.4c0.7,0.3,1.2,0.7,1.6,1.1s0.7,0.9,0.8,1.5
		c0.2,0.5,0.2,1.1,0.2,1.7c-0.1,0.6-0.2,1.2-0.5,1.8c-0.2,0.5-0.5,0.9-0.8,1.4c-0.3,0.4-0.7,0.8-1.2,1.1c-0.5,0.3-1,0.5-1.6,0.6
		c-0.6,0.1-1.2,0.1-1.9,0l-0.1-2.5c1.6,0.3,2.7-0.2,3.2-1.6c0.3-0.6,0.4-1.2,0.2-1.7c-0.1-0.5-0.5-0.9-1-1.1
		c-0.3-0.1-0.6-0.2-0.9-0.1s-0.5,0.1-0.8,0.3c-0.2,0.2-0.5,0.4-0.7,0.6s-0.5,0.5-0.7,0.8c-0.3,0.4-0.7,0.8-1.1,1.2
		c-0.4,0.4-0.8,0.7-1.3,1c-0.5,0.3-1,0.4-1.6,0.4c-0.6,0-1.2-0.1-1.9-0.4C32.8,213.9,32.2,213.5,31.9,213.1z"/>
	<path class="st0" d="M47.7,200.8l-1,2.3l-11.9-4.9l-2.2,5.4l-2.3-1l5.4-13.1l2.3,1l-2.2,5.4L47.7,200.8z"/>
	<path class="st0" d="M37.5,183.4c-0.7-0.7-1.3-1.5-1.7-2.4c-0.4-0.9-0.6-1.8-0.6-2.9c0-1,0.2-2,0.6-3c0.4-1,0.9-1.8,1.6-2.6
		c0.7-0.7,1.5-1.3,2.4-1.8l1.7,1.9c-0.8,0.3-1.4,0.7-2,1.3c-0.6,0.5-1.1,1.2-1.4,2.1c-0.3,0.7-0.4,1.4-0.4,2c0,0.7,0.1,1.3,0.4,1.9
		c0.3,0.6,0.6,1.1,1.1,1.6c0.5,0.5,1.1,0.9,1.8,1.1c0.7,0.3,1.4,0.4,2.1,0.4c0.7,0,1.3-0.1,1.9-0.4c0.6-0.3,1.1-0.6,1.6-1.1
		s0.8-1.1,1.1-1.7c0.2-0.4,0.3-0.9,0.4-1.3c0.1-0.5,0.1-1,0.1-1.7l2.5,0.5c0,0.7,0,1.3-0.1,1.8s-0.2,1.1-0.5,1.6
		c-0.4,1-0.9,1.8-1.6,2.6c-0.7,0.7-1.5,1.3-2.4,1.7c-0.9,0.4-1.8,0.6-2.9,0.6s-2-0.2-3.1-0.6C39.1,184.7,38.2,184.1,37.5,183.4z"/>
	<path class="st0" d="M49,173l-14.3-5.7l2.3-5.9c0.3-0.7,0.7-1.3,1.2-1.8s1-0.9,1.6-1.1c0.6-0.3,1.3-0.4,2-0.4
		c0.7,0,1.4,0.1,2.1,0.4c1,0.4,1.7,0.9,2.3,1.7c0.6,0.7,0.9,1.5,1,2.4l6.6-1.6l-1.2,2.9l-5.8,1.4c0,0,0,0.1,0,0.1c0,0,0,0,0,0.1
		l-1.4,3.5l4.5,1.8L49,173z M42.7,166.2l-0.5-2.4l2.4-0.6c0-0.5-0.2-1-0.5-1.4c-0.3-0.4-0.7-0.7-1.3-1c-0.4-0.1-0.7-0.2-1.1-0.2
		c-0.4,0-0.7,0.1-1,0.2c-0.3,0.1-0.6,0.3-0.9,0.6c-0.3,0.3-0.5,0.6-0.6,1l-1.4,3.5l5.1,2l0.8-2L42.7,166.2z"/>
	<path class="st0" d="M49.2,154.9l1.9,2.1l-1.1,2.5L38.6,147l0.9-2.3l17-0.5l-1.1,2.5l-2.8,0.1L49.2,154.9z M49.9,146.9l-7.7,0.3
		l5.2,5.8L49.9,146.9z"/>
	<path class="st0" d="M45.9,127.2l-3,6.5l3.6,1.7l3-6.5l2.3,1l-3,6.5l5.9,2.7l-1.1,2.3l-14-6.5l4.1-8.8L45.9,127.2z"/>
	<path class="st0" d="M58.5,123.4l-1.2,2.2l-11.5-5.9l-2.7,5.2l-2.2-1.2l6.5-12.6l2.2,1.2l-2.7,5.2L58.5,123.4z"/>
	<path class="st0" d="M51.5,94.8c0.5-0.3,1-0.6,1.5-0.7c0.5-0.1,1.1-0.1,1.6,0c0.6,0.1,1.1,0.3,1.7,0.6c0.6,0.4,1.1,0.9,1.4,1.5
		s0.5,1.2,0.4,1.9c0.6-0.3,1.2-0.5,1.9-0.5c0.7,0,1.3,0.2,2,0.6c0.5,0.3,1,0.7,1.3,1.2s0.6,1,0.7,1.5c0.1,0.5,0.1,1.1,0,1.7
		c-0.1,0.6-0.3,1.1-0.7,1.7l-3.4,5.5l-13-8.2l3.4-5.5C50.6,95.6,51,95.2,51.5,94.8z M53.6,96.6c-0.5,0.1-0.9,0.4-1.2,0.9l-2.1,3.4
		l3.3,2.1l2.1-3.4c0.3-0.5,0.4-0.9,0.2-1.4s-0.4-0.9-0.9-1.2C54.5,96.6,54,96.5,53.6,96.6z M59.1,100.1c-0.5,0.1-0.9,0.4-1.2,0.8
		l-2.2,3.4l3.3,2.1l2.1-3.3c0.3-0.5,0.4-1,0.3-1.5c-0.1-0.5-0.4-0.9-0.9-1.2C60.1,100.1,59.6,100,59.1,100.1z"/>
	<path class="st0" d="M63.5,96.9l-12.4-9.2l3.8-5.1c0.5-0.6,1-1.1,1.6-1.5c0.6-0.4,1.2-0.6,1.9-0.7c0.7-0.1,1.3-0.1,2,0.1
		c0.7,0.2,1.3,0.5,1.9,0.9c0.8,0.6,1.4,1.3,1.8,2.2c0.4,0.8,0.5,1.7,0.4,2.6l6.8,0.1l-1.9,2.5l-6-0.1c0,0,0,0,0,0.1c0,0,0,0,0,0.1
		L61.1,92l3.9,2.9L63.5,96.9z M59.2,88.7l0.1-2.5l2.5,0c0.1-0.5,0.1-1-0.1-1.5c-0.2-0.5-0.5-0.9-1-1.3c-0.3-0.2-0.6-0.4-1-0.5
		c-0.4-0.1-0.7-0.1-1-0.1c-0.3,0.1-0.7,0.2-1,0.4c-0.3,0.2-0.6,0.5-0.8,0.8l-2.3,3.1l4.4,3.3l1.3-1.7L59.2,88.7z"/>
	<path class="st0" d="M66.2,67.6l-4.8,5.4l2.9,2.6l4.8-5.4l1.9,1.7l-4.8,5.4l2.9,2.6l4.8-5.3l1.9,1.7l-6.5,7.2L57.9,73.1l6.5-7.2
		L66.2,67.6z"/>
	<path class="st0" d="M62,60l2.1-1.7l10.7,5.9l-3.5-11.9l1.9-1.6l11.1,5.6l-3.9-11.6l2.1-1.7l5.2,15.7L86,60l-11.5-5.8l3.7,12.4
		l-1.6,1.4L62,60z"/>
	<path class="st0" d="M91.9,34.5l-6.2,3.7l2,3.4l6.2-3.7l1.3,2.1L89,43.7l2,3.4l6.2-3.7l1.3,2.1l-8.3,5l-7.9-13.2l8.3-5L91.9,34.5z"
		/>
	<path class="st0" d="M98.5,41.2l-6.4-14l5.7-2.6c0.7-0.3,1.4-0.5,2.1-0.5c0.7,0,1.4,0.1,2,0.3s1.2,0.6,1.7,1.1s0.9,1.1,1.2,1.7
		c0.4,0.9,0.6,1.9,0.5,2.8c-0.1,0.9-0.4,1.7-0.9,2.5l6,3.4l-2.8,1.3l-5.2-3c0,0-0.1,0-0.1,0c0,0,0,0-0.1,0l-3.5,1.6l2,4.4L98.5,41.2
		z M98.7,32l1.3-2.1l2.2,1.2c0.3-0.4,0.6-0.8,0.6-1.4c0.1-0.5,0-1-0.3-1.6c-0.2-0.4-0.4-0.7-0.6-0.9c-0.3-0.2-0.6-0.4-0.9-0.6
		s-0.7-0.2-1-0.1c-0.4,0-0.7,0.1-1.1,0.3l-3.5,1.6l2.3,5l2-0.9L98.7,32z"/>
	<path class="st0" d="M113,32.3l-2.4,0.9l-5.3-14.5l2.4-0.9L113,32.3z"/>
	<path class="st0" d="M120.5,13.8l-6.9,2l1.1,3.8l6.9-2l0.7,2.4l-6.9,2l1.1,3.8l6.9-2l0.7,2.4l-9.3,2.8l-4.4-14.8l9.3-2.8
		L120.5,13.8z"/>
	<path class="st0" d="M122.5,10c0.1-0.6,0.4-1.1,0.7-1.5s0.8-0.8,1.3-1.1c0.5-0.3,1.1-0.5,1.8-0.7c1.2-0.3,2.3-0.2,3.3,0.3
		c1,0.5,1.8,1.2,2.3,2.4l-2.1,1.4c-0.4-0.7-0.8-1.2-1.3-1.5c-0.5-0.2-1.1-0.3-1.8-0.1c-0.7,0.2-1.3,0.4-1.6,0.9
		c-0.3,0.4-0.4,0.9-0.3,1.4c0.1,0.3,0.2,0.6,0.4,0.8c0.2,0.2,0.4,0.3,0.7,0.4c0.3,0.1,0.6,0.2,1,0.2c0.4,0.1,0.8,0.1,1.2,0.1
		c0.6,0.1,1.2,0.2,1.7,0.3c0.5,0.1,1,0.3,1.5,0.6c0.4,0.3,0.8,0.6,1.1,1c0.3,0.4,0.6,1,0.7,1.6c0.2,0.7,0.2,1.4,0,1.9
		c-0.1,0.6-0.4,1.1-0.7,1.5s-0.8,0.8-1.3,1.1c-0.5,0.3-1.1,0.5-1.7,0.7c-0.5,0.1-1,0.2-1.6,0.1c-0.5,0-1.1-0.1-1.6-0.3
		c-0.5-0.2-1-0.5-1.4-0.9s-0.8-0.9-1.1-1.6l2-1.5c0.7,1.5,1.7,2,3.2,1.7c0.7-0.1,1.2-0.4,1.5-0.8s0.4-0.9,0.3-1.4
		c-0.1-0.3-0.2-0.6-0.4-0.8c-0.2-0.2-0.4-0.4-0.7-0.5c-0.3-0.1-0.6-0.2-0.9-0.2c-0.4,0-0.7-0.1-1.1-0.1c-0.5,0-1.1-0.1-1.6-0.2
		c-0.5-0.1-1.1-0.3-1.5-0.5c-0.5-0.2-0.9-0.6-1.3-1c-0.4-0.4-0.6-1-0.8-1.7C122.4,11.1,122.4,10.5,122.5,10z"/>
</g>
</svg>
