<?xml version="1.0" encoding="utf-8"?>
<!-- Generator: Adobe Illustrator 21.0.0, SVG Export Plug-In . SVG Version: 6.00 Build 0)  -->
<svg version="1.1" id="Layer_1" xmlns="http://www.w3.org/2000/svg" xmlns:xlink="http://www.w3.org/1999/xlink" x="0px" y="0px"
	 viewBox="0 0 251 332" style="enable-background:new 0 0 251 332;" xml:space="preserve">
<style type="text/css">
	.st0{fill:#ED1B56;}
</style>
<g>
	<path class="st0" d="M6.2,325.1l1.2-2.4l12.2,1l-8.1-9.4l1.1-2.2l12.4,0.6l-8.2-9l1.2-2.4l11.1,12.2l-0.9,1.9l-12.9-0.7l8.4,9.9
		l-0.9,1.9L6.2,325.1z"/>
	<path class="st0" d="M32.2,292.7l-1,2.3l-5.9-2.6l-3.1,7.2l5.9,2.6l-1,2.3L13,298.3l1-2.3l5.9,2.6l3.1-7.2l-5.9-2.6l1-2.3
		L32.2,292.7z"/>
	<path class="st0" d="M21.9,274.5l-2.9,6.6l3.6,1.6l2.9-6.6l2.3,1l-2.9,6.6l3.6,1.6l2.9-6.6l2.3,1l-3.9,8.9l-14.1-6.1l3.9-8.9
		L21.9,274.5z"/>
	<path class="st0" d="M37,263.5l-1,2.1l-14,3.5l10.2,4.7l-1.1,2.3l-13.9-6.5l1-2.1l14-3.5l-10.2-4.7l1.1-2.3L37,263.5z"/>
	<path class="st0" d="M19.9,246.2l1.4-2.3l12,2.2l-7.1-10.2l1.3-2.1l12.3,1.8l-7.3-9.8l1.4-2.3l9.9,13.2l-1.1,1.8l-12.8-1.9
		l7.4,10.6l-1.1,1.8L19.9,246.2z"/>
	<path class="st0" d="M45.9,226.7l-1.5,2l-12.2-9.4l1.5-2L45.9,226.7z"/>
	<path class="st0" d="M45.5,219.3l4.8-5.5l1.9,1.6l-6.5,7.4l-11.6-10.1l1.7-1.9L45.5,219.3z"/>
	<path class="st0" d="M50.9,208.9l5.3-5.1l1.7,1.8l-7.1,6.8l-10.6-11.1l1.8-1.7L50.9,208.9z"/>
	<path class="st0" d="M60.2,193.9l0.4,2.8l-2.3,1.5l-2.7-16.8l2-1.4l14.5,8.8l-2.3,1.5l-2.4-1.5L60.2,193.9z M65.2,187.5l-6.6-4
		l1.2,7.7L65.2,187.5z"/>
	<path class="st0" d="M72.2,181.7l6.5-3.4l1.2,2.2l-8.7,4.6L64,171.5l2.2-1.2L72.2,181.7z"/>
	<path class="st0" d="M81,173.8l6.7-2.9l1,2.3l-9,4l-6.2-14.1l2.3-1L81,173.8z"/>
	<path class="st0" d="M99.8,164.1l-2.4,0.8l-4.1-12.2l-5.5,1.9l-0.8-2.4l13.4-4.5l0.8,2.4l-5.5,1.9L99.8,164.1z"/>
	<path class="st0" d="M117.5,154.7l-2.4,0.7l-1.7-6.2l-7.5,2.1l1.7,6.2l-2.4,0.7l-4.1-14.8l2.4-0.7l1.7,6.2l7.5-2.1l-1.7-6.2
		l2.4-0.7L117.5,154.7z"/>
	<path class="st0" d="M125.6,135.5l-7,1.7l0.9,3.8l7-1.7l0.6,2.4l-7,1.7l1,3.8l7-1.7l0.6,2.4l-9.4,2.4l-3.7-14.9l9.4-2.4
		L125.6,135.5z"/>
	<path class="st0" d="M132.7,128.9c0.1-0.6,0.4-1.1,0.7-1.5c0.3-0.5,0.8-0.8,1.3-1.2s1.1-0.6,1.8-0.7c1.2-0.3,2.3-0.2,3.3,0.2
		c1,0.4,1.8,1.2,2.4,2.3l-2,1.4c-0.4-0.7-0.8-1.2-1.4-1.4c-0.5-0.2-1.1-0.3-1.8-0.1c-0.7,0.2-1.3,0.5-1.5,0.9
		c-0.3,0.4-0.4,0.9-0.3,1.4c0.1,0.3,0.2,0.6,0.4,0.8c0.2,0.2,0.5,0.3,0.7,0.4s0.6,0.2,1,0.2s0.8,0.1,1.2,0.1
		c0.6,0.1,1.2,0.1,1.7,0.3s1,0.3,1.5,0.5c0.4,0.2,0.8,0.6,1.2,1c0.3,0.4,0.6,1,0.7,1.6c0.2,0.7,0.2,1.4,0.1,1.9
		c-0.1,0.6-0.3,1.1-0.7,1.6c-0.3,0.5-0.8,0.8-1.3,1.2c-0.5,0.3-1.1,0.5-1.7,0.7c-0.5,0.1-1,0.2-1.6,0.2s-1.1-0.1-1.6-0.3
		c-0.5-0.2-1-0.5-1.4-0.9c-0.5-0.4-0.8-0.9-1.1-1.6l1.9-1.5c0.7,1.5,1.8,2,3.2,1.6c0.7-0.2,1.2-0.4,1.5-0.8c0.3-0.4,0.4-0.9,0.3-1.5
		c-0.1-0.3-0.2-0.6-0.4-0.8c-0.2-0.2-0.4-0.4-0.7-0.5c-0.3-0.1-0.6-0.2-0.9-0.2c-0.4,0-0.7-0.1-1.1-0.1c-0.5,0-1.1-0.1-1.6-0.2
		c-0.5-0.1-1.1-0.2-1.6-0.5c-0.5-0.2-0.9-0.6-1.3-1c-0.4-0.4-0.6-1-0.8-1.7C132.6,130.1,132.6,129.5,132.7,128.9z"/>
	<path class="st0" d="M152.1,134.3l-2.4,0.6l-3-12.5l-5.7,1.4l-0.6-2.4l13.7-3.4l0.6,2.4l-5.6,1.4L152.1,134.3z"/>
	<path class="st0" d="M169.5,118.3c0.3,1,0.3,2,0.2,2.9c-0.1,0.9-0.4,1.8-0.9,2.6c-0.5,0.8-1,1.4-1.8,2c-0.7,0.6-1.6,1-2.6,1.2
		c-1,0.3-1.9,0.3-2.9,0.2s-1.8-0.4-2.6-0.8c-0.8-0.4-1.5-1-2-1.8c-0.6-0.7-1-1.6-1.3-2.6l-2.2-8l2.4-0.6l2.2,8
		c0.2,0.7,0.5,1.2,0.8,1.7c0.4,0.5,0.8,0.9,1.3,1.1c0.5,0.3,1.1,0.4,1.6,0.5c0.6,0.1,1.2,0,1.8-0.1c0.6-0.2,1.2-0.4,1.7-0.8
		c0.5-0.4,0.9-0.8,1.2-1.3c0.3-0.5,0.5-1,0.6-1.6c0.1-0.6,0-1.2-0.1-1.9l-2.2-8l2.4-0.7L169.5,118.3z"/>
	<path class="st0" d="M178.4,105.2l-6.9,2.2l1.2,3.8l6.9-2.2l0.8,2.4l-6.9,2.2l2,6.2l-2.4,0.8l-4.7-14.7l9.2-3L178.4,105.2z"/>
	<path class="st0" d="M188.1,98.1l-6.7,2.6l1.4,3.7l6.7-2.6l0.9,2.3l-6.7,2.6l2.3,6l-2.3,0.9l-5.6-14.3l9-3.5L188.1,98.1z"/>
	<path class="st0" d="M210.4,95.2l-2.2,1.2l-3.2-5.6l-6.8,3.8l3.2,5.6l-2.2,1.2L191.7,88l2.2-1.2l3.2,5.6l6.8-3.8l-3.2-5.6l2.2-1.2
		L210.4,95.2z"/>
	<path class="st0" d="M211.9,85.6l0.6,2.8l-2.2,1.7l-3.9-16.5l1.9-1.5l15.1,7.7l-2.2,1.7l-2.5-1.3L211.9,85.6z M216.4,78.9l-6.9-3.5
		l1.8,7.6L216.4,78.9z"/>
	<path class="st0" d="M217,58.6c0.6-0.3,1.3-0.5,1.9-0.5c0.7,0,1.3,0.1,2,0.3s1.3,0.6,1.8,1.1c0.6,0.5,1,1.1,1.3,1.7
		c0.3,0.6,0.5,1.3,0.5,1.9s-0.1,1.3-0.3,2c-0.2,0.7-0.6,1.3-1.2,1.8l-2.2,2.4l3.6,3.3l-1.7,1.8l-11.4-10.4l3.9-4.2
		C215.8,59.3,216.4,58.9,217,58.6z M220.1,60.8c-0.3-0.1-0.7-0.2-1-0.2s-0.7,0.1-1,0.3c-0.3,0.2-0.6,0.4-0.9,0.7l-2.2,2.4l4.1,3.7
		l2.2-2.4c0.3-0.3,0.5-0.6,0.6-1c0.1-0.3,0.2-0.7,0.2-1c0-0.4-0.1-0.7-0.2-1c-0.2-0.3-0.4-0.6-0.7-0.9
		C220.7,61.1,220.4,60.9,220.1,60.8z"/>
	<path class="st0" d="M221.4,46.6c0.6-0.4,1.2-0.6,1.8-0.8c0.6-0.1,1.3-0.1,2,0c0.7,0.1,1.3,0.4,2,0.9c0.6,0.4,1.1,0.9,1.5,1.5
		s0.6,1.2,0.8,1.9c0.1,0.7,0.1,1.3,0,2c-0.1,0.7-0.4,1.3-0.9,2l-1.8,2.7l4,2.7l-1.4,2.1l-12.7-8.7l3.2-4.7
		C220.3,47.5,220.8,47,221.4,46.6z M224.7,48.4c-0.4-0.1-0.7-0.1-1.1,0s-0.7,0.2-1,0.4c-0.3,0.2-0.6,0.5-0.8,0.8l-1.8,2.7l4.6,3.1
		l1.8-2.7c0.2-0.3,0.4-0.7,0.5-1c0.1-0.4,0.1-0.7,0-1.1c-0.1-0.3-0.2-0.7-0.4-1s-0.5-0.6-0.8-0.8C225.4,48.6,225.1,48.5,224.7,48.4z
		"/>
	<path class="st0" d="M227,33.5l-3.3,6.4l3.5,1.8l3.3-6.4l2.2,1.1l-3.3,6.4l3.5,1.8l3.2-6.4l2.2,1.1l-4.4,8.7l-13.7-6.9l4.4-8.7
		L227,33.5z"/>
	<path class="st0" d="M241.1,21.6l-0.8,2.2l-13.6,4.8l10.6,3.8l-0.9,2.4L222,29.5l0.8-2.2l13.6-4.8l-10.6-3.8l0.9-2.4L241.1,21.6z"
		/>
	<path class="st0" d="M226.3,14.2c-0.5-0.4-1-0.8-1.3-1.3c-0.3-0.5-0.5-1.1-0.6-1.7c-0.1-0.6,0-1.3,0.1-2c0.2-0.7,0.4-1.3,0.7-1.8
		c0.3-0.5,0.7-0.9,1.2-1.2c0.5-0.3,1-0.5,1.5-0.5c0.6-0.1,1.1,0,1.8,0.1c0.4,0.1,0.8,0.3,1.1,0.4c0.3,0.2,0.6,0.4,0.8,0.6
		c0.2,0.2,0.4,0.5,0.6,0.8s0.4,0.6,0.5,0.9c0.1,0.2,0.3,0.5,0.4,0.7c0.1,0.2,0.2,0.4,0.4,0.6c0.1,0.2,0.3,0.3,0.5,0.4
		c0.2,0.1,0.4,0.2,0.7,0.3l0.4,0.1l-0.6,2.4l-0.7-0.2c-0.4-0.1-0.8-0.3-1.1-0.5c-0.3-0.2-0.6-0.5-0.8-0.7c-0.2-0.3-0.4-0.6-0.6-0.9
		s-0.3-0.6-0.5-0.9c-0.2-0.4-0.4-0.7-0.6-1.1c-0.2-0.3-0.6-0.6-1-0.7c-0.5-0.1-1-0.1-1.4,0.2c-0.4,0.2-0.8,0.7-0.9,1.4
		c-0.2,0.7-0.1,1.3,0.2,1.8c0.3,0.5,0.9,0.8,1.7,1l-0.6,2.4C227.5,14.8,226.9,14.6,226.3,14.2z M236.1,11.3c0.2-0.2,0.3-0.4,0.5-0.5
		c0.2-0.1,0.4-0.2,0.7-0.2c0.2,0,0.5,0,0.8,0c0.5,0.1,0.9,0.4,1.2,0.9c0.3,0.4,0.3,0.9,0.2,1.5c-0.1,0.5-0.4,0.9-0.9,1.2
		c-0.4,0.3-0.9,0.3-1.4,0.2c-0.5-0.1-0.9-0.4-1.2-0.8c-0.3-0.4-0.3-0.9-0.2-1.4C235.8,11.8,235.9,11.5,236.1,11.3z"/>
</g>
</svg>
